{"glyphs":{"0":{"ha":1127,"x_min":88,"x_max":1039,"o":"m 740 960 q 951 872 864 960 q 1039 661 1039 785 l 1039 298 q 951 87 1039 175 q 740 0 864 0 l 387 0 q 176 87 264 0 q 88 298 88 175 l 88 661 q 176 872 88 785 q 387 960 264 960 l 740 960 m 863 627 q 808 762 863 706 q 672 819 751 819 l 455 819 q 319 762 376 819 q 264 627 264 706 l 264 332 q 319 197 264 254 q 455 141 376 141 l 672 141 q 808 197 751 141 q 863 332 863 254 l 863 627 z "},"1":{"ha":560,"x_min":7,"x_max":472,"o":"m 418 954 q 472 875 472 933 l 472 0 l 296 0 l 296 730 l 113 492 l 7 597 l 254 928 q 296 957 270 949 q 319 960 307 960 q 418 954 402 960 z "},"2":{"ha":1156,"x_min":88,"x_max":1068,"o":"m 264 141 l 1068 142 l 1068 0 l 88 0 l 88 403 q 141 530 88 477 q 269 584 194 584 l 826 584 q 873 603 854 584 q 892 650 892 623 l 892 752 q 873 799 892 779 q 826 819 854 819 l 112 819 l 112 960 l 894 960 q 1017 909 966 960 q 1068 786 1068 858 l 1068 616 q 1017 493 1068 544 q 894 442 966 442 l 337 442 q 285 420 307 442 q 264 369 264 399 l 264 141 z "},"3":{"ha":1065,"x_min":88,"x_max":977,"o":"m 802 960 q 926 909 874 960 q 977 786 977 858 l 977 616 q 928 496 977 547 q 977 376 977 446 l 977 174 q 926 51 977 102 q 802 0 874 0 l 88 0 l 88 141 l 734 141 q 781 161 762 141 q 801 208 801 180 l 801 362 q 781 409 801 390 q 734 429 762 429 l 124 429 l 124 570 l 734 570 q 781 589 762 570 q 801 637 801 609 l 801 752 q 781 799 801 779 q 734 819 762 819 l 88 819 l 88 960 l 802 960 z "},"4":{"ha":1234,"x_min":20,"x_max":1213,"o":"m 1010 356 l 1213 356 l 1213 214 l 1010 214 l 1010 0 l 834 0 l 834 214 l 105 214 q 26 269 46 214 q 20 300 20 284 q 24 323 20 311 q 54 366 32 350 l 874 943 q 925 960 899 960 q 960 952 943 960 q 1010 876 1010 929 l 1010 356 m 838 743 l 292 361 l 838 361 l 838 743 z "},"5":{"ha":1156,"x_min":88,"x_max":1068,"o":"m 1068 819 l 264 819 l 264 570 l 894 570 q 1017 519 966 570 q 1068 397 1068 469 l 1068 174 q 1017 51 1068 102 q 894 0 966 0 l 88 0 l 88 141 l 826 141 q 873 161 854 141 q 892 208 892 180 l 892 363 q 873 410 892 390 q 826 429 854 429 l 88 429 l 88 960 l 1068 960 l 1068 819 z "},"6":{"ha":1065,"x_min":88,"x_max":977,"o":"m 88 786 q 140 909 88 858 q 262 960 191 960 l 916 960 l 916 819 l 330 819 q 283 799 302 819 q 264 752 264 779 l 264 564 l 802 564 q 926 513 874 564 q 977 389 977 461 l 977 174 q 926 51 977 102 q 802 0 874 0 l 262 0 q 140 51 191 0 q 88 174 88 102 l 88 786 m 264 422 l 264 208 q 283 161 264 180 q 330 141 302 141 l 734 141 q 781 161 762 141 q 801 208 801 180 l 801 355 q 781 402 801 383 q 734 422 762 422 l 264 422 z "},"7":{"ha":992,"x_min":20,"x_max":972,"o":"m 883 960 q 959 918 935 960 q 972 875 972 896 q 955 827 972 850 l 340 -22 l 212 41 l 772 819 l 20 819 l 20 960 l 883 960 z "},"8":{"ha":1110,"x_min":88,"x_max":1022,"o":"m 848 960 q 971 909 920 960 q 1022 786 1022 858 l 1022 616 q 974 496 1022 547 q 1022 376 1022 446 l 1022 174 q 971 51 1022 102 q 848 0 920 0 l 262 0 q 140 51 191 0 q 88 174 88 102 l 88 376 q 137 496 88 446 q 88 616 88 547 l 88 786 q 140 909 88 858 q 262 960 191 960 l 848 960 m 264 637 q 283 590 264 609 q 330 570 303 570 l 781 570 q 827 590 808 570 q 847 637 847 609 l 847 752 q 827 799 847 779 q 781 819 808 819 l 330 819 q 283 799 303 819 q 264 752 264 779 l 264 637 m 847 362 q 827 409 847 390 q 781 429 808 429 l 330 429 q 283 409 303 429 q 264 362 264 390 l 264 208 q 283 161 264 180 q 330 141 303 141 l 781 141 q 827 161 808 141 q 847 208 847 180 l 847 362 z "},"9":{"ha":1065,"x_min":88,"x_max":977,"o":"m 802 960 q 926 909 874 960 q 977 786 977 858 l 977 174 q 926 51 977 102 q 802 0 874 0 l 88 0 l 88 141 l 734 141 q 781 161 762 141 q 801 208 801 180 l 801 396 l 262 396 q 140 447 191 396 q 88 570 88 498 l 88 786 q 140 909 88 858 q 262 960 191 960 l 802 960 m 801 752 q 781 799 801 779 q 734 819 762 819 l 330 819 q 283 799 302 819 q 264 752 264 779 l 264 604 q 283 557 264 576 q 330 538 302 538 l 801 538 l 801 752 z "},"\u0000":{"ha":176,"x_min":0,"x_max":0,"o":""}," ":{"ha":475,"x_min":0,"x_max":0,"o":""},"!":{"ha":366,"x_min":95,"x_max":271,"o":"m 95 960 l 271 960 l 271 299 l 95 299 l 95 960 m 95 142 l 271 142 l 271 0 l 95 0 l 95 142 z "},"\"":{"ha":549,"x_min":88,"x_max":460,"o":"m 88 959 l 223 959 l 223 789 l 203 661 l 109 661 l 88 789 l 88 959 m 319 959 l 460 959 l 460 789 l 440 661 l 339 661 l 319 789 l 319 959 z "},"#":{"ha":1241,"x_min":88,"x_max":1153,"o":"m 902 577 l 861 395 l 1147 395 l 1147 287 l 836 287 l 770 0 l 666 24 l 726 287 l 444 287 l 378 0 l 273 24 l 333 287 l 90 287 l 90 395 l 357 395 l 399 577 l 88 577 l 88 685 l 423 685 l 491 981 l 596 958 l 534 685 l 816 685 l 884 981 l 988 958 l 926 685 l 1153 685 l 1153 577 l 902 577 m 750 395 l 791 577 l 509 577 l 468 395 l 750 395 z "},"$":{"ha":1156,"x_min":88,"x_max":1067,"o":"m 886 550 q 1015 496 962 550 q 1067 369 1067 444 l 1067 181 q 1015 54 1067 106 q 886 1 962 1 l 665 1 l 665 -98 l 490 -98 l 490 1 l 109 1 l 109 108 l 490 108 l 490 442 l 262 442 q 139 493 190 442 q 88 616 88 544 l 88 785 q 139 909 88 857 q 262 960 190 960 l 490 960 l 490 1058 l 665 1058 l 665 960 l 1000 960 l 1000 852 l 665 852 l 665 550 l 886 550 m 490 550 l 490 852 l 330 852 q 283 832 302 852 q 263 785 263 813 l 263 616 q 283 569 263 589 q 330 550 302 550 l 490 550 m 892 369 q 871 420 892 399 q 819 442 849 442 l 665 442 l 665 108 l 819 108 q 871 130 849 108 q 892 181 892 151 l 892 369 z "},"%":{"ha":1531,"x_min":68,"x_max":1463,"o":"m 470 994 q 626 945 561 994 q 692 823 692 895 l 692 633 q 626 511 692 562 q 470 463 561 463 l 291 463 q 134 511 200 463 q 68 633 68 562 l 68 823 q 134 945 68 895 q 291 994 200 994 l 470 994 m 556 823 q 523 884 556 858 q 436 910 487 910 l 325 910 q 238 884 273 910 q 204 823 204 858 l 204 633 q 238 573 204 598 q 325 546 273 546 l 436 546 q 523 573 487 546 q 556 633 556 598 l 556 823 m 333 -41 l 1069 993 l 1212 993 l 476 -41 l 333 -41 m 1241 497 q 1397 448 1332 497 q 1463 326 1463 398 l 1463 136 q 1397 15 1463 64 q 1241 -34 1332 -34 l 1062 -34 q 905 15 971 -34 q 839 136 839 64 l 839 326 q 905 448 839 398 q 1062 497 971 497 l 1241 497 m 1327 326 q 1294 387 1327 361 q 1207 414 1258 414 l 1096 414 q 1009 387 1044 414 q 975 326 975 361 l 975 136 q 1009 76 975 102 q 1096 50 1044 50 l 1207 50 q 1294 76 1258 50 q 1327 136 1327 102 l 1327 326 z "},"&":{"ha":1198,"x_min":88,"x_max":1110,"o":"m 1110 550 l 1110 442 l 1008 442 q 1022 376 1022 410 l 1022 174 q 971 51 1022 102 q 848 0 920 0 l 262 0 q 139 51 190 0 q 88 174 88 102 l 88 376 q 136 496 88 446 q 88 616 88 547 l 88 786 q 139 909 88 858 q 262 960 190 960 l 810 960 l 810 852 l 330 852 q 283 833 302 852 q 264 786 264 813 l 264 616 q 283 570 264 589 q 330 550 302 550 l 1110 550 m 846 376 q 827 422 846 404 q 780 442 808 442 l 330 442 q 283 422 302 442 q 264 376 264 404 l 264 174 q 283 127 264 146 q 330 107 302 107 l 780 107 q 827 127 808 107 q 846 174 846 146 l 846 376 z "},"'":{"ha":318,"x_min":88,"x_max":230,"o":"m 88 959 l 230 959 l 230 789 l 210 661 l 109 661 l 88 789 l 88 959 z "},"(":{"ha":475,"x_min":88,"x_max":387,"o":"m 88 714 q 160 888 88 816 q 334 960 232 960 l 387 960 l 387 852 l 374 852 q 277 812 317 852 q 236 714 236 771 l 236 -26 q 277 -123 236 -83 q 374 -164 317 -164 l 387 -164 l 387 -271 l 334 -271 q 160 -199 232 -271 q 88 -26 88 -127 l 88 714 z "},")":{"ha":475,"x_min":88,"x_max":387,"o":"m 387 -26 q 315 -199 387 -127 q 142 -271 243 -271 l 88 -271 l 88 -164 l 101 -164 q 199 -123 158 -164 q 239 -26 239 -83 l 239 714 q 199 812 239 771 q 101 852 158 852 l 88 852 l 88 960 l 142 960 q 315 888 243 960 q 387 714 387 816 l 387 -26 z "},"*":{"ha":680,"x_min":88,"x_max":592,"o":"m 562 853 l 592 749 l 433 704 l 530 585 l 448 517 l 340 648 l 233 517 l 150 585 l 247 704 l 88 749 l 118 853 l 286 804 l 286 960 l 394 960 l 394 804 l 562 853 z "},"+":{"ha":917,"x_min":88,"x_max":829,"o":"m 547 537 l 829 537 l 829 416 l 547 416 l 547 142 l 371 142 l 371 416 l 88 416 l 88 537 l 371 537 l 371 811 l 547 811 l 547 537 z "},",":{"ha":359,"x_min":88,"x_max":271,"o":"m 183 0 l 88 0 l 88 142 l 271 142 l 271 -129 l 197 -129 q 183 0 197 -54 z "},"-":{"ha":713,"x_min":88,"x_max":625,"o":"m 88 555 l 625 555 l 625 414 l 88 414 l 88 555 z "},".":{"ha":353,"x_min":88,"x_max":264,"o":"m 88 142 l 264 142 l 264 0 l 88 0 l 88 142 z "},"/":{"ha":536,"x_min":7,"x_max":530,"o":"m 7 -27 l 399 960 l 530 960 l 138 -27 l 7 -27 z "},":":{"ha":353,"x_min":88,"x_max":264,"o":"m 88 142 l 264 142 l 264 0 l 88 0 l 88 142 m 88 661 l 264 661 l 264 519 l 88 519 l 88 661 z "},";":{"ha":359,"x_min":88,"x_max":271,"o":"m 183 0 l 88 0 l 88 142 l 271 142 l 271 -129 l 197 -129 q 183 0 197 -54 m 88 661 l 264 661 l 264 519 l 88 519 l 88 661 z "},"<":{"ha":739,"x_min":88,"x_max":650,"o":"m 650 144 l 88 406 l 88 555 l 650 816 l 650 663 l 216 480 l 650 297 l 650 144 z "},"=":{"ha":713,"x_min":88,"x_max":625,"o":"m 88 399 l 625 399 l 625 292 l 88 292 l 88 399 m 88 671 l 625 671 l 625 563 l 88 563 l 88 671 z "},">":{"ha":739,"x_min":88,"x_max":650,"o":"m 88 297 l 522 480 l 88 663 l 88 816 l 650 555 l 650 406 l 88 144 l 88 297 z "},"?":{"ha":1101,"x_min":68,"x_max":1013,"o":"m 840 960 q 962 909 911 960 q 1013 787 1013 859 l 1013 617 q 962 494 1013 545 q 840 443 911 443 l 603 443 q 551 422 572 443 q 530 370 530 400 l 530 216 l 354 216 l 354 404 q 407 532 354 479 q 535 585 460 585 l 772 585 q 819 604 799 585 q 838 651 838 623 l 838 753 q 819 800 838 780 q 772 819 799 819 l 68 819 l 68 960 l 840 960 m 355 108 l 532 108 l 532 -1 l 355 -1 l 355 108 z "},"@":{"ha":1238,"x_min":88,"x_max":1149,"o":"m 1067 722 q 1149 456 1149 593 q 1129 314 1149 380 q 1076 204 1108 247 q 903 123 1010 123 q 865 127 883 123 q 745 233 772 145 q 671 216 709 216 l 516 216 q 394 267 445 216 q 344 389 344 318 l 344 597 q 425 743 351 693 q 530 774 472 774 l 660 774 q 796 721 744 774 q 844 593 842 682 l 844 290 q 885 233 844 241 q 903 231 894 231 q 952 243 926 231 q 1004 288 989 259 l 1006 294 l 1019 327 q 1042 454 1042 392 q 977 663 1042 562 q 824 803 918 753 q 616 852 730 852 q 319 743 442 852 q 196 479 196 634 q 319 216 196 326 q 616 107 442 107 q 736 123 677 107 l 788 136 l 815 32 l 763 18 q 616 0 692 0 q 243 140 398 0 q 88 479 88 281 q 243 819 88 678 q 616 960 398 960 q 876 897 758 960 q 1067 722 994 836 m 736 602 q 720 646 736 628 q 660 667 699 667 l 530 667 q 476 648 499 667 q 451 604 454 629 l 451 389 q 471 343 451 362 q 516 324 490 324 l 671 324 q 718 343 699 324 q 736 389 736 362 l 736 602 z "},"A":{"ha":1265,"x_min":88,"x_max":1177,"o":"m 1001 481 l 1001 627 q 945 762 1001 706 q 810 819 888 819 l 455 819 q 319 762 376 819 q 264 627 264 706 l 264 481 l 1001 481 m 264 340 l 264 0 l 88 0 l 88 661 q 176 872 88 785 q 387 960 263 960 l 878 960 q 1088 872 1001 960 q 1177 661 1177 785 l 1177 0 l 1001 0 l 1001 340 l 264 340 z "},"B":{"ha":1220,"x_min":88,"x_max":1132,"o":"m 1025 493 q 1132 277 1132 411 l 1132 272 q 1052 79 1132 159 q 859 0 972 0 l 88 0 l 88 785 q 140 909 88 858 q 262 960 191 960 l 859 960 q 1060 878 984 960 q 1128 701 1128 805 q 1025 493 1128 568 m 264 557 l 791 557 q 913 590 869 557 q 952 694 952 625 q 913 784 952 743 q 791 819 869 819 l 330 819 q 283 799 303 819 q 264 751 264 779 l 264 557 m 956 298 q 908 394 956 352 q 791 429 859 429 l 264 429 l 264 141 l 791 141 q 908 176 859 141 q 956 272 956 218 l 956 298 z "},"C":{"ha":1265,"x_min":88,"x_max":1177,"o":"m 88 661 q 176 872 88 785 q 387 960 264 960 l 1177 960 l 1177 819 l 455 819 q 320 762 376 819 q 264 627 264 706 l 264 332 q 320 197 264 254 q 455 141 376 141 l 1177 141 l 1177 0 l 387 0 q 176 87 264 0 q 88 298 88 175 l 88 661 z "},"D":{"ha":1265,"x_min":88,"x_max":1177,"o":"m 878 960 q 1089 872 1001 960 q 1177 661 1177 785 l 1177 298 q 1089 87 1177 175 q 878 0 1001 0 l 88 0 l 88 785 q 139 909 88 858 q 262 960 191 960 l 878 960 m 1001 627 q 945 762 1001 706 q 810 819 889 819 l 330 819 q 283 799 302 819 q 264 751 264 779 l 264 141 l 810 141 q 945 197 889 141 q 1001 332 1001 254 l 1001 627 z "},"E":{"ha":1087,"x_min":88,"x_max":999,"o":"m 88 785 q 139 909 88 858 q 262 960 190 960 l 999 960 l 999 819 l 330 819 q 283 799 302 819 q 263 751 263 779 l 263 550 l 999 550 l 999 408 l 263 408 l 263 141 l 999 141 l 999 0 l 88 0 l 88 785 z "},"F":{"ha":1087,"x_min":88,"x_max":999,"o":"m 88 785 q 139 909 88 858 q 262 960 190 960 l 999 960 l 999 819 l 330 819 q 283 799 302 819 q 263 751 263 779 l 263 550 l 999 550 l 999 408 l 263 408 l 263 0 l 88 0 l 88 785 z "},"G":{"ha":1265,"x_min":88,"x_max":1177,"o":"m 572 584 l 1177 584 l 1177 298 q 1089 87 1177 175 q 878 0 1002 0 l 387 0 q 176 87 264 0 q 88 298 88 175 l 88 661 q 176 872 88 785 q 387 960 264 960 l 1050 960 l 1050 819 l 455 819 q 320 762 376 819 q 264 627 264 706 l 264 332 q 320 197 264 254 q 455 141 376 141 l 810 141 q 945 197 889 141 q 1001 332 1001 254 l 1001 442 l 572 442 l 572 584 z "},"H":{"ha":1155,"x_min":88,"x_max":1067,"o":"m 1067 0 l 892 0 l 892 415 l 264 415 l 264 0 l 88 0 l 88 960 l 264 960 l 264 557 l 892 557 l 892 960 l 1067 960 l 1067 0 z "},"I":{"ha":352,"x_min":88,"x_max":264,"o":"m 88 960 l 264 960 l 264 0 l 88 0 l 88 960 z "},"J":{"ha":638,"x_min":88,"x_max":550,"o":"m 374 960 l 550 960 l 550 229 q 483 67 550 134 q 321 0 416 0 l 88 0 l 88 141 l 254 141 q 339 177 304 141 q 374 262 374 212 l 374 960 z "},"K":{"ha":1158,"x_min":88,"x_max":1070,"o":"m 895 960 l 1070 960 l 1070 671 q 989 496 1070 565 q 1070 321 1070 427 l 1070 0 l 895 0 l 895 300 q 859 387 895 351 q 774 422 823 422 l 264 422 l 264 0 l 88 0 l 88 960 l 264 960 l 264 564 l 774 564 q 859 599 823 564 q 895 684 895 634 l 895 960 z "},"L":{"ha":1019,"x_min":88,"x_max":931,"o":"m 264 208 q 283 161 264 180 q 330 141 302 141 l 931 141 l 931 0 l 262 0 q 139 51 190 0 q 88 174 88 102 l 88 960 l 264 960 l 264 208 z "},"M":{"ha":1666,"x_min":88,"x_max":1578,"o":"m 1350 960 q 1511 871 1444 960 q 1578 656 1578 781 l 1578 0 l 1402 0 l 1402 622 q 1367 760 1402 701 q 1282 819 1330 819 l 1079 819 q 963 741 1012 819 q 914 559 914 665 l 914 0 l 745 0 l 745 622 q 709 760 745 701 q 624 819 673 819 l 428 819 q 312 741 361 819 q 263 559 263 665 l 263 0 l 88 0 l 88 650 q 182 871 106 783 q 360 960 259 960 l 658 960 q 844 831 776 960 q 1052 960 926 960 l 1350 960 z "},"N":{"ha":1265,"x_min":88,"x_max":1177,"o":"m 878 960 q 1089 872 1001 960 q 1177 661 1177 785 l 1177 1 l 1001 1 l 1001 627 q 945 762 1001 706 q 810 819 889 819 l 455 819 q 320 762 376 819 q 264 627 264 706 l 264 0 l 88 0 l 88 661 q 176 872 88 785 q 387 960 264 960 l 878 960 z "},"O":{"ha":1265,"x_min":88,"x_max":1177,"o":"m 878 960 q 1089 872 1001 960 q 1177 661 1177 785 l 1177 298 q 1089 87 1177 175 q 878 0 1001 0 l 387 0 q 176 87 264 0 q 88 298 88 175 l 88 661 q 176 872 88 785 q 387 960 264 960 l 878 960 m 1001 627 q 945 762 1001 706 q 810 819 889 819 l 455 819 q 320 762 376 819 q 264 627 264 706 l 264 332 q 320 197 264 254 q 455 141 376 141 l 810 141 q 945 197 889 141 q 1001 332 1001 254 l 1001 627 z "},"P":{"ha":1262,"x_min":88,"x_max":1174,"o":"m 877 960 q 1100 857 1017 960 q 1174 624 1174 745 q 1099 383 1174 469 q 877 288 1015 288 l 263 288 l 263 0 l 88 0 l 88 785 q 139 909 88 858 q 262 960 190 960 l 877 960 m 951 475 q 998 624 998 515 q 953 771 998 731 q 809 819 901 819 l 330 819 q 283 799 302 819 q 263 751 263 779 l 263 429 l 809 429 q 951 475 899 429 z "},"Q":{"ha":1265,"x_min":88,"x_max":1177,"o":"m 726 141 l 810 141 q 945 197 889 141 q 1001 332 1001 254 l 1001 627 q 945 762 1001 706 q 810 819 889 819 l 455 819 q 320 762 376 819 q 264 627 264 706 l 264 332 q 320 197 264 254 q 455 141 376 141 l 539 141 l 539 273 l 726 273 l 726 141 m 539 0 l 387 0 q 176 87 264 0 q 88 298 88 175 l 88 661 q 176 872 88 785 q 387 960 264 960 l 878 960 q 1089 872 1001 960 q 1177 661 1177 785 l 1177 298 q 1089 87 1177 175 q 878 0 1001 0 l 726 0 l 726 -178 l 539 -178 l 539 0 z "},"R":{"ha":1265,"x_min":88,"x_max":1177,"o":"m 1051 478 q 1177 235 1177 388 l 1177 0 l 1001 0 l 1001 201 q 945 336 1001 280 q 810 393 888 393 l 264 393 l 264 0 l 88 0 l 88 792 q 139 909 88 858 q 262 960 191 960 l 878 960 q 1099 872 1016 960 q 1174 693 1174 800 q 1051 478 1174 557 m 810 534 q 951 572 900 534 q 999 693 999 613 q 953 785 999 752 q 810 819 901 819 l 330 819 q 283 799 302 819 q 264 758 264 779 l 264 534 l 810 534 z "},"S":{"ha":1156,"x_min":88,"x_max":1067,"o":"m 887 549 q 1015 496 962 549 q 1067 368 1067 443 l 1067 180 q 1015 53 1067 106 q 887 0 962 0 l 88 0 l 88 141 l 819 141 q 871 163 849 141 q 892 214 892 184 l 892 334 q 871 386 892 365 q 819 408 849 408 l 262 408 q 139 458 190 408 q 88 581 88 509 l 88 785 q 139 908 88 857 q 262 959 190 959 l 1067 959 l 1067 819 l 330 819 q 283 799 302 819 q 263 752 263 780 l 263 615 q 283 568 263 588 q 330 549 302 549 l 887 549 z "},"T":{"ha":1095,"x_min":88,"x_max":1006,"o":"m 88 960 l 1006 960 l 1006 819 l 635 819 l 635 0 l 466 0 l 466 819 l 88 819 l 88 960 z "},"U":{"ha":1265,"x_min":88,"x_max":1177,"o":"m 1001 960 l 1177 960 l 1177 298 q 1089 87 1177 175 q 878 0 1001 0 l 387 0 q 176 87 264 0 q 88 298 88 175 l 88 960 l 264 960 l 264 332 q 320 197 264 254 q 455 141 376 141 l 810 141 q 945 197 889 141 q 1001 332 1001 254 l 1001 960 z "},"V":{"ha":1270,"x_min":7,"x_max":1263,"o":"m 1263 960 l 953 306 q 808 81 865 141 q 642 0 728 0 l 627 0 q 459 81 541 0 q 315 308 391 149 l 7 960 l 199 960 l 484 356 q 633 146 578 146 q 786 357 688 146 l 1071 960 l 1263 960 z "},"W":{"ha":1787,"x_min":88,"x_max":1699,"o":"m 1523 960 l 1699 960 l 1699 298 q 1611 87 1699 175 q 1400 0 1524 0 l 1139 0 q 893 128 983 0 q 648 0 804 0 l 387 0 q 176 87 263 0 q 88 298 88 175 l 88 960 l 263 960 l 263 332 q 319 197 263 254 q 454 141 376 141 l 614 141 q 749 197 694 141 q 806 332 806 254 l 806 960 l 981 960 l 981 332 q 1038 197 981 254 q 1173 141 1093 141 l 1332 141 q 1468 197 1411 141 q 1523 332 1523 254 l 1523 960 z "},"X":{"ha":1274,"x_min":88,"x_max":1186,"o":"m 1010 960 l 1186 960 l 1186 701 q 1053 492 1186 570 q 1186 275 1186 409 l 1186 0 l 1010 0 l 1010 254 q 962 373 1010 323 q 843 422 912 422 l 431 422 q 313 373 362 422 q 264 254 264 323 l 264 0 l 88 0 l 88 275 q 222 492 88 409 q 88 701 88 570 l 88 960 l 264 960 l 264 722 q 308 614 264 659 q 415 570 353 570 l 859 570 q 966 614 922 570 q 1010 722 1010 659 l 1010 960 z "},"Y":{"ha":1265,"x_min":88,"x_max":1177,"o":"m 1001 960 l 1177 960 l 1177 298 q 1088 87 1177 175 q 878 0 1001 0 l 88 0 l 88 141 l 810 141 q 945 197 888 141 q 1001 332 1001 254 l 1001 458 q 810 389 918 389 l 387 389 q 176 477 263 389 q 88 742 88 564 l 88 960 l 264 960 l 264 777 q 319 587 264 644 q 455 531 376 531 l 810 531 q 945 587 888 531 q 1001 777 1001 644 l 1001 960 z "},"Z":{"ha":1181,"x_min":88,"x_max":1093,"o":"m 919 960 q 1045 918 997 960 q 1093 808 1093 876 l 1093 760 q 945 588 1093 668 l 341 269 q 264 186 264 228 q 330 141 264 142 l 1068 141 l 1068 0 l 262 0 q 136 41 184 0 q 88 150 88 83 l 88 199 q 134 306 88 261 q 223 364 161 332 l 827 684 q 918 774 918 732 q 851 819 915 819 l 113 819 l 113 960 l 919 960 z "},"[":{"ha":463,"x_min":88,"x_max":374,"o":"m 88 960 l 374 960 l 374 819 l 263 819 l 263 -130 l 374 -130 l 374 -271 l 88 -271 l 88 960 z "},"\\":{"ha":559,"x_min":7,"x_max":552,"o":"m 400 -29 l 7 960 l 158 960 l 552 -29 l 400 -29 z "},"]":{"ha":463,"x_min":88,"x_max":374,"o":"m 374 -271 l 88 -271 l 88 -130 l 199 -130 l 199 819 l 88 819 l 88 960 l 374 960 l 374 -271 z "},"^":{"ha":928,"x_min":92,"x_max":836,"o":"m 92 580 l 406 960 l 522 960 l 836 580 l 629 580 l 464 793 l 299 580 l 92 580 z "},"_":{"ha":984,"x_min":88,"x_max":896,"o":"m 88 -1 l 896 -1 l 896 -142 l 88 -142 l 88 -1 z "},"`":{"ha":481,"x_min":22,"x_max":380,"o":"m 205 708 l 22 905 l 258 905 l 380 708 l 205 708 z "},"a":{"ha":1118,"x_min":68,"x_max":1050,"o":"m 364 114 q 290 128 321 114 q 243 196 243 151 l 243 205 q 290 273 243 251 q 364 288 320 288 l 753 288 q 827 273 797 288 q 874 206 874 251 q 753 114 874 114 l 364 114 m 1050 443 q 982 596 1050 532 q 821 661 914 661 l 143 661 l 143 540 l 753 540 q 840 504 803 540 q 874 429 874 471 l 874 376 q 753 402 821 402 l 296 402 q 131 348 194 402 q 68 205 68 294 l 68 196 q 131 54 68 108 q 296 0 194 0 l 821 0 q 987 56 925 0 q 1050 205 1049 112 l 1050 443 z "},"b":{"ha":1158,"x_min":88,"x_max":1070,"o":"m 842 661 q 1003 594 936 661 q 1070 433 1070 527 l 1070 229 q 1003 67 1070 134 q 842 0 936 0 l 361 0 q 168 79 248 0 q 88 272 88 159 l 88 960 l 264 960 l 264 606 q 429 661 336 661 l 842 661 m 895 419 q 859 505 895 469 q 774 540 823 540 l 429 540 q 312 492 360 540 q 264 376 264 444 l 264 286 q 312 170 264 218 q 429 121 360 121 l 774 121 q 859 157 823 121 q 895 242 895 192 l 895 419 z "},"c":{"ha":1067,"x_min":88,"x_max":979,"o":"m 88 389 q 168 581 88 502 q 361 661 248 661 l 979 661 l 979 540 l 429 540 q 312 492 360 540 q 264 376 264 444 l 264 286 q 312 170 264 218 q 429 121 360 121 l 979 121 l 979 0 l 361 0 q 168 79 248 0 q 88 272 88 159 l 88 389 z "},"d":{"ha":1159,"x_min":88,"x_max":1071,"o":"m 1071 272 q 991 79 1071 159 q 798 0 911 0 l 317 0 q 155 67 222 0 q 88 229 88 134 l 88 433 q 155 594 88 527 q 317 661 222 661 l 730 661 q 895 606 822 661 l 895 960 l 1071 960 l 1071 272 m 730 121 q 847 170 798 121 q 895 286 895 218 l 895 376 q 847 492 895 444 q 730 540 798 540 l 385 540 q 300 505 335 540 q 264 419 264 469 l 264 242 q 300 157 264 192 q 385 121 335 121 l 730 121 z "},"e":{"ha":1158,"x_min":88,"x_max":1070,"o":"m 798 661 q 990 581 910 661 q 1070 389 1070 502 l 1070 286 l 263 286 l 263 242 q 299 157 263 192 q 385 121 334 121 l 1069 121 l 1069 0 l 317 0 q 155 67 222 0 q 88 229 88 134 l 88 433 q 155 594 88 527 q 317 661 222 661 l 798 661 m 893 408 q 840 498 886 456 q 730 540 793 540 l 385 540 q 299 505 334 540 q 263 433 263 469 l 263 408 l 893 408 z "},"f":{"ha":629,"x_min":88,"x_max":541,"o":"m 88 731 q 155 892 88 826 q 317 960 222 960 l 539 960 l 539 839 l 385 839 q 299 803 335 839 q 264 718 264 768 l 264 660 l 541 660 l 541 538 l 264 538 l 264 0 l 88 0 l 88 731 z "},"g":{"ha":1158,"x_min":88,"x_max":1070,"o":"m 798 662 q 990 582 910 662 q 1070 390 1070 503 l 1070 -69 q 1003 -231 1070 -164 q 842 -298 936 -298 l 142 -298 l 142 -177 l 774 -177 q 859 -141 823 -177 q 895 -56 895 -106 l 895 56 q 730 1 821 1 l 317 1 q 155 68 222 1 q 88 229 88 134 l 88 433 q 155 595 88 528 q 317 662 222 662 l 798 662 m 730 121 q 846 170 798 121 q 895 286 895 218 l 895 376 q 846 492 895 444 q 730 541 798 541 l 385 541 q 299 505 334 541 q 263 420 263 470 l 263 243 q 299 157 263 193 q 385 121 334 121 l 730 121 z "},"h":{"ha":1158,"x_min":88,"x_max":1070,"o":"m 842 661 q 1003 594 936 661 q 1070 433 1070 527 l 1070 0 l 895 0 l 895 419 q 859 505 895 469 q 774 540 824 540 l 429 540 q 312 492 360 540 q 264 376 264 444 l 264 0 l 88 0 l 88 960 l 264 960 l 264 606 q 429 661 337 661 l 842 661 z "},"i":{"ha":366,"x_min":95,"x_max":271,"o":"m 95 661 l 271 661 l 271 0 l 95 0 l 95 661 m 95 960 l 271 960 l 271 784 l 95 784 l 95 960 z "},"j":{"ha":381,"x_min":-250,"x_max":279,"o":"m 104 661 l 279 661 l 279 -70 q 212 -232 279 -165 q 51 -298 146 -298 l -250 -298 l -250 -178 l -17 -178 q 68 -142 33 -178 q 104 -56 104 -106 l 104 661 m 103 960 l 279 960 l 279 783 l 103 783 l 103 960 z "},"k":{"ha":1158,"x_min":88,"x_max":1070,"o":"m 991 260 q 1070 88 1070 192 l 1070 0 l 895 0 l 895 75 q 859 160 895 125 q 774 195 824 195 l 264 195 l 264 0 l 88 0 l 88 960 l 264 960 l 264 627 q 385 661 319 661 l 842 661 q 1011 591 947 661 q 1069 435 1069 526 q 991 260 1069 327 m 774 317 q 865 354 832 317 q 893 429 893 387 q 865 503 893 470 q 774 540 832 540 l 385 540 q 299 505 335 540 q 264 419 264 469 l 264 317 l 774 317 z "},"l":{"ha":518,"x_min":102,"x_max":511,"o":"m 277 242 q 313 157 277 192 q 399 121 349 121 l 511 121 l 511 0 l 331 0 q 169 67 236 0 q 102 229 102 134 l 102 960 l 277 960 l 277 242 z "},"m":{"ha":1665,"x_min":88,"x_max":1577,"o":"m 1348 661 q 1510 595 1442 661 q 1577 433 1577 528 l 1577 0 l 1401 0 l 1401 419 q 1366 505 1401 469 q 1280 541 1331 541 l 1041 541 q 956 505 991 541 q 920 420 920 469 l 920 0 l 745 0 l 745 419 q 709 505 745 469 q 624 541 674 541 l 428 541 q 312 492 360 541 q 264 376 264 444 l 264 0 l 88 0 l 88 403 l 89 403 q 172 586 94 511 q 360 661 252 661 l 658 661 q 832 580 764 661 q 1007 661 901 661 l 1348 661 z "},"n":{"ha":1158,"x_min":88,"x_max":1070,"o":"m 842 661 q 1003 594 936 661 q 1070 433 1070 527 l 1070 0 l 895 0 l 895 419 q 859 505 895 469 q 774 540 824 540 l 429 540 q 312 492 360 540 q 264 376 264 444 l 264 0 l 88 0 l 88 406 l 89 406 q 174 587 95 513 q 361 661 252 661 l 842 661 z "},"o":{"ha":1158,"x_min":88,"x_max":1070,"o":"m 844 661 q 1004 595 937 661 q 1070 435 1070 528 l 1070 227 q 1004 66 1070 133 q 844 0 937 0 l 315 0 q 155 66 221 0 q 88 227 88 133 l 88 435 q 155 595 88 528 q 315 661 221 661 l 844 661 m 895 421 q 860 505 895 471 q 776 540 825 540 l 382 540 q 298 505 333 540 q 263 421 263 471 l 263 240 q 298 156 263 191 q 382 121 333 121 l 776 121 q 860 156 825 121 q 895 240 895 191 l 895 421 z "},"p":{"ha":1158,"x_min":88,"x_max":1070,"o":"m 842 661 q 1003 593 936 661 q 1070 432 1070 526 l 1070 228 q 1003 66 1070 133 q 842 -1 936 -1 l 429 -1 q 264 55 336 -1 l 264 -285 l 88 -285 l 88 389 q 168 581 88 501 q 361 661 248 661 l 842 661 m 895 418 q 859 504 895 469 q 774 539 824 539 l 429 539 q 312 491 360 539 q 264 375 264 443 l 264 285 q 312 169 264 217 q 429 120 360 120 l 774 120 q 859 156 824 120 q 895 241 895 191 l 895 418 z "},"q":{"ha":1158,"x_min":88,"x_max":1070,"o":"m 798 661 q 990 581 910 661 q 1070 389 1070 501 l 1070 -285 l 895 -285 l 895 55 q 730 -1 822 -1 l 317 -1 q 155 66 222 -1 q 88 228 88 133 l 88 432 q 155 593 88 526 q 317 661 222 661 l 798 661 m 264 241 q 299 156 264 191 q 385 120 334 120 l 730 120 q 846 169 798 120 q 895 285 895 217 l 895 375 q 846 491 895 443 q 730 539 798 539 l 385 539 q 299 504 334 539 q 264 418 264 469 l 264 241 z "},"r":{"ha":884,"x_min":88,"x_max":877,"o":"m 88 435 q 155 595 88 528 q 315 661 221 661 l 877 661 l 877 540 l 382 540 q 298 505 334 540 q 264 421 264 471 l 264 0 l 88 0 l 88 435 z "},"s":{"ha":1156,"x_min":88,"x_max":1068,"o":"m 843 393 q 1011 331 948 393 q 1068 196 1068 275 q 1011 61 1068 117 q 843 0 947 0 l 88 0 l 88 121 l 775 121 q 864 149 832 121 q 892 196 892 173 q 864 243 892 219 q 775 271 832 271 l 314 271 q 146 330 209 271 q 88 473 88 384 q 146 602 88 549 q 314 661 209 661 l 977 661 l 977 540 l 382 540 q 292 515 324 540 q 264 466 264 492 q 292 418 264 440 q 382 393 324 393 l 843 393 z "},"t":{"ha":635,"x_min":88,"x_max":614,"o":"m 380 661 l 547 661 l 547 540 l 380 540 l 380 229 q 416 143 380 178 q 501 107 452 107 l 614 107 l 614 0 l 433 0 q 272 67 339 0 q 205 229 205 134 l 205 540 l 88 540 l 88 661 l 205 661 l 205 960 l 380 960 l 380 661 z "},"u":{"ha":1158,"x_min":88,"x_max":1070,"o":"m 895 661 l 1070 661 l 1070 227 q 1004 66 1070 133 q 844 0 937 0 l 315 0 q 155 66 221 0 q 88 227 88 133 l 88 661 l 264 661 l 264 240 q 298 156 264 191 q 382 121 334 121 l 776 121 q 860 156 825 121 q 895 240 895 191 l 895 661 z "},"v":{"ha":1064,"x_min":7,"x_max":1057,"o":"m 1057 661 l 791 192 q 682 53 726 90 q 537 0 621 0 l 526 0 q 378 52 441 0 q 270 194 327 96 l 7 661 l 195 661 l 429 245 q 634 247 530 43 l 869 661 l 1057 661 z "},"w":{"ha":1421,"x_min":88,"x_max":1333,"o":"m 1158 661 l 1333 661 l 1333 298 q 1245 87 1333 175 q 1034 0 1158 0 l 956 0 q 710 128 800 0 q 465 0 621 0 l 387 0 q 176 87 263 0 q 88 298 88 175 l 88 661 l 263 661 l 263 312 q 319 177 263 233 q 454 121 376 121 l 465 121 q 580 177 531 121 q 623 312 623 233 l 623 661 l 805 661 l 805 312 q 841 177 805 233 q 956 121 890 121 l 966 121 q 1101 177 1045 121 q 1158 312 1158 233 l 1158 661 z "},"x":{"ha":1139,"x_min":88,"x_max":1051,"o":"m 876 661 l 1051 661 l 1051 474 q 989 334 1051 391 q 1051 197 1051 277 l 1051 0 l 876 0 l 876 191 q 838 258 876 229 q 786 280 807 280 l 353 280 q 290 254 316 280 q 264 191 264 228 l 264 0 l 88 0 l 88 197 q 147 338 88 280 q 88 474 88 393 l 88 661 l 264 661 l 264 481 q 287 425 264 448 q 343 401 310 401 l 796 401 q 852 425 829 401 q 876 481 876 448 l 876 661 z "},"y":{"ha":1158,"x_min":88,"x_max":1070,"o":"m 895 661 l 1070 661 l 1070 -69 q 1003 -231 1070 -164 q 842 -298 936 -298 l 142 -298 l 142 -177 l 774 -177 q 859 -141 823 -177 q 895 -56 895 -106 l 895 56 q 730 1 821 1 l 317 1 q 155 68 222 1 q 88 229 88 134 l 88 661 l 263 661 l 263 243 q 299 157 263 193 q 385 121 334 121 l 730 121 q 846 170 798 121 q 895 286 895 218 l 895 661 z "},"z":{"ha":1111,"x_min":88,"x_max":1023,"o":"m 859 661 q 975 623 928 661 q 1023 530 1023 585 l 1023 527 q 878 395 1023 450 l 248 121 l 1000 121 l 1000 0 l 253 0 q 136 38 184 0 q 88 132 88 76 l 88 134 q 134 219 88 185 q 221 260 160 237 l 234 266 l 877 540 l 111 540 l 111 661 l 859 661 z "},"{":{"ha":516,"x_min":68,"x_max":428,"o":"m 68 391 q 134 458 122 426 q 140 513 140 474 q 138 561 140 534 q 135 787 135 752 q 186 909 135 859 q 309 960 237 960 l 428 960 l 428 852 l 376 852 q 330 833 349 852 q 310 787 310 814 q 313 568 310 755 q 315 507 315 534 q 311 450 315 471 q 182 344 299 391 q 311 238 299 298 q 315 181 315 217 q 313 121 315 155 q 310 -99 310 -68 q 330 -144 310 -125 q 376 -164 349 -164 l 428 -164 l 428 -271 l 309 -271 q 186 -221 237 -271 q 135 -99 135 -170 q 138 127 135 -64 q 140 175 140 155 q 134 229 140 214 q 68 296 122 262 l 68 391 z "},"|":{"ha":351,"x_min":88,"x_max":263,"o":"m 88 960 l 263 960 l 263 -41 l 88 -41 l 88 960 z "},"}":{"ha":516,"x_min":88,"x_max":448,"o":"m 448 296 q 382 229 394 262 q 376 175 376 214 q 378 127 376 155 q 381 -99 381 -64 q 330 -221 381 -170 q 208 -271 279 -271 l 88 -271 l 88 -164 l 140 -164 q 186 -144 167 -164 q 206 -99 206 -125 q 203 121 206 -68 q 201 181 201 155 q 205 238 201 217 q 266 344 217 298 q 205 450 217 391 q 201 507 201 471 q 203 568 201 534 q 206 787 206 755 q 186 833 206 814 q 140 852 167 852 l 88 852 l 88 960 l 208 960 q 330 909 279 960 q 381 787 381 859 q 378 561 381 752 q 376 513 376 534 q 382 458 376 474 q 448 391 394 426 l 448 296 z "},"~":{"ha":829,"x_min":68,"x_max":761,"o":"m 761 454 q 533 391 646 391 l 520 391 q 335 433 448 393 q 220 460 256 460 l 217 460 q 104 408 163 459 l 68 374 l 68 534 q 216 602 140 602 l 218 602 q 379 567 279 602 q 526 532 473 534 l 532 532 q 711 580 617 532 l 761 608 l 761 454 z "},"¡":{"ha":366,"x_min":95,"x_max":271,"o":"m 271 -299 l 96 -299 l 96 362 l 271 362 l 271 -299 m 271 519 l 95 519 l 95 661 l 271 661 l 271 519 z "},"¢":{"ha":1026,"x_min":68,"x_max":958,"o":"m 398 0 l 340 0 q 148 79 228 0 q 68 272 68 159 l 68 389 q 148 581 68 502 q 340 661 228 661 l 661 661 l 749 886 l 867 886 l 778 661 l 958 661 l 958 553 l 735 553 l 558 107 l 958 107 l 958 0 l 515 0 l 406 -278 l 288 -278 l 398 0 m 618 553 l 408 553 q 292 505 340 553 q 243 389 243 457 l 243 272 q 292 156 243 204 q 408 107 340 107 l 440 107 l 618 553 z "},"£":{"ha":992,"x_min":7,"x_max":918,"o":"m 125 -1 l 918 -1 l 918 127 l 300 127 l 300 429 l 574 429 l 574 536 l 300 536 l 300 685 q 349 801 300 753 q 465 849 397 849 l 607 849 q 692 814 657 849 q 728 728 728 779 l 728 681 l 903 681 l 903 728 q 836 890 903 823 q 675 957 769 957 l 397 957 q 205 877 285 957 q 125 685 125 798 l 125 536 l 7 536 l 7 429 l 125 429 l 125 -1 z "},"¤":{"ha":922,"x_min":88,"x_max":833,"o":"m 760 686 l 833 608 l 745 525 q 811 330 811 437 q 745 135 811 222 l 833 51 l 760 -27 l 667 60 q 460 -5 575 -5 q 254 60 347 -5 l 162 -27 l 88 51 l 176 135 q 110 330 110 222 q 176 525 110 437 l 88 608 l 162 686 l 254 600 q 460 664 347 664 q 667 600 575 664 l 760 686 m 288 171 q 460 103 359 103 q 634 171 562 103 l 651 189 q 704 330 704 251 q 651 471 704 408 l 634 488 q 460 556 562 556 q 288 488 359 556 l 271 471 q 218 330 218 408 q 271 189 218 251 l 288 171 z "},"¥":{"ha":876,"x_min":7,"x_max":869,"o":"m 125 959 l 438 514 l 751 959 l 869 959 l 537 487 l 667 487 l 667 379 l 492 379 l 492 326 l 667 326 l 667 218 l 492 218 l 492 0 l 384 0 l 384 218 l 210 218 l 210 326 l 384 326 l 384 379 l 210 379 l 210 487 l 338 487 l 7 959 l 125 959 z "},"¦":{"ha":351,"x_min":88,"x_max":263,"o":"m 88 960 l 263 960 l 263 530 l 88 530 l 88 960 m 88 244 l 263 244 l 263 -186 l 88 -186 l 88 244 z "},"§":{"ha":753,"x_min":54,"x_max":699,"o":"m 424 232 q 511 275 479 232 q 543 368 543 317 q 520 448 543 408 q 424 505 488 505 l 321 505 q 241 461 271 503 q 210 368 210 418 q 232 290 210 331 q 326 232 263 232 l 424 232 m 509 589 q 650 521 597 589 q 699 368 699 458 q 616 180 699 256 q 699 -26 699 94 q 649 -193 699 -122 q 509 -270 596 -270 l 85 -270 l 85 -185 l 417 -185 q 503 -135 471 -185 q 536 -20 536 -83 q 511 81 536 31 q 417 146 479 146 l 241 146 q 102 215 155 146 q 54 368 54 278 q 98 517 54 455 q 132 554 109 530 q 54 739 54 630 q 99 887 54 825 q 241 960 151 960 l 604 960 l 604 875 l 332 875 q 239 819 271 875 q 217 732 217 778 q 238 647 217 688 q 329 589 268 591 l 332 589 l 509 589 z "},"¨":{"ha":538,"x_min":53,"x_max":488,"o":"m 311 911 l 488 911 l 488 769 l 311 769 l 311 911 m 53 911 l 229 911 l 229 769 l 53 769 l 53 911 z "},"©":{"ha":1137,"x_min":88,"x_max":1048,"o":"m 347 571 q 395 686 347 639 q 510 734 443 734 l 743 734 l 743 659 l 510 659 q 448 633 474 659 q 422 571 422 608 l 422 385 q 448 323 422 349 q 510 297 474 297 l 743 297 l 743 222 l 510 222 q 395 270 443 222 q 347 385 347 317 l 347 571 m 568 960 q 907 819 766 960 q 1048 479 1048 678 q 907 140 1048 281 q 568 0 766 0 q 229 140 370 0 q 88 479 88 281 q 229 819 88 678 q 568 960 370 960 m 568 107 q 831 216 722 107 q 941 479 941 326 q 831 743 941 634 q 568 852 722 852 q 305 743 414 852 q 196 479 196 634 q 305 216 196 326 q 568 107 414 107 z "},"ª":{"ha":824,"x_min":99,"x_max":747,"o":"m 295 631 q 246 640 266 631 q 215 680 215 653 l 215 686 q 246 727 215 713 q 295 735 266 735 l 552 735 q 600 727 580 735 q 631 687 631 713 q 552 631 631 631 l 295 631 m 747 829 q 702 921 747 882 q 596 960 658 960 l 149 960 l 149 887 l 552 887 q 608 865 584 887 q 631 820 631 845 l 631 789 q 552 804 596 804 l 250 804 q 141 772 182 804 q 99 686 99 739 l 99 680 q 141 595 99 628 q 250 563 182 563 l 596 563 q 706 596 665 563 q 747 686 747 630 l 747 829 z "},"«":{"ha":785,"x_min":0,"x_max":785,"o":"m 418 656 l 149 328 l 417 0 l 269 0 l 0 328 l 269 656 l 418 656 m 785 656 l 517 328 l 785 0 l 637 0 l 368 328 l 637 656 l 785 656 z "},"¬":{"ha":688,"x_min":59,"x_max":629,"o":"m 59 527 l 629 527 l 629 187 l 628 186 l 500 186 l 500 405 l 59 405 l 59 527 z "},"®":{"ha":1137,"x_min":88,"x_max":1048,"o":"m 743 444 q 801 319 801 395 l 801 223 l 726 223 l 726 319 q 700 382 726 356 q 637 408 674 408 l 433 408 l 433 223 l 357 223 l 357 637 q 387 707 357 678 q 456 736 416 736 l 637 736 q 759 685 713 736 q 800 572 800 638 q 743 444 800 492 m 637 483 q 707 515 684 483 q 725 572 725 539 q 707 629 725 604 q 637 661 684 661 l 456 661 q 433 637 433 661 l 433 483 l 637 483 m 568 960 q 908 819 767 960 q 1048 479 1048 678 q 908 140 1048 281 q 568 0 767 0 q 229 140 370 0 q 88 479 88 281 q 229 819 88 678 q 568 960 370 960 m 568 107 q 831 216 722 107 q 941 479 941 326 q 831 743 941 634 q 568 852 722 852 q 305 743 414 852 q 196 479 196 634 q 305 216 196 326 q 568 107 414 107 z "},"¯":{"ha":630,"x_min":88,"x_max":542,"o":"m 88 1027 l 542 1027 l 542 892 l 88 892 l 88 1027 z "},"°":{"ha":612,"x_min":68,"x_max":544,"o":"m 306 955 q 474 885 404 955 q 544 717 544 815 q 474 549 544 618 q 306 479 404 479 q 138 549 208 479 q 68 717 68 618 q 138 885 68 815 q 306 955 208 955 m 306 846 q 212 808 251 846 q 172 717 172 770 q 212 625 172 663 q 306 587 251 587 q 401 625 361 587 q 440 717 440 663 q 401 808 440 770 q 306 846 361 846 z "},"±":{"ha":917,"x_min":88,"x_max":842,"o":"m 513 598 l 829 598 l 829 490 l 513 490 l 513 210 l 405 210 l 405 490 l 88 490 l 88 598 l 405 598 l 405 879 l 513 879 l 513 598 m 88 155 l 842 155 l 842 47 l 88 47 l 88 155 z "},"²":{"ha":863,"x_min":88,"x_max":774,"o":"m 163 363 l 774 363 l 774 288 l 88 288 l 88 546 q 125 635 88 598 q 215 673 162 673 l 652 673 q 685 686 671 673 q 699 719 699 700 l 699 838 q 685 871 699 857 q 652 884 671 884 l 105 884 l 105 960 l 652 960 q 738 924 703 960 q 774 838 774 888 l 774 719 q 738 633 774 669 q 652 597 703 597 l 215 597 q 178 583 193 597 q 163 546 163 567 l 163 363 z "},"³":{"ha":798,"x_min":88,"x_max":710,"o":"m 588 960 q 675 924 638 960 q 710 838 710 888 l 710 720 q 676 635 710 671 q 710 551 710 600 l 710 410 q 675 323 710 359 q 588 288 638 288 l 88 288 l 88 363 l 588 363 q 621 376 608 363 q 635 410 635 391 l 635 551 q 621 584 635 570 q 588 597 608 597 l 113 597 l 113 673 l 588 673 q 621 686 608 673 q 635 720 635 700 l 635 838 q 621 871 635 857 q 588 884 608 884 l 88 884 l 88 960 l 588 960 z "},"´":{"ha":481,"x_min":102,"x_max":461,"o":"m 102 709 l 224 906 l 461 906 l 278 709 l 102 709 z "},"µ":{"ha":1084,"x_min":88,"x_max":996,"o":"m 820 960 l 996 960 l 996 280 l 820 280 l 820 422 q 542 280 684 280 q 263 422 399 280 l 263 0 l 88 0 l 88 960 l 263 960 l 263 709 q 365 501 263 587 q 542 415 467 415 q 718 501 617 415 q 820 709 820 587 l 820 960 z "},"¶":{"ha":755,"x_min":88,"x_max":707,"o":"m 707 842 l 607 842 l 607 0 l 500 0 l 500 842 l 421 842 l 421 0 l 314 0 l 314 402 q 152 501 214 427 q 88 671 88 576 q 152 841 88 766 q 314 949 214 915 l 707 949 l 707 842 z "},"·":{"ha":176,"x_min":75,"x_max":224,"o":"m 75 555 l 225 555 l 225 434 l 75 434 l 75 555 z "},"¸":{"ha":399,"x_min":80,"x_max":378,"o":"m 265 0 l 248 -66 q 334 -83 311 -66 q 378 -179 378 -117 q 343 -263 378 -228 q 258 -299 308 -299 l 80 -299 l 80 -207 l 224 -207 q 258 -179 258 -207 q 247 -149 258 -159 q 225 -143 239 -143 l 160 -143 q 131 -131 144 -143 q 118 -102 118 -119 q 120 -90 118 -96 l 143 0 l 265 0 z "},"¹":{"ha":454,"x_min":88,"x_max":366,"o":"m 328 956 q 366 901 366 941 l 366 288 l 291 288 l 291 852 l 149 661 l 88 706 l 261 937 q 291 958 273 953 q 307 960 298 960 q 328 956 317 960 z "},"º":{"ha":825,"x_min":88,"x_max":736,"o":"m 587 960 q 692 920 648 960 q 736 824 736 880 l 736 699 q 692 603 736 643 q 587 563 648 563 l 238 563 q 132 603 176 563 q 88 699 88 643 l 88 824 q 132 920 88 880 q 238 960 176 960 l 587 960 m 620 816 q 597 866 620 845 q 542 887 574 887 l 282 887 q 227 866 250 887 q 203 816 203 845 l 203 707 q 227 656 203 677 q 282 635 250 635 l 542 635 q 597 656 574 635 q 620 707 620 677 l 620 816 z "},"»":{"ha":785,"x_min":0,"x_max":785,"o":"m 149 656 l 418 328 l 149 0 l 1 0 l 269 328 l 0 656 l 149 656 m 516 656 l 785 328 l 516 0 l 368 0 l 636 328 l 368 656 l 516 656 z "},"¼":{"ha":1810,"x_min":88,"x_max":1722,"o":"m 328 956 q 366 901 366 941 l 366 288 l 291 288 l 291 852 l 149 661 l 88 706 l 261 937 q 291 958 273 953 q 307 960 298 960 q 328 956 317 960 m 298 -28 l 1015 979 l 1097 979 l 381 -28 l 298 -28 m 1579 225 l 1722 225 l 1722 150 l 1579 150 l 1579 0 l 1504 0 l 1504 150 l 947 150 q 891 189 905 150 q 887 210 887 199 q 890 227 887 218 q 911 256 895 245 l 1485 660 q 1520 672 1502 672 q 1545 667 1533 672 q 1579 613 1579 650 l 1579 225 m 1507 587 l 996 229 l 1507 229 l 1507 587 z "},"½":{"ha":1662,"x_min":88,"x_max":1573,"o":"m 328 956 q 366 901 366 941 l 366 288 l 291 288 l 291 852 l 149 661 l 88 706 l 261 937 q 291 958 273 953 q 307 960 298 960 q 328 956 317 960 m 231 -28 l 947 979 l 1029 979 l 313 -28 l 231 -28 m 962 75 l 1573 76 l 1573 1 l 887 1 l 887 258 q 924 348 887 311 q 1014 385 961 385 l 1451 385 q 1484 399 1470 385 q 1497 431 1497 412 l 1497 551 q 1484 583 1497 570 q 1451 597 1470 597 l 904 597 l 904 672 l 1451 672 q 1537 637 1501 672 q 1573 551 1573 601 l 1573 431 q 1537 345 1573 381 q 1451 310 1501 310 l 1014 310 q 977 295 992 310 q 962 258 962 279 l 962 75 z "},"¾":{"ha":1998,"x_min":88,"x_max":1930,"o":"m 588 960 q 675 924 638 960 q 710 838 710 888 l 710 720 q 676 635 710 671 q 710 551 710 600 l 710 410 q 675 323 710 359 q 588 288 638 288 l 88 288 l 88 363 l 588 363 q 621 376 608 363 q 635 410 635 391 l 635 551 q 621 584 635 570 q 588 597 608 597 l 113 597 l 113 673 l 588 673 q 621 686 608 673 q 635 720 635 700 l 635 838 q 621 871 635 857 q 588 884 608 884 l 88 884 l 88 960 l 588 960 m 574 -28 l 1291 979 l 1373 979 l 657 -28 l 574 -28 m 1788 226 l 1930 226 l 1930 150 l 1788 150 l 1788 0 l 1712 0 l 1712 150 l 1155 150 q 1099 189 1114 150 q 1095 210 1095 199 q 1098 227 1095 218 q 1119 256 1103 245 l 1693 660 q 1729 672 1710 672 q 1753 667 1741 672 q 1788 613 1788 650 l 1788 226 m 1715 587 l 1204 229 l 1715 229 l 1715 587 z "},"¿":{"ha":1156,"x_min":197,"x_max":1142,"o":"m 370 -300 q 248 -249 298 -300 q 197 -126 197 -198 l 197 43 q 248 166 197 115 q 370 218 298 218 l 607 218 q 659 239 637 218 q 680 291 680 260 l 680 444 l 856 444 l 856 257 q 803 129 856 182 q 675 76 750 76 l 438 76 q 391 56 411 76 q 372 9 372 37 l 372 -92 q 391 -139 372 -119 q 438 -159 411 -159 l 1142 -159 l 1142 -300 l 370 -300 m 854 553 l 678 553 l 678 661 l 854 661 l 854 553 z "},"À":{"ha":1265,"x_min":88,"x_max":1177,"o":"m 1001 481 l 1001 627 q 945 762 1001 706 q 810 819 888 819 l 455 819 q 319 762 376 819 q 264 627 264 706 l 264 481 l 1001 481 m 264 340 l 264 0 l 88 0 l 88 661 q 176 872 88 785 q 387 960 263 960 l 878 960 q 1088 872 1001 960 q 1177 661 1177 785 l 1177 0 l 1001 0 l 1001 340 l 264 340 m 626 1006 l 443 1204 l 680 1204 l 802 1006 l 626 1006 z "},"Á":{"ha":1265,"x_min":88,"x_max":1177,"o":"m 1001 481 l 1001 627 q 945 762 1001 706 q 810 819 888 819 l 455 819 q 319 762 376 819 q 264 627 264 706 l 264 481 l 1001 481 m 264 340 l 264 0 l 88 0 l 88 661 q 176 872 88 785 q 387 960 263 960 l 878 960 q 1088 872 1001 960 q 1177 661 1177 785 l 1177 0 l 1001 0 l 1001 340 l 264 340 m 463 1007 l 585 1204 l 822 1204 l 639 1007 l 463 1007 z "},"Â":{"ha":1265,"x_min":88,"x_max":1177,"o":"m 1001 481 l 1001 627 q 945 762 1001 706 q 810 819 888 819 l 455 819 q 319 762 376 819 q 264 627 264 706 l 264 481 l 1001 481 m 264 340 l 264 0 l 88 0 l 88 661 q 176 872 88 785 q 387 960 263 960 l 878 960 q 1088 872 1001 960 q 1177 661 1177 785 l 1177 0 l 1001 0 l 1001 340 l 264 340 m 718 1204 l 895 1007 l 712 1007 l 633 1107 l 553 1007 l 371 1007 l 547 1204 l 718 1204 z "},"Ã":{"ha":1265,"x_min":88,"x_max":1177,"o":"m 1001 481 l 1001 627 q 945 762 1001 706 q 810 819 888 819 l 455 819 q 319 762 376 819 q 264 627 264 706 l 264 481 l 1001 481 m 264 340 l 264 0 l 88 0 l 88 661 q 176 872 88 785 q 387 960 263 960 l 878 960 q 1088 872 1001 960 q 1177 661 1177 785 l 1177 0 l 1001 0 l 1001 340 l 264 340 m 484 1054 l 368 1054 q 501 1229 387 1228 l 505 1229 q 617 1204 547 1229 q 725 1179 686 1179 l 731 1179 q 744 1179 738 1179 q 789 1227 784 1179 l 896 1227 q 734 1051 884 1051 l 726 1051 q 583 1081 668 1051 q 522 1101 541 1101 l 517 1101 q 484 1054 496 1101 z "},"Ä":{"ha":1265,"x_min":88,"x_max":1177,"o":"m 1001 481 l 1001 627 q 945 762 1001 706 q 810 819 888 819 l 455 819 q 319 762 376 819 q 264 627 264 706 l 264 481 l 1001 481 m 264 340 l 264 0 l 88 0 l 88 661 q 176 872 88 785 q 387 960 263 960 l 878 960 q 1088 872 1001 960 q 1177 661 1177 785 l 1177 0 l 1001 0 l 1001 340 l 264 340 m 675 1210 l 851 1210 l 851 1067 l 675 1067 l 675 1210 m 416 1210 l 593 1210 l 593 1067 l 416 1067 l 416 1210 z "},"Å":{"ha":1265,"x_min":88,"x_max":1177,"o":"m 1001 481 l 1001 627 q 945 762 1001 706 q 810 819 888 819 l 455 819 q 319 762 376 819 q 264 627 264 706 l 264 481 l 1001 481 m 264 340 l 264 0 l 88 0 l 88 661 q 176 872 88 785 q 387 960 263 960 l 878 960 q 1088 872 1001 960 q 1177 661 1177 785 l 1177 0 l 1001 0 l 1001 340 l 264 340 m 633 1259 q 737 1216 694 1259 q 780 1112 780 1173 q 737 1007 780 1050 q 633 964 694 964 q 529 1007 572 964 q 486 1112 486 1050 q 529 1216 486 1173 q 633 1259 572 1259 m 633 1177 q 587 1158 606 1177 q 568 1112 568 1139 q 587 1066 568 1085 q 633 1046 606 1046 q 679 1066 659 1046 q 698 1112 698 1085 q 679 1158 698 1139 q 633 1177 659 1177 z "},"Æ":{"ha":1968,"x_min":88,"x_max":1914,"o":"m 1001 481 l 1001 627 q 945 762 1001 706 q 810 819 888 819 l 455 819 q 319 762 376 819 q 264 627 264 706 l 264 481 l 1001 481 m 1001 0 l 1001 340 l 264 340 l 264 0 l 88 0 l 88 661 q 176 872 88 785 q 387 960 263 960 l 878 960 q 1050 905 975 960 q 1054 909 1052 907 q 1177 960 1105 960 l 1914 960 l 1914 819 l 1244 819 q 1198 799 1217 819 q 1178 751 1178 779 l 1178 550 l 1914 550 l 1914 408 l 1178 408 l 1178 141 l 1914 141 l 1914 0 l 1001 0 z "},"Ç":{"ha":1265,"x_min":88,"x_max":1177,"o":"m 88 661 q 176 872 88 785 q 387 960 264 960 l 1177 960 l 1177 819 l 455 819 q 320 762 376 819 q 264 627 264 706 l 264 332 q 320 197 264 254 q 455 141 376 141 l 1177 141 l 1177 0 l 387 0 q 176 87 264 0 q 88 298 88 175 l 88 661 m 765 0 l 748 -66 q 833 -83 811 -66 q 878 -179 878 -117 q 843 -263 878 -228 q 758 -299 808 -299 l 580 -299 l 580 -207 l 724 -207 q 758 -179 758 -207 q 747 -149 758 -159 q 725 -143 739 -143 l 660 -143 q 631 -131 644 -143 q 618 -102 618 -119 q 620 -90 618 -96 l 643 0 l 765 0 z "},"È":{"ha":1019,"x_min":88,"x_max":999,"o":"m 88 785 q 139 909 88 858 q 262 960 190 960 l 999 960 l 999 819 l 330 819 q 283 799 302 819 q 263 751 263 779 l 263 550 l 999 550 l 999 408 l 263 408 l 263 141 l 999 141 l 999 0 l 88 0 l 88 785 m 503 1006 l 320 1204 l 557 1204 l 679 1006 l 503 1006 z "},"É":{"ha":1019,"x_min":88,"x_max":999,"o":"m 88 785 q 139 909 88 858 q 262 960 190 960 l 999 960 l 999 819 l 330 819 q 283 799 302 819 q 263 751 263 779 l 263 550 l 999 550 l 999 408 l 263 408 l 263 141 l 999 141 l 999 0 l 88 0 l 88 785 m 340 1007 l 463 1204 l 699 1204 l 516 1007 l 340 1007 z "},"Ê":{"ha":1019,"x_min":88,"x_max":999,"o":"m 88 785 q 139 909 88 858 q 262 960 190 960 l 999 960 l 999 819 l 330 819 q 283 799 302 819 q 263 751 263 779 l 263 550 l 999 550 l 999 408 l 263 408 l 263 141 l 999 141 l 999 0 l 88 0 l 88 785 m 663 1204 l 840 1007 l 657 1007 l 578 1107 l 498 1007 l 316 1007 l 492 1204 l 663 1204 z "},"Ë":{"ha":1019,"x_min":88,"x_max":999,"o":"m 88 785 q 139 909 88 858 q 262 960 190 960 l 999 960 l 999 819 l 330 819 q 283 799 302 819 q 263 751 263 779 l 263 550 l 999 550 l 999 408 l 263 408 l 263 141 l 999 141 l 999 0 l 88 0 l 88 785 m 620 1210 l 796 1210 l 796 1067 l 620 1067 l 620 1210 m 361 1210 l 538 1210 l 538 1067 l 361 1067 l 361 1210 z "},"Ì":{"ha":352,"x_min":-63,"x_max":296,"o":"m 88 960 l 264 960 l 264 0 l 88 0 l 88 960 m 120 1006 l -63 1204 l 174 1204 l 296 1006 l 120 1006 z "},"Í":{"ha":352,"x_min":56,"x_max":415,"o":"m 88 960 l 264 960 l 264 0 l 88 0 l 88 960 m 56 1007 l 178 1204 l 415 1204 l 232 1007 l 56 1007 z "},"Î":{"ha":352,"x_min":-85,"x_max":438,"o":"m 88 960 l 264 960 l 264 0 l 88 0 l 88 960 m 262 1204 l 438 1007 l 256 1007 l 176 1107 l 97 1007 l -85 1007 l 91 1204 l 262 1204 z "},"Ï":{"ha":352,"x_min":-41,"x_max":393,"o":"m 88 960 l 264 960 l 264 0 l 88 0 l 88 960 m 217 1210 l 393 1210 l 393 1067 l 217 1067 l 217 1210 m -41 1210 l 135 1210 l 135 1067 l -41 1067 l -41 1210 z "},"Ð":{"ha":1319,"x_min":7,"x_max":1231,"o":"m 318 409 l 318 141 l 864 141 q 999 197 943 141 q 1055 332 1055 254 l 1055 627 q 999 762 1055 706 q 864 819 943 819 l 385 819 q 338 799 357 819 q 318 751 318 779 l 318 551 l 679 551 l 679 409 l 318 409 m 142 551 l 142 785 q 193 909 142 858 q 317 960 245 960 l 932 960 q 1143 872 1055 960 q 1231 661 1231 785 l 1231 298 q 1143 87 1231 175 q 932 0 1055 0 l 142 0 l 142 409 l 7 409 l 7 551 l 142 551 z "},"Ñ":{"ha":1265,"x_min":88,"x_max":1177,"o":"m 878 960 q 1089 872 1001 960 q 1177 661 1177 785 l 1177 1 l 1001 1 l 1001 627 q 945 762 1001 706 q 810 819 889 819 l 455 819 q 320 762 376 819 q 264 627 264 706 l 264 0 l 88 0 l 88 661 q 176 872 88 785 q 387 960 264 960 l 878 960 m 485 1054 l 369 1054 q 502 1229 387 1228 l 505 1229 q 618 1204 547 1229 q 726 1179 686 1179 l 732 1179 q 745 1179 739 1179 q 789 1227 785 1179 l 897 1227 q 734 1051 884 1051 l 726 1051 q 584 1081 669 1051 q 522 1101 541 1101 l 517 1101 q 485 1054 497 1101 z "},"Ò":{"ha":1265,"x_min":88,"x_max":1177,"o":"m 878 960 q 1089 872 1001 960 q 1177 661 1177 785 l 1177 298 q 1089 87 1177 175 q 878 0 1001 0 l 387 0 q 176 87 264 0 q 88 298 88 175 l 88 661 q 176 872 88 785 q 387 960 264 960 l 878 960 m 1001 627 q 945 762 1001 706 q 810 819 889 819 l 455 819 q 320 762 376 819 q 264 627 264 706 l 264 332 q 320 197 264 254 q 455 141 376 141 l 810 141 q 945 197 889 141 q 1001 332 1001 254 l 1001 627 m 622 1006 l 439 1204 l 675 1204 l 798 1006 l 622 1006 z "},"Ó":{"ha":1265,"x_min":88,"x_max":1177,"o":"m 878 960 q 1089 872 1001 960 q 1177 661 1177 785 l 1177 298 q 1089 87 1177 175 q 878 0 1001 0 l 387 0 q 176 87 264 0 q 88 298 88 175 l 88 661 q 176 872 88 785 q 387 960 264 960 l 878 960 m 1001 627 q 945 762 1001 706 q 810 819 889 819 l 455 819 q 320 762 376 819 q 264 627 264 706 l 264 332 q 320 197 264 254 q 455 141 376 141 l 810 141 q 945 197 889 141 q 1001 332 1001 254 l 1001 627 m 468 1007 l 590 1204 l 827 1204 l 644 1007 l 468 1007 z "},"Ô":{"ha":1265,"x_min":88,"x_max":1177,"o":"m 878 960 q 1089 872 1001 960 q 1177 661 1177 785 l 1177 298 q 1089 87 1177 175 q 878 0 1001 0 l 387 0 q 176 87 264 0 q 88 298 88 175 l 88 661 q 176 872 88 785 q 387 960 264 960 l 878 960 m 1001 627 q 945 762 1001 706 q 810 819 889 819 l 455 819 q 320 762 376 819 q 264 627 264 706 l 264 332 q 320 197 264 254 q 455 141 376 141 l 810 141 q 945 197 889 141 q 1001 332 1001 254 l 1001 627 m 718 1204 l 895 1007 l 712 1007 l 633 1107 l 553 1007 l 371 1007 l 547 1204 l 718 1204 z "},"Õ":{"ha":1265,"x_min":88,"x_max":1177,"o":"m 878 960 q 1089 872 1001 960 q 1177 661 1177 785 l 1177 298 q 1089 87 1177 175 q 878 0 1001 0 l 387 0 q 176 87 264 0 q 88 298 88 175 l 88 661 q 176 872 88 785 q 387 960 264 960 l 878 960 m 1001 627 q 945 762 1001 706 q 810 819 889 819 l 455 819 q 320 762 376 819 q 264 627 264 706 l 264 332 q 320 197 264 254 q 455 141 376 141 l 810 141 q 945 197 889 141 q 1001 332 1001 254 l 1001 627 m 485 1054 l 369 1054 q 502 1229 387 1228 l 505 1229 q 618 1204 547 1229 q 726 1179 686 1179 l 732 1179 q 745 1179 739 1179 q 789 1227 785 1179 l 897 1227 q 734 1051 884 1051 l 726 1051 q 584 1081 669 1051 q 522 1101 541 1101 l 517 1101 q 485 1054 497 1101 z "},"Ö":{"ha":1265,"x_min":88,"x_max":1177,"o":"m 878 960 q 1089 872 1001 960 q 1177 661 1177 785 l 1177 298 q 1089 87 1177 175 q 878 0 1001 0 l 387 0 q 176 87 264 0 q 88 298 88 175 l 88 661 q 176 872 88 785 q 387 960 264 960 l 878 960 m 1001 627 q 945 762 1001 706 q 810 819 889 819 l 455 819 q 320 762 376 819 q 264 627 264 706 l 264 332 q 320 197 264 254 q 455 141 376 141 l 810 141 q 945 197 889 141 q 1001 332 1001 254 l 1001 627 m 675 1210 l 851 1210 l 851 1067 l 675 1067 l 675 1210 m 416 1210 l 593 1210 l 593 1067 l 416 1067 l 416 1210 z "},"×":{"ha":883,"x_min":88,"x_max":795,"o":"m 718 828 l 795 752 l 517 475 l 795 198 l 718 122 l 441 399 l 164 122 l 88 198 l 366 475 l 88 752 l 164 828 l 441 551 l 718 828 z "},"Ø":{"ha":1265,"x_min":88,"x_max":1177,"o":"m 445 141 l 714 819 l 455 819 q 320 762 376 819 q 264 627 264 706 l 264 332 q 320 197 264 254 q 445 141 372 144 m 507 0 l 457 -126 l 339 -126 l 389 0 l 387 0 q 176 87 264 0 q 88 298 88 175 l 88 661 q 176 872 88 785 q 387 960 264 960 l 770 960 l 801 1038 l 918 1038 l 887 960 q 1089 872 1004 956 q 1177 661 1177 785 l 1177 298 q 1089 87 1177 175 q 878 0 1001 0 l 507 0 m 831 817 l 563 141 l 810 141 q 945 197 889 141 q 1001 332 1001 254 l 1001 627 q 945 762 1001 706 q 831 817 897 811 z "},"Ù":{"ha":1265,"x_min":88,"x_max":1177,"o":"m 1001 960 l 1177 960 l 1177 298 q 1089 87 1177 175 q 878 0 1001 0 l 387 0 q 176 87 264 0 q 88 298 88 175 l 88 960 l 264 960 l 264 332 q 320 197 264 254 q 455 141 376 141 l 810 141 q 945 197 889 141 q 1001 332 1001 254 l 1001 960 m 622 1006 l 439 1204 l 675 1204 l 798 1006 l 622 1006 z "},"Ú":{"ha":1265,"x_min":88,"x_max":1177,"o":"m 1001 960 l 1177 960 l 1177 298 q 1089 87 1177 175 q 878 0 1001 0 l 387 0 q 176 87 264 0 q 88 298 88 175 l 88 960 l 264 960 l 264 332 q 320 197 264 254 q 455 141 376 141 l 810 141 q 945 197 889 141 q 1001 332 1001 254 l 1001 960 m 468 1007 l 590 1204 l 827 1204 l 644 1007 l 468 1007 z "},"Û":{"ha":1265,"x_min":88,"x_max":1177,"o":"m 1001 960 l 1177 960 l 1177 298 q 1089 87 1177 175 q 878 0 1001 0 l 387 0 q 176 87 264 0 q 88 298 88 175 l 88 960 l 264 960 l 264 332 q 320 197 264 254 q 455 141 376 141 l 810 141 q 945 197 889 141 q 1001 332 1001 254 l 1001 960 m 718 1204 l 895 1007 l 712 1007 l 633 1107 l 553 1007 l 371 1007 l 547 1204 l 718 1204 z "},"Ü":{"ha":1265,"x_min":88,"x_max":1177,"o":"m 1001 960 l 1177 960 l 1177 298 q 1089 87 1177 175 q 878 0 1001 0 l 387 0 q 176 87 264 0 q 88 298 88 175 l 88 960 l 264 960 l 264 332 q 320 197 264 254 q 455 141 376 141 l 810 141 q 945 197 889 141 q 1001 332 1001 254 l 1001 960 m 675 1210 l 851 1210 l 851 1067 l 675 1067 l 675 1210 m 416 1210 l 593 1210 l 593 1067 l 416 1067 l 416 1210 z "},"Ý":{"ha":1265,"x_min":88,"x_max":1177,"o":"m 1001 960 l 1177 960 l 1177 298 q 1088 87 1177 175 q 878 0 1001 0 l 88 0 l 88 141 l 810 141 q 945 197 888 141 q 1001 332 1001 254 l 1001 458 q 810 389 918 389 l 387 389 q 176 477 263 389 q 88 742 88 564 l 88 960 l 264 960 l 264 777 q 319 587 264 644 q 455 531 376 531 l 810 531 q 945 587 888 531 q 1001 777 1001 644 l 1001 960 m 468 1007 l 590 1204 l 827 1204 l 644 1007 l 468 1007 z "},"Þ":{"ha":1006,"x_min":88,"x_max":962,"o":"m 706 783 q 897 698 825 783 q 962 477 962 621 q 897 256 962 334 q 706 172 825 172 l 263 172 l 263 0 l 88 0 l 88 959 l 263 959 l 263 783 l 706 783 m 659 313 q 777 372 736 313 q 806 477 806 417 q 777 582 806 537 q 659 642 736 642 l 263 642 l 263 313 l 659 313 z "},"ß":{"ha":957,"x_min":54,"x_max":898,"o":"m 656 960 q 837 910 776 960 q 898 762 898 861 l 898 656 q 850 549 898 593 q 898 439 898 503 l 898 250 q 847 140 898 185 q 724 94 796 94 l 368 94 l 368 238 l 555 238 q 737 256 724 238 q 757 298 757 273 l 757 391 q 737 433 757 416 q 623 450 724 450 q 517 516 517 450 q 623 581 517 581 q 737 599 718 581 q 757 641 757 616 l 757 748 q 737 791 757 773 q 555 808 718 808 l 325 808 q 230 709 230 808 l 230 0 l 54 0 l 54 684 q 321 960 54 960 l 656 960 z "},"à":{"ha":1118,"x_min":68,"x_max":1050,"o":"m 364 114 q 290 128 321 114 q 243 196 243 151 l 243 205 q 290 273 243 251 q 364 288 320 288 l 753 288 q 827 273 797 288 q 874 206 874 251 q 753 114 874 114 l 364 114 m 1050 443 q 982 596 1050 532 q 821 661 914 661 l 143 661 l 143 540 l 753 540 q 840 504 803 540 q 874 429 874 471 l 874 376 q 753 402 821 402 l 296 402 q 131 348 194 402 q 68 205 68 294 l 68 196 q 131 54 68 108 q 296 0 194 0 l 821 0 q 987 56 925 0 q 1050 205 1049 112 l 1050 443 m 548 708 l 365 905 l 602 905 l 724 708 l 548 708 z "},"á":{"ha":1118,"x_min":68,"x_max":1050,"o":"m 364 114 q 290 128 321 114 q 243 196 243 151 l 243 205 q 290 273 243 251 q 364 288 320 288 l 753 288 q 827 273 797 288 q 874 206 874 251 q 753 114 874 114 l 364 114 m 1050 443 q 982 596 1050 532 q 821 661 914 661 l 143 661 l 143 540 l 753 540 q 840 504 803 540 q 874 429 874 471 l 874 376 q 753 402 821 402 l 296 402 q 131 348 194 402 q 68 205 68 294 l 68 196 q 131 54 68 108 q 296 0 194 0 l 821 0 q 987 56 925 0 q 1050 205 1049 112 l 1050 443 m 394 709 l 516 906 l 753 906 l 570 709 l 394 709 z "},"â":{"ha":1118,"x_min":68,"x_max":1050,"o":"m 364 114 q 290 128 321 114 q 243 196 243 151 l 243 205 q 290 273 243 251 q 364 288 320 288 l 753 288 q 827 273 797 288 q 874 206 874 251 q 753 114 874 114 l 364 114 m 1050 443 q 982 596 1050 532 q 821 661 914 661 l 143 661 l 143 540 l 753 540 q 840 504 803 540 q 874 429 874 471 l 874 376 q 753 402 821 402 l 296 402 q 131 348 194 402 q 68 205 68 294 l 68 196 q 131 54 68 108 q 296 0 194 0 l 821 0 q 987 56 925 0 q 1050 205 1049 112 l 1050 443 m 644 906 l 821 709 l 638 709 l 559 809 l 479 709 l 297 709 l 473 906 l 644 906 z "},"ã":{"ha":1118,"x_min":68,"x_max":1050,"o":"m 364 114 q 290 128 321 114 q 243 196 243 151 l 243 205 q 290 273 243 251 q 364 288 320 288 l 753 288 q 827 273 797 288 q 874 206 874 251 q 753 114 874 114 l 364 114 m 1050 443 q 982 596 1050 532 q 821 661 914 661 l 143 661 l 143 540 l 753 540 q 840 504 803 540 q 874 429 874 471 l 874 376 q 753 402 821 402 l 296 402 q 131 348 194 402 q 68 205 68 294 l 68 196 q 131 54 68 108 q 296 0 194 0 l 821 0 q 987 56 925 0 q 1050 205 1049 112 l 1050 443 m 411 755 l 295 755 q 428 930 313 930 l 431 930 q 544 905 473 930 q 652 881 612 881 l 658 881 q 671 880 665 880 q 715 929 711 880 l 823 929 q 661 753 810 753 l 652 753 q 510 783 595 753 q 448 803 467 803 l 444 803 q 411 755 423 803 z "},"ä":{"ha":1118,"x_min":68,"x_max":1050,"o":"m 364 114 q 290 128 321 114 q 243 196 243 151 l 243 205 q 290 273 243 251 q 364 288 320 288 l 753 288 q 827 273 797 288 q 874 206 874 251 q 753 114 874 114 l 364 114 m 1050 443 q 982 596 1050 532 q 821 661 914 661 l 143 661 l 143 540 l 753 540 q 840 504 803 540 q 874 429 874 471 l 874 376 q 753 402 821 402 l 296 402 q 131 348 194 402 q 68 205 68 294 l 68 196 q 131 54 68 108 q 296 0 194 0 l 821 0 q 987 56 925 0 q 1050 205 1049 112 l 1050 443 m 602 911 l 778 911 l 778 769 l 602 769 l 602 911 m 343 911 l 519 911 l 519 769 l 343 769 l 343 911 z "},"å":{"ha":1118,"x_min":68,"x_max":1050,"o":"m 364 114 q 290 128 321 114 q 243 196 243 151 l 243 205 q 290 273 243 251 q 364 288 320 288 l 753 288 q 827 273 797 288 q 874 206 874 251 q 753 114 874 114 l 364 114 m 1050 443 q 982 596 1050 532 q 821 661 914 661 l 143 661 l 143 540 l 753 540 q 840 504 803 540 q 874 429 874 471 l 874 376 q 753 402 821 402 l 296 402 q 131 348 194 402 q 68 205 68 294 l 68 196 q 131 54 68 108 q 296 0 194 0 l 821 0 q 987 56 925 0 q 1050 205 1049 112 l 1050 443 m 559 960 q 663 917 620 960 q 706 813 706 874 q 663 709 706 752 q 559 666 620 666 q 455 709 498 666 q 412 813 412 752 q 455 917 412 874 q 559 960 498 960 m 559 878 q 513 859 532 878 q 494 813 494 840 q 513 767 494 787 q 559 748 532 748 q 605 767 585 748 q 624 813 624 787 q 605 859 624 840 q 559 878 585 878 z "},"æ":{"ha":1908,"x_min":68,"x_max":1858,"o":"m 364 107 q 290 121 321 107 q 243 196 243 144 l 243 205 q 290 280 243 258 q 364 294 320 294 l 753 294 q 827 280 797 294 q 874 206 874 258 q 753 107 874 107 l 364 107 m 1051 408 l 1051 433 q 1087 518 1051 483 q 1173 553 1122 553 l 1518 553 q 1628 511 1581 553 q 1681 408 1674 469 l 1051 408 m 971 43 q 1105 0 1029 0 l 1858 0 l 1858 107 l 1173 107 q 1087 143 1122 107 q 1051 229 1051 178 l 1051 300 l 1858 300 l 1858 389 q 1778 581 1858 502 q 1586 661 1698 661 l 1105 661 q 963 612 1024 661 q 821 661 901 661 l 143 661 l 143 553 l 753 553 q 840 517 803 553 q 874 443 874 484 l 874 376 q 753 402 821 402 l 296 402 q 131 348 194 402 q 68 205 68 294 l 68 196 q 131 54 68 108 q 296 0 194 0 l 821 0 q 971 43 912 0 z "},"ç":{"ha":1067,"x_min":88,"x_max":979,"o":"m 88 389 q 168 581 88 502 q 361 661 248 661 l 979 661 l 979 540 l 429 540 q 312 492 360 540 q 264 376 264 444 l 264 286 q 312 170 264 218 q 429 121 360 121 l 979 121 l 979 0 l 361 0 q 168 79 248 0 q 88 272 88 159 l 88 389 m 671 0 l 654 -66 q 739 -83 717 -66 q 783 -179 783 -117 q 749 -263 783 -228 q 663 -299 713 -299 l 486 -299 l 486 -207 l 629 -207 q 664 -179 664 -207 q 652 -149 664 -159 q 631 -143 644 -143 l 566 -143 q 536 -131 549 -143 q 524 -102 524 -119 q 526 -90 524 -96 l 549 0 l 671 0 z "},"è":{"ha":1158,"x_min":88,"x_max":1070,"o":"m 798 661 q 990 581 910 661 q 1070 389 1070 502 l 1070 286 l 263 286 l 263 242 q 299 157 263 192 q 385 121 334 121 l 1069 121 l 1069 0 l 317 0 q 155 67 222 0 q 88 229 88 134 l 88 433 q 155 594 88 527 q 317 661 222 661 l 798 661 m 893 408 q 840 498 886 456 q 730 540 793 540 l 385 540 q 299 505 334 540 q 263 433 263 469 l 263 408 l 893 408 m 568 708 l 385 905 l 622 905 l 744 708 l 568 708 z "},"é":{"ha":1158,"x_min":88,"x_max":1070,"o":"m 798 661 q 990 581 910 661 q 1070 389 1070 502 l 1070 286 l 263 286 l 263 242 q 299 157 263 192 q 385 121 334 121 l 1069 121 l 1069 0 l 317 0 q 155 67 222 0 q 88 229 88 134 l 88 433 q 155 594 88 527 q 317 661 222 661 l 798 661 m 893 408 q 840 498 886 456 q 730 540 793 540 l 385 540 q 299 505 334 540 q 263 433 263 469 l 263 408 l 893 408 m 414 709 l 536 906 l 773 906 l 590 709 l 414 709 z "},"ê":{"ha":1158,"x_min":88,"x_max":1070,"o":"m 798 661 q 990 581 910 661 q 1070 389 1070 502 l 1070 286 l 263 286 l 263 242 q 299 157 263 192 q 385 121 334 121 l 1069 121 l 1069 0 l 317 0 q 155 67 222 0 q 88 229 88 134 l 88 433 q 155 594 88 527 q 317 661 222 661 l 798 661 m 893 408 q 840 498 886 456 q 730 540 793 540 l 385 540 q 299 505 334 540 q 263 433 263 469 l 263 408 l 893 408 m 665 906 l 841 709 l 659 709 l 579 809 l 500 709 l 317 709 l 494 906 l 665 906 z "},"ë":{"ha":1158,"x_min":88,"x_max":1070,"o":"m 798 661 q 990 581 910 661 q 1070 389 1070 502 l 1070 286 l 263 286 l 263 242 q 299 157 263 192 q 385 121 334 121 l 1069 121 l 1069 0 l 317 0 q 155 67 222 0 q 88 229 88 134 l 88 433 q 155 594 88 527 q 317 661 222 661 l 798 661 m 893 408 q 840 498 886 456 q 730 540 793 540 l 385 540 q 299 505 334 540 q 263 433 263 469 l 263 408 l 893 408 m 622 911 l 798 911 l 798 769 l 622 769 l 622 911 m 363 911 l 540 911 l 540 769 l 363 769 l 363 911 z "},"ì":{"ha":366,"x_min":-56,"x_max":302,"o":"m 95 661 l 271 661 l 271 0 l 95 0 l 95 661 m 127 708 l -56 905 l 180 905 l 302 708 l 127 708 z "},"í":{"ha":366,"x_min":63,"x_max":422,"o":"m 95 661 l 271 661 l 271 0 l 95 0 l 95 661 m 63 709 l 185 906 l 422 906 l 239 709 l 63 709 z "},"î":{"ha":366,"x_min":-79,"x_max":445,"o":"m 95 661 l 271 661 l 271 0 l 95 0 l 95 661 m 269 906 l 445 709 l 262 709 l 183 809 l 104 709 l -79 709 l 98 906 l 269 906 z "},"ï":{"ha":366,"x_min":-35,"x_max":400,"o":"m 95 661 l 271 661 l 271 0 l 95 0 l 95 661 m 224 911 l 400 911 l 400 769 l 224 769 l 224 911 m -35 911 l 142 911 l 142 769 l -35 769 l -35 911 z "},"ð":{"ha":895,"x_min":20,"x_max":874,"o":"m 842 659 q 874 456 874 559 l 874 267 q 789 78 874 156 q 448 0 703 0 q 106 78 191 0 q 20 267 20 156 l 20 409 q 106 597 20 519 q 448 675 191 675 q 736 635 666 675 q 620 791 699 736 l 462 713 l 414 810 l 488 846 q 391 869 444 865 l 403 965 q 625 913 534 964 l 751 975 l 798 879 l 727 844 q 842 659 804 771 m 448 119 q 679 154 584 121 q 732 267 732 188 l 732 410 q 678 522 732 495 q 448 548 638 548 q 216 522 256 548 q 162 409 162 488 l 162 267 q 216 154 162 184 q 448 119 297 121 z "},"ñ":{"ha":1158,"x_min":88,"x_max":1070,"o":"m 842 661 q 1003 594 936 661 q 1070 433 1070 527 l 1070 0 l 895 0 l 895 419 q 859 505 895 469 q 774 540 824 540 l 429 540 q 312 492 360 540 q 264 376 264 444 l 264 0 l 88 0 l 88 406 l 89 406 q 174 587 95 513 q 361 661 252 661 l 842 661 m 431 755 l 315 755 q 448 930 334 930 l 452 930 q 564 905 494 930 q 672 881 633 881 l 678 881 q 691 880 685 880 q 736 929 731 880 l 843 929 q 681 753 831 753 l 673 753 q 530 783 615 753 q 469 803 488 803 l 464 803 q 431 755 444 803 z "},"ò":{"ha":1158,"x_min":88,"x_max":1070,"o":"m 844 661 q 1004 595 937 661 q 1070 435 1070 528 l 1070 227 q 1004 66 1070 133 q 844 0 937 0 l 315 0 q 155 66 221 0 q 88 227 88 133 l 88 435 q 155 595 88 528 q 315 661 221 661 l 844 661 m 895 421 q 860 505 895 471 q 776 540 825 540 l 382 540 q 298 505 333 540 q 263 421 263 471 l 263 240 q 298 156 263 191 q 382 121 333 121 l 776 121 q 860 156 825 121 q 895 240 895 191 l 895 421 m 568 708 l 385 905 l 622 905 l 744 708 l 568 708 z "},"ó":{"ha":1158,"x_min":88,"x_max":1070,"o":"m 844 661 q 1004 595 937 661 q 1070 435 1070 528 l 1070 227 q 1004 66 1070 133 q 844 0 937 0 l 315 0 q 155 66 221 0 q 88 227 88 133 l 88 435 q 155 595 88 528 q 315 661 221 661 l 844 661 m 895 421 q 860 505 895 471 q 776 540 825 540 l 382 540 q 298 505 333 540 q 263 421 263 471 l 263 240 q 298 156 263 191 q 382 121 333 121 l 776 121 q 860 156 825 121 q 895 240 895 191 l 895 421 m 414 709 l 536 906 l 773 906 l 590 709 l 414 709 z "},"ô":{"ha":1158,"x_min":88,"x_max":1070,"o":"m 844 661 q 1004 595 937 661 q 1070 435 1070 528 l 1070 227 q 1004 66 1070 133 q 844 0 937 0 l 315 0 q 155 66 221 0 q 88 227 88 133 l 88 435 q 155 595 88 528 q 315 661 221 661 l 844 661 m 895 421 q 860 505 895 471 q 776 540 825 540 l 382 540 q 298 505 333 540 q 263 421 263 471 l 263 240 q 298 156 263 191 q 382 121 333 121 l 776 121 q 860 156 825 121 q 895 240 895 191 l 895 421 m 665 906 l 841 709 l 659 709 l 579 809 l 500 709 l 317 709 l 494 906 l 665 906 z "},"õ":{"ha":1158,"x_min":88,"x_max":1070,"o":"m 844 661 q 1004 595 937 661 q 1070 435 1070 528 l 1070 227 q 1004 66 1070 133 q 844 0 937 0 l 315 0 q 155 66 221 0 q 88 227 88 133 l 88 435 q 155 595 88 528 q 315 661 221 661 l 844 661 m 895 421 q 860 505 895 471 q 776 540 825 540 l 382 540 q 298 505 333 540 q 263 421 263 471 l 263 240 q 298 156 263 191 q 382 121 333 121 l 776 121 q 860 156 825 121 q 895 240 895 191 l 895 421 m 431 755 l 315 755 q 448 930 334 930 l 452 930 q 564 905 494 930 q 672 881 633 881 l 678 881 q 691 880 685 880 q 736 929 731 880 l 843 929 q 681 753 831 753 l 673 753 q 530 783 615 753 q 469 803 488 803 l 464 803 q 431 755 444 803 z "},"ö":{"ha":1158,"x_min":88,"x_max":1070,"o":"m 844 661 q 1004 595 937 661 q 1070 435 1070 528 l 1070 227 q 1004 66 1070 133 q 844 0 937 0 l 315 0 q 155 66 221 0 q 88 227 88 133 l 88 435 q 155 595 88 528 q 315 661 221 661 l 844 661 m 895 421 q 860 505 895 471 q 776 540 825 540 l 382 540 q 298 505 333 540 q 263 421 263 471 l 263 240 q 298 156 263 191 q 382 121 333 121 l 776 121 q 860 156 825 121 q 895 240 895 191 l 895 421 m 622 911 l 798 911 l 798 769 l 622 769 l 622 911 m 363 911 l 540 911 l 540 769 l 363 769 l 363 911 z "},"÷":{"ha":713,"x_min":88,"x_max":625,"o":"m 88 555 l 625 555 l 625 414 l 88 414 l 88 555 m 282 276 l 458 276 l 458 134 l 282 134 l 282 276 m 282 795 l 458 795 l 458 652 l 282 652 l 282 795 z "},"ø":{"ha":1158,"x_min":88,"x_max":1070,"o":"m 554 107 l 776 107 q 860 142 825 107 q 895 227 895 177 l 895 435 q 860 519 895 484 q 776 553 825 553 l 730 553 l 554 107 m 436 107 l 613 553 l 382 553 q 298 519 333 553 q 263 435 263 484 l 263 227 q 298 142 263 177 q 382 107 333 107 l 436 107 m 773 661 l 844 661 q 1004 595 937 661 q 1070 435 1070 528 l 1070 227 q 1004 66 1070 133 q 844 0 937 0 l 511 0 l 408 -262 l 290 -262 l 393 0 l 315 0 q 155 66 221 0 q 88 227 88 133 l 88 435 q 155 595 88 528 q 315 661 221 661 l 656 661 l 751 902 l 869 902 l 773 661 z "},"ù":{"ha":1158,"x_min":88,"x_max":1070,"o":"m 895 661 l 1070 661 l 1070 227 q 1004 66 1070 133 q 844 0 937 0 l 315 0 q 155 66 221 0 q 88 227 88 133 l 88 661 l 264 661 l 264 240 q 298 156 264 191 q 382 121 334 121 l 776 121 q 860 156 825 121 q 895 240 895 191 l 895 661 m 568 708 l 385 905 l 622 905 l 744 708 l 568 708 z "},"ú":{"ha":1158,"x_min":88,"x_max":1070,"o":"m 895 661 l 1070 661 l 1070 227 q 1004 66 1070 133 q 844 0 937 0 l 315 0 q 155 66 221 0 q 88 227 88 133 l 88 661 l 264 661 l 264 240 q 298 156 264 191 q 382 121 334 121 l 776 121 q 860 156 825 121 q 895 240 895 191 l 895 661 m 414 709 l 536 906 l 773 906 l 590 709 l 414 709 z "},"û":{"ha":1158,"x_min":88,"x_max":1070,"o":"m 895 661 l 1070 661 l 1070 227 q 1004 66 1070 133 q 844 0 937 0 l 315 0 q 155 66 221 0 q 88 227 88 133 l 88 661 l 264 661 l 264 240 q 298 156 264 191 q 382 121 334 121 l 776 121 q 860 156 825 121 q 895 240 895 191 l 895 661 m 665 906 l 841 709 l 659 709 l 579 809 l 500 709 l 317 709 l 494 906 l 665 906 z "},"ü":{"ha":1158,"x_min":88,"x_max":1070,"o":"m 895 661 l 1070 661 l 1070 227 q 1004 66 1070 133 q 844 0 937 0 l 315 0 q 155 66 221 0 q 88 227 88 133 l 88 661 l 264 661 l 264 240 q 298 156 264 191 q 382 121 334 121 l 776 121 q 860 156 825 121 q 895 240 895 191 l 895 661 m 622 911 l 798 911 l 798 769 l 622 769 l 622 911 m 363 911 l 540 911 l 540 769 l 363 769 l 363 911 z "},"ý":{"ha":1158,"x_min":88,"x_max":1070,"o":"m 895 661 l 1070 661 l 1070 -69 q 1003 -231 1070 -164 q 842 -298 936 -298 l 142 -298 l 142 -177 l 774 -177 q 859 -141 823 -177 q 895 -56 895 -106 l 895 56 q 730 1 821 1 l 317 1 q 155 68 222 1 q 88 229 88 134 l 88 661 l 263 661 l 263 243 q 299 157 263 193 q 385 121 334 121 l 730 121 q 846 170 798 121 q 895 286 895 218 l 895 661 m 460 709 l 582 906 l 819 906 l 635 709 l 460 709 z "},"þ":{"ha":981,"x_min":88,"x_max":892,"o":"m 524 666 q 809 600 733 666 q 892 404 892 526 l 892 259 q 809 63 892 137 q 524 -3 733 -3 q 264 79 334 -3 l 264 -262 l 88 -262 l 88 959 l 264 959 l 264 584 q 524 666 334 666 m 751 383 q 703 499 751 457 q 524 538 659 538 q 347 500 391 538 q 298 384 298 458 l 298 279 q 347 162 298 204 q 524 125 391 125 q 701 162 657 125 q 751 279 751 204 l 751 383 z "},"ÿ":{"ha":1158,"x_min":88,"x_max":1070,"o":"m 895 661 l 1070 661 l 1070 -69 q 1003 -231 1070 -164 q 842 -298 936 -298 l 142 -298 l 142 -177 l 774 -177 q 859 -141 823 -177 q 895 -56 895 -106 l 895 56 q 730 1 821 1 l 317 1 q 155 68 222 1 q 88 229 88 134 l 88 661 l 263 661 l 263 243 q 299 157 263 193 q 385 121 334 121 l 730 121 q 846 170 798 121 q 895 286 895 218 l 895 661 m 621 911 l 797 911 l 797 769 l 621 769 l 621 911 m 362 911 l 538 911 l 538 769 l 362 769 l 362 911 z "},"ı":{"ha":366,"x_min":95,"x_max":271,"o":"m 95 661 l 271 661 l 271 0 l 95 0 l 95 661 z "},"ˆ":{"ha":646,"x_min":61,"x_max":585,"o":"m 408 906 l 585 709 l 402 709 l 323 809 l 243 709 l 61 709 l 237 906 l 408 906 z "},"ˇ":{"ha":646,"x_min":61,"x_max":585,"o":"m 237 709 l 61 906 l 243 906 l 323 806 l 402 906 l 585 906 l 408 709 l 237 709 z "},"ˉ":{"ha":630,"x_min":88,"x_max":542,"o":"m 88 878 l 542 878 l 542 743 l 88 743 l 88 878 z "},"˘":{"ha":646,"x_min":54,"x_max":591,"o":"m 323 729 q 54 892 163 729 l 216 892 q 323 846 256 846 q 429 892 390 846 l 591 892 q 323 729 483 729 z "},"˙":{"ha":285,"x_min":54,"x_max":231,"o":"m 54 905 l 231 905 l 231 763 l 54 763 l 54 905 z "},"˚":{"ha":308,"x_min":7,"x_max":301,"o":"m 154 960 q 258 917 215 960 q 301 813 301 874 q 258 709 301 752 q 154 666 215 666 q 50 709 93 666 q 7 813 7 752 q 50 917 7 874 q 154 960 93 960 m 154 878 q 108 859 127 878 q 89 813 89 840 q 108 767 89 787 q 154 748 127 748 q 200 767 180 748 q 219 813 219 787 q 200 859 219 840 q 154 878 180 878 z "},"˛":{"ha":313,"x_min":7,"x_max":280,"o":"m 83 0 q 32 -66 56 -24 q 7 -152 7 -109 q 16 -200 7 -178 q 42 -240 24 -222 q 91 -267 59 -257 q 213 -277 123 -277 q 280 -261 263 -273 l 280 -186 q 246 -195 258 -192 q 218 -197 234 -197 q 176 -176 190 -197 q 167 -135 167 -160 q 168 -114 167 -125 q 195 -51 176 -78 q 240 0 215 -24 l 83 0 z "},"˜":{"ha":574,"x_min":28,"x_max":555,"o":"m 144 755 l 28 755 q 161 930 46 930 l 164 930 q 277 905 206 930 q 385 881 345 881 l 391 881 q 404 880 397 880 q 448 929 444 880 l 555 929 q 393 753 543 753 l 385 753 q 243 783 328 753 q 181 803 200 803 l 176 803 q 144 755 156 803 z "},"˝":{"ha":694,"x_min":39,"x_max":702,"o":"m 39 709 l 161 906 l 397 906 l 214 709 l 39 709 m 343 709 l 465 906 l 702 906 l 519 709 l 343 709 z "},"–":{"ha":705,"x_min":0,"x_max":705,"o":"m 0 277 l 0 389 l 705 389 l 705 277 l 0 277 z "},"—":{"ha":1253,"x_min":0,"x_max":1253,"o":"m 0 277 l 0 389 l 1253 389 l 1253 277 l 0 277 z "},"‘":{"ha":321,"x_min":68,"x_max":254,"o":"m 68 806 q 123 960 71 896 l 210 960 q 171 843 171 892 q 172 806 171 838 l 254 806 l 254 663 l 68 663 l 68 806 z "},"’":{"ha":321,"x_min":68,"x_max":254,"o":"m 254 817 q 199 663 250 727 l 111 663 q 151 780 151 731 q 150 817 151 785 l 68 817 l 68 960 l 254 960 l 254 817 z "},"‚":{"ha":321,"x_min":68,"x_max":254,"o":"m 254 6 q 199 -148 250 -84 l 111 -148 q 151 -31 151 -80 q 150 6 151 -26 l 68 6 l 68 149 l 254 149 l 254 6 z "},"“":{"ha":582,"x_min":68,"x_max":514,"o":"m 68 806 q 123 960 71 896 l 210 960 q 171 843 171 892 q 172 806 171 838 l 254 806 l 254 663 l 68 663 l 68 806 m 328 806 q 383 960 332 896 l 471 960 q 431 843 431 892 q 432 806 431 838 l 514 806 l 514 663 l 328 663 l 328 806 z "},"”":{"ha":582,"x_min":68,"x_max":514,"o":"m 254 817 q 199 663 250 727 l 111 663 q 151 780 151 731 q 150 817 151 785 l 68 817 l 68 960 l 254 960 l 254 817 m 514 817 q 459 663 511 727 l 372 663 q 411 780 411 731 q 410 817 411 785 l 328 817 l 328 960 l 514 960 l 514 817 z "},"„":{"ha":582,"x_min":68,"x_max":514,"o":"m 254 6 q 199 -148 250 -84 l 111 -148 q 151 -31 151 -80 q 150 6 151 -26 l 68 6 l 68 149 l 254 149 l 254 6 m 514 6 q 459 -148 511 -84 l 372 -148 q 411 -31 411 -80 q 410 6 411 -26 l 328 6 l 328 149 l 514 149 l 514 6 z "},"†":{"ha":688,"x_min":48,"x_max":640,"o":"m 330 693 q 293 814 324 759 q 254 901 254 882 q 279 955 254 935 q 344 975 303 975 q 408 956 382 975 q 433 907 433 937 q 396 814 433 886 q 359 693 365 757 q 479 730 424 699 q 566 768 547 768 q 620 744 600 768 q 640 679 640 720 q 622 615 640 640 q 572 589 603 589 q 480 627 551 589 q 359 665 422 658 q 420 477 364 546 q 357 -183 361 165 l 332 -183 q 268 477 328 165 q 330 665 323 546 q 209 628 264 659 q 121 589 140 589 q 68 614 88 589 q 48 679 48 638 q 67 743 48 718 q 115 768 85 768 q 208 730 137 768 q 330 693 266 699 z "},"‡":{"ha":688,"x_min":47,"x_max":640,"o":"m 358 126 q 479 165 422 134 q 572 202 550 202 q 621 177 602 202 q 640 113 640 151 q 619 47 640 72 q 566 23 599 23 q 478 62 547 23 q 358 98 423 93 q 359 -64 359 6 q 346 -286 359 -286 q 343 -285 345 -286 q 340 -287 342 -287 q 328 -59 328 -287 q 329 98 328 9 q 208 61 265 92 q 115 23 136 23 q 66 48 85 23 q 47 113 47 74 q 67 178 47 153 q 121 202 87 202 q 208 163 140 202 q 329 126 264 133 l 329 665 q 208 628 264 659 q 121 589 140 589 q 67 614 87 589 q 47 679 47 638 q 66 743 47 718 q 115 768 85 768 q 208 730 136 768 q 329 693 265 699 q 292 814 323 759 q 254 901 254 882 q 278 955 254 935 q 343 975 302 975 q 407 956 382 975 q 433 907 433 937 q 395 814 433 886 q 358 693 364 757 q 478 730 423 699 q 566 768 547 768 q 619 744 599 768 q 640 679 640 720 q 621 615 640 640 q 572 589 602 589 q 479 627 550 589 q 358 665 422 658 l 358 126 z "},"•":{"ha":997,"x_min":94,"x_max":922,"o":"m 787 350 q 922 210 922 278 q 890 157 922 180 q 804 126 860 136 q 519 137 686 104 q 235 237 353 170 q 117 367 117 304 q 163 429 117 405 q 288 458 209 452 q 271 427 277 445 q 175 355 175 408 q 276 244 175 302 q 519 159 376 186 q 763 149 662 131 q 837 176 811 158 q 864 222 864 195 q 790 316 864 267 q 787 350 791 328 m 524 556 q 530 556 526 556 l 532 555 q 536 555 534 555 l 538 555 q 542 555 540 555 l 544 555 q 549 555 547 555 l 550 555 q 556 554 553 554 l 558 553 q 562 553 560 553 l 564 553 q 568 552 566 553 l 570 552 q 574 551 572 551 l 576 551 q 582 549 579 550 l 583 549 q 587 548 585 549 l 589 547 q 593 547 591 547 l 595 546 q 599 545 597 545 l 601 544 q 605 543 602 544 l 606 543 q 612 541 609 541 l 614 540 q 617 538 616 539 l 619 538 q 623 536 621 537 l 625 535 q 628 534 626 534 l 630 533 q 635 530 633 532 l 637 530 q 640 528 638 529 l 642 527 q 645 526 644 526 l 648 524 q 650 523 648 524 q 652 522 652 522 q 656 519 654 521 l 658 518 q 662 515 660 517 l 664 514 q 667 513 665 513 l 669 511 l 671 509 l 673 508 q 676 506 674 507 q 678 505 678 505 l 678 505 q 682 501 680 503 l 682 501 q 684 500 682 501 q 686 498 686 498 q 688 496 687 497 l 691 494 l 693 492 q 695 490 694 492 q 697 488 696 489 q 699 487 698 488 q 703 483 701 485 q 705 481 705 481 q 707 479 706 480 l 709 477 q 711 475 710 476 l 713 473 q 715 471 714 471 l 716 469 q 721 463 719 467 l 722 463 q 724 460 722 462 l 725 458 q 728 456 726 457 l 728 454 q 730 452 730 452 l 732 450 q 734 447 733 448 l 734 446 q 739 439 737 442 l 740 438 q 742 435 741 437 l 743 433 q 745 431 744 432 l 745 429 q 747 426 747 427 l 748 425 q 754 413 751 419 l 755 412 q 757 408 755 410 l 757 407 q 759 403 758 405 l 760 402 q 764 389 762 395 l 765 389 q 766 385 766 387 l 767 383 q 768 379 768 381 l 768 378 q 774 356 772 368 q 780 323 777 342 q 781 304 781 314 l 781 304 q 781 298 781 301 l 781 296 l 781 294 l 781 294 l 781 292 l 781 290 l 781 289 l 781 288 l 781 287 l 781 286 l 781 285 l 781 283 l 781 282 l 781 281 l 781 281 l 781 279 l 780 278 q 747 170 776 220 q 524 181 652 156 q 287 264 385 208 q 267 276 277 269 q 267 298 267 288 q 291 409 267 357 l 291 409 q 293 413 292 411 q 295 417 294 415 l 295 417 q 302 431 298 424 l 303 432 l 303 432 q 322 459 314 452 q 334 473 328 466 l 335 473 q 338 477 336 475 l 339 478 l 341 480 l 342 481 q 345 484 344 482 l 346 485 l 348 487 l 349 488 q 352 490 351 489 l 353 492 l 355 493 l 356 494 l 358 496 l 360 498 l 361 498 l 363 499 l 363 500 q 366 502 365 501 l 368 504 l 370 505 l 371 506 l 373 507 q 376 509 374 509 l 378 511 l 379 511 l 381 513 l 382 514 q 386 516 385 515 l 387 517 l 389 518 l 391 519 q 394 521 392 520 l 395 522 l 397 523 l 399 524 q 403 526 401 525 l 404 526 l 406 528 l 408 528 q 411 530 410 529 l 413 531 l 415 532 l 417 533 l 418 534 q 422 535 420 534 l 424 536 l 426 536 l 427 537 q 431 538 429 538 l 433 539 l 435 540 l 437 541 q 440 542 438 541 l 441 543 l 444 543 l 446 544 q 449 545 448 545 l 451 545 l 454 546 l 455 547 q 458 547 457 547 l 460 548 q 463 549 461 549 l 465 549 q 468 550 467 549 l 469 550 q 473 551 471 551 l 474 551 q 477 552 476 551 l 479 552 q 483 553 481 552 l 484 553 q 488 553 486 553 l 489 553 q 493 554 491 554 l 494 554 q 498 555 496 555 l 498 555 q 503 555 501 555 l 503 555 q 508 555 506 555 l 509 555 q 513 555 511 555 l 514 555 q 518 556 515 556 l 519 556 l 524 556 m 682 95 q 515 115 603 98 q 294 182 394 138 q 387 80 327 118 q 524 41 450 41 q 682 95 612 41 m 426 36 q 437 25 437 36 q 426 14 437 14 q 414 25 414 14 q 426 36 414 36 m 306 122 q 321 116 315 122 q 328 100 328 109 q 321 84 328 90 q 306 77 315 77 q 290 84 296 77 q 283 100 283 90 q 290 116 283 109 q 306 122 296 122 m 161 159 q 186 148 176 159 q 197 123 197 138 q 186 98 197 108 q 161 87 176 87 q 136 98 146 87 q 125 123 125 108 q 136 148 125 138 q 161 159 146 159 m 130 597 q 155 586 144 597 q 165 561 165 576 q 155 536 165 546 q 130 526 144 526 q 104 536 115 526 q 94 561 94 546 q 104 586 94 576 q 130 597 115 597 m 281 626 q 292 621 288 626 q 297 609 297 616 q 292 597 297 602 q 281 593 288 593 q 269 597 274 593 q 264 609 264 602 q 269 621 264 616 q 281 626 274 626 m 451 631 q 463 625 458 631 q 467 614 467 621 q 463 602 467 607 q 451 597 458 597 q 439 602 444 597 q 434 614 434 607 q 439 625 434 621 q 451 631 444 631 z "},"…":{"ha":1389,"x_min":75,"x_max":1177,"o":"m 75 142 l 251 142 l 251 0 l 75 0 l 75 142 m 538 142 l 714 142 l 714 0 l 538 0 l 538 142 m 1001 142 l 1177 142 l 1177 0 l 1001 0 l 1001 142 z "},"‹":{"ha":418,"x_min":0,"x_max":418,"o":"m 418 656 l 149 328 l 417 0 l 269 0 l 0 328 l 269 656 l 418 656 z "},"›":{"ha":418,"x_min":0,"x_max":418,"o":"m 149 656 l 418 328 l 149 0 l 1 0 l 269 328 l 0 656 l 149 656 z "},"⁄":{"ha":345,"x_min":-224,"x_max":575,"o":"m -224 -28 l 492 979 l 575 979 l -141 -28 l -224 -28 z "},"₣":{"ha":1127,"x_min":-14,"x_max":931,"o":"m 88 307 l 88 785 q 139 909 88 858 q 262 960 190 960 l 931 960 l 931 819 l 330 819 q 283 799 302 819 q 263 751 263 779 l 263 591 l 931 591 l 931 449 l 263 449 l 263 307 l 441 307 l 441 172 l 263 172 l 263 0 l 88 0 l 88 172 l -14 172 l -14 307 l 88 307 z "},"₤":{"ha":992,"x_min":7,"x_max":918,"o":"m 125 -1 l 918 -1 l 918 127 l 300 127 l 300 429 l 574 429 l 574 536 l 300 536 l 300 685 q 349 801 300 753 q 465 849 397 849 l 607 849 q 692 814 657 849 q 728 728 728 779 l 728 681 l 903 681 l 903 728 q 836 890 903 823 q 675 957 769 957 l 397 957 q 205 877 285 957 q 125 685 125 798 l 125 536 l 7 536 l 7 429 l 125 429 l 125 -1 z "},"₧":{"ha":2470,"x_min":88,"x_max":2438,"o":"m 865 475 q 907 624 907 515 q 867 771 907 731 q 737 819 820 819 l 305 819 q 263 799 281 819 q 245 751 245 779 l 245 429 l 737 429 q 865 475 818 429 m 1061 553 q 998 383 1049 448 q 798 288 922 288 l 245 288 l 245 0 l 88 0 l 88 785 q 134 909 88 858 q 244 960 180 960 l 798 960 q 999 857 924 960 q 1064 661 1055 762 l 1170 661 l 1170 960 l 1345 960 l 1345 661 l 2346 661 l 2346 554 l 1752 553 q 1662 528 1694 553 q 1634 473 1634 506 q 1662 418 1634 440 q 1752 393 1694 393 l 2213 393 q 2381 331 2318 393 q 2438 196 2438 275 q 2381 61 2438 117 q 2213 0 2317 0 l 1398 0 q 1237 67 1304 0 q 1170 229 1170 134 l 1170 553 l 1061 553 m 1478 553 l 1345 553 l 1345 229 q 1381 143 1345 178 q 1466 107 1417 107 l 2145 107 q 2234 135 2202 107 q 2262 196 2262 159 q 2234 257 2262 233 q 2145 285 2202 285 l 1684 285 q 1516 344 1579 285 q 1458 473 1458 397 q 1478 553 1458 517 z "},"€":{"ha":1074,"x_min":31,"x_max":1020,"o":"m 859 321 l 254 321 l 254 298 q 302 184 254 240 q 417 127 349 127 l 1020 127 l 1020 0 l 349 0 q 170 87 244 0 q 95 298 95 175 l 95 321 l 31 321 l 31 429 l 95 429 l 95 536 l 31 536 l 31 644 l 95 644 l 95 661 q 170 872 95 785 q 349 960 244 960 l 1020 960 l 1020 832 l 417 832 q 302 776 349 832 q 254 661 254 720 l 254 644 l 905 644 l 890 536 l 254 536 l 254 429 l 875 429 l 859 321 z "},"№":{"ha":1914,"x_min":88,"x_max":1845,"o":"m 1313 144 l 1845 144 l 1845 1 l 1313 1 l 1313 144 m 878 960 q 1089 872 1001 960 q 1177 661 1177 785 l 1177 1 l 1001 1 l 1001 627 q 945 762 1001 706 q 810 819 889 819 l 455 819 q 320 762 376 819 q 264 627 264 706 l 264 0 l 88 0 l 88 661 q 176 872 88 785 q 387 960 264 960 l 878 960 m 1617 763 q 1777 696 1710 763 q 1843 536 1843 630 l 1843 471 q 1777 311 1843 377 q 1617 244 1710 244 l 1535 244 q 1375 311 1442 244 q 1309 471 1309 377 l 1309 536 q 1375 696 1309 630 q 1535 763 1442 763 l 1617 763 m 1735 536 q 1701 621 1735 586 q 1617 655 1666 655 l 1535 655 q 1451 621 1486 655 q 1416 536 1416 586 l 1416 471 q 1451 387 1416 421 q 1535 351 1486 351 l 1617 351 q 1701 387 1666 351 q 1735 471 1735 421 l 1735 536 z "},"™":{"ha":1260,"x_min":89,"x_max":1172,"o":"m 89 960 l 502 960 l 502 903 l 334 903 l 334 576 l 258 576 l 258 903 l 89 903 l 89 960 m 1069 960 q 1142 924 1112 960 q 1172 838 1172 888 l 1172 576 l 1093 576 l 1093 825 q 1077 880 1093 856 q 1039 903 1060 903 l 947 903 q 895 872 917 903 q 873 800 873 842 l 873 576 l 797 576 l 797 825 q 781 880 797 856 q 743 903 765 903 l 654 903 q 602 872 624 903 q 580 800 580 842 l 580 576 l 502 576 l 502 836 q 544 924 510 889 q 624 960 578 960 l 758 960 q 842 908 811 960 q 935 960 879 960 l 1069 960 z "},"∂":{"ha":622,"x_min":68,"x_max":554,"o":"m 452 451 q 427 492 446 476 q 380 508 406 508 l 241 508 q 190 487 212 508 q 168 435 168 465 l 168 174 q 190 122 168 144 q 241 100 212 100 l 380 100 q 432 122 410 100 q 454 174 454 144 l 454 439 l 452 451 m 410 606 q 331 749 377 692 q 156 846 257 841 l 106 849 l 111 949 l 161 947 q 362 862 274 941 q 409 812 387 840 q 523 587 480 724 q 554 417 553 490 l 554 174 q 503 51 554 102 q 380 0 452 0 l 241 0 q 119 51 170 0 q 68 174 68 102 l 68 435 q 119 557 68 507 q 241 609 170 609 l 380 609 q 410 606 395 609 z "},"∆":{"ha":814,"x_min":7,"x_max":808,"o":"m 7 0 l 407 949 l 808 0 l 7 0 m 671 90 l 407 717 l 143 90 l 671 90 z "},"∏":{"ha":781,"x_min":17,"x_max":764,"o":"m 764 949 l 764 848 l 613 848 l 613 0 l 513 0 l 513 848 l 269 848 l 269 0 l 168 0 l 168 848 l 17 848 l 17 949 l 764 949 z "},"∑":{"ha":853,"x_min":34,"x_max":819,"o":"m 209 848 l 734 475 l 209 101 l 819 101 l 819 0 l 34 0 l 34 100 l 560 475 l 34 849 l 34 949 l 819 949 l 819 848 l 209 848 z "},"−":{"ha":713,"x_min":88,"x_max":625,"o":"m 88 555 l 625 555 l 625 414 l 88 414 l 88 555 z "},"√":{"ha":631,"x_min":10,"x_max":625,"o":"m 322 1137 l 625 1137 l 625 1053 l 393 1053 l 219 0 l 133 0 l 10 356 l 89 383 l 163 170 l 322 1137 z "},"∞":{"ha":981,"x_min":54,"x_max":926,"o":"m 238 331 q 184 340 210 331 q 134 366 158 349 q 93 409 111 384 q 65 469 75 435 q 54 545 54 503 q 65 623 54 588 q 94 683 75 656 q 135 726 112 708 q 185 752 159 743 q 238 761 212 761 q 327 742 284 760 q 407 690 369 722 q 477 618 445 658 l 490 600 l 504 618 q 574 690 536 658 q 654 742 612 722 q 743 761 696 760 q 795 752 769 761 q 845 726 821 743 q 886 683 869 708 q 916 623 905 657 q 926 545 926 589 q 916 467 926 502 q 887 408 905 433 q 845 366 868 382 q 795 340 822 348 q 743 331 768 331 q 654 349 695 332 q 574 400 612 368 q 504 473 536 433 l 490 490 l 477 473 q 407 400 444 433 q 327 349 369 368 q 238 331 285 332 m 236 401 q 339 433 288 401 q 439 530 389 464 l 451 545 l 439 560 q 382 623 414 594 q 315 670 350 653 q 236 690 277 689 q 175 671 202 689 q 132 621 147 654 q 115 545 115 588 q 132 469 115 502 q 175 418 147 437 q 236 401 202 401 m 541 559 l 530 545 l 541 530 q 598 467 568 494 q 665 420 629 437 q 745 401 703 401 q 806 418 779 401 q 849 469 833 437 q 865 545 865 502 q 848 623 865 590 q 804 673 832 655 q 745 690 777 690 q 665 671 703 689 q 598 624 629 653 q 541 559 567 595 z "},"∫":{"ha":427,"x_min":-34,"x_max":460,"o":"m 223 855 q 265 997 231 930 q 424 1109 323 1109 q 460 1105 441 1109 l 460 1022 q 440 1023 450 1023 q 343 960 378 1023 q 302 810 319 916 q 252 429 285 703 q 203 22 220 158 q 161 -120 196 -54 q 3 -232 104 -232 q -34 -229 -15 -232 l -34 -145 q -14 -146 -24 -146 q 83 -83 49 -146 q 125 68 107 -39 q 174 447 142 176 q 223 855 207 720 z "},"≈":{"ha":829,"x_min":68,"x_max":761,"o":"m 761 552 q 533 490 646 490 l 520 490 q 335 531 448 492 q 220 559 256 559 l 217 559 q 104 506 163 557 l 68 473 l 68 633 q 216 701 140 700 l 218 701 q 379 665 279 701 q 526 631 473 633 l 532 631 q 711 678 617 631 l 761 707 l 761 552 m 761 285 q 533 222 646 222 l 520 222 q 335 264 448 224 q 220 292 256 292 l 217 292 q 104 239 163 290 l 68 205 l 68 366 q 216 433 140 433 l 218 433 q 379 398 279 433 q 526 363 473 366 l 532 363 q 711 411 617 363 l 761 439 l 761 285 z "},"≤":{"ha":739,"x_min":88,"x_max":652,"o":"m 650 162 l 88 423 l 88 572 l 650 833 l 650 715 l 182 498 l 650 281 l 650 162 m 88 108 l 652 108 l 652 0 l 88 0 l 88 108 z "},"≥":{"ha":739,"x_min":88,"x_max":650,"o":"m 88 281 l 556 498 l 88 715 l 88 833 l 650 572 l 650 423 l 88 162 l 88 281 m 88 108 l 645 108 l 645 0 l 88 0 l 88 108 z "},"":{"ha":928,"x_min":88,"x_max":833,"o":"m 88 731 q 155 892 88 826 q 317 960 222 960 l 539 960 l 539 839 l 385 839 q 299 803 335 839 q 264 718 264 768 l 264 660 l 541 660 l 541 538 l 264 538 l 264 0 l 88 0 l 88 731 m 656 661 l 832 661 l 832 0 l 656 0 l 656 661 m 656 960 l 833 960 l 833 784 l 656 784 l 656 960 z "},"":{"ha":1080,"x_min":88,"x_max":1073,"o":"m 88 731 q 155 892 88 826 q 317 960 222 960 l 539 960 l 539 839 l 385 839 q 299 803 335 839 q 264 718 264 768 l 264 660 l 541 660 l 541 538 l 264 538 l 264 0 l 88 0 l 88 731 m 839 242 q 874 157 839 192 q 960 121 910 121 l 1073 121 l 1073 0 l 892 0 q 730 67 798 0 q 663 229 663 134 l 663 960 l 839 960 l 839 242 z "},"Ā":{"ha":1265,"x_min":88,"x_max":1177,"o":"m 1001 481 l 1001 627 q 945 762 1001 706 q 810 819 888 819 l 455 819 q 319 762 376 819 q 264 627 264 706 l 264 481 l 1001 481 m 264 340 l 264 0 l 88 0 l 88 661 q 176 872 88 785 q 387 960 263 960 l 878 960 q 1088 872 1001 960 q 1177 661 1177 785 l 1177 0 l 1001 0 l 1001 340 l 264 340 m 406 1177 l 859 1177 l 859 1042 l 406 1042 l 406 1177 z "},"ā":{"ha":1118,"x_min":68,"x_max":1050,"o":"m 364 114 q 290 128 321 114 q 243 196 243 151 l 243 205 q 290 273 243 251 q 364 288 320 288 l 753 288 q 827 273 797 288 q 874 206 874 251 q 753 114 874 114 l 364 114 m 1050 443 q 982 596 1050 532 q 821 661 914 661 l 143 661 l 143 540 l 753 540 q 840 504 803 540 q 874 429 874 471 l 874 376 q 753 402 821 402 l 296 402 q 131 348 194 402 q 68 205 68 294 l 68 196 q 131 54 68 108 q 296 0 194 0 l 821 0 q 987 56 925 0 q 1050 205 1049 112 l 1050 443 m 332 878 l 786 878 l 786 743 l 332 743 l 332 878 z "},"Ă":{"ha":1265,"x_min":88,"x_max":1177,"o":"m 1001 481 l 1001 627 q 945 762 1001 706 q 810 819 888 819 l 455 819 q 319 762 376 819 q 264 627 264 706 l 264 481 l 1001 481 m 264 340 l 264 0 l 88 0 l 88 661 q 176 872 88 785 q 387 960 263 960 l 878 960 q 1088 872 1001 960 q 1177 661 1177 785 l 1177 0 l 1001 0 l 1001 340 l 264 340 m 633 1027 q 364 1191 473 1027 l 526 1191 q 633 1144 566 1144 q 739 1191 700 1144 l 901 1191 q 633 1027 793 1027 z "},"ă":{"ha":1118,"x_min":68,"x_max":1050,"o":"m 364 114 q 290 128 321 114 q 243 196 243 151 l 243 205 q 290 273 243 251 q 364 288 320 288 l 753 288 q 827 273 797 288 q 874 206 874 251 q 753 114 874 114 l 364 114 m 1050 443 q 982 596 1050 532 q 821 661 914 661 l 143 661 l 143 540 l 753 540 q 840 504 803 540 q 874 429 874 471 l 874 376 q 753 402 821 402 l 296 402 q 131 348 194 402 q 68 205 68 294 l 68 196 q 131 54 68 108 q 296 0 194 0 l 821 0 q 987 56 925 0 q 1050 205 1049 112 l 1050 443 m 559 729 q 290 892 399 729 l 452 892 q 559 846 492 846 q 665 892 626 846 l 827 892 q 559 729 719 729 z "},"Ą":{"ha":1265,"x_min":88,"x_max":1207,"o":"m 1001 481 l 1001 627 q 945 762 1001 706 q 810 819 888 819 l 455 819 q 319 762 376 819 q 264 627 264 706 l 264 481 l 1001 481 m 264 340 l 264 0 l 88 0 l 88 661 q 176 872 88 785 q 387 960 263 960 l 878 960 q 1088 872 1001 960 q 1177 661 1177 785 l 1177 0 l 1001 0 l 1001 340 l 264 340 m 1010 0 q 959 -66 983 -24 q 935 -152 935 -109 q 943 -200 935 -178 q 969 -240 951 -222 q 1018 -267 986 -257 q 1140 -277 1050 -277 q 1207 -261 1190 -273 l 1207 -186 q 1173 -195 1185 -192 q 1145 -197 1161 -197 q 1103 -176 1117 -197 q 1094 -135 1094 -160 q 1095 -114 1094 -125 q 1122 -51 1103 -78 q 1167 0 1142 -24 l 1010 0 z "},"ą":{"ha":1118,"x_min":68,"x_max":1050,"o":"m 364 114 q 290 128 321 114 q 243 196 243 151 l 243 205 q 290 273 243 251 q 364 288 320 288 l 753 288 q 827 273 797 288 q 874 206 874 251 q 753 114 874 114 l 364 114 m 1050 443 q 982 596 1050 532 q 821 661 914 661 l 143 661 l 143 540 l 753 540 q 840 504 803 540 q 874 429 874 471 l 874 376 q 753 402 821 402 l 296 402 q 131 348 194 402 q 68 205 68 294 l 68 196 q 131 54 68 108 q 296 0 194 0 l 821 0 q 987 56 925 0 q 1050 205 1049 112 l 1050 443 m 814 43 q 763 -23 787 19 q 739 -109 739 -66 q 747 -157 739 -135 q 773 -197 755 -180 q 822 -224 790 -214 q 944 -234 854 -234 q 1011 -218 994 -230 l 1011 -143 q 977 -152 989 -149 q 949 -155 965 -155 q 907 -133 921 -155 q 898 -92 898 -117 q 899 -71 898 -83 q 926 -8 907 -35 q 971 43 946 19 l 814 43 z "},"Ć":{"ha":1265,"x_min":88,"x_max":1177,"o":"m 88 661 q 176 872 88 785 q 387 960 264 960 l 1177 960 l 1177 819 l 455 819 q 320 762 376 819 q 264 627 264 706 l 264 332 q 320 197 264 254 q 455 141 376 141 l 1177 141 l 1177 0 l 387 0 q 176 87 264 0 q 88 298 88 175 l 88 661 m 602 1007 l 724 1204 l 960 1204 l 777 1007 l 602 1007 z "},"ć":{"ha":1067,"x_min":88,"x_max":979,"o":"m 88 389 q 168 581 88 502 q 361 661 248 661 l 979 661 l 979 540 l 429 540 q 312 492 360 540 q 264 376 264 444 l 264 286 q 312 170 264 218 q 429 121 360 121 l 979 121 l 979 0 l 361 0 q 168 79 248 0 q 88 272 88 159 l 88 389 m 490 709 l 612 906 l 849 906 l 666 709 l 490 709 z "},"Ĉ":{"ha":1265,"x_min":88,"x_max":1177,"o":"m 88 661 q 176 872 88 785 q 387 960 264 960 l 1177 960 l 1177 819 l 455 819 q 320 762 376 819 q 264 627 264 706 l 264 332 q 320 197 264 254 q 455 141 376 141 l 1177 141 l 1177 0 l 387 0 q 176 87 264 0 q 88 298 88 175 l 88 661 m 786 1204 l 962 1007 l 780 1007 l 701 1107 l 621 1007 l 439 1007 l 615 1204 l 786 1204 z "},"ĉ":{"ha":1067,"x_min":88,"x_max":979,"o":"m 88 389 q 168 581 88 502 q 361 661 248 661 l 979 661 l 979 540 l 429 540 q 312 492 360 540 q 264 376 264 444 l 264 286 q 312 170 264 218 q 429 121 360 121 l 979 121 l 979 0 l 361 0 q 168 79 248 0 q 88 272 88 159 l 88 389 m 687 906 l 863 709 l 681 709 l 602 809 l 522 709 l 340 709 l 516 906 l 687 906 z "},"Ċ":{"ha":1265,"x_min":88,"x_max":1177,"o":"m 88 661 q 176 872 88 785 q 387 960 264 960 l 1177 960 l 1177 819 l 455 819 q 320 762 376 819 q 264 627 264 706 l 264 332 q 320 197 264 254 q 455 141 376 141 l 1177 141 l 1177 0 l 387 0 q 176 87 264 0 q 88 298 88 175 l 88 661 m 612 1204 l 789 1204 l 789 1061 l 612 1061 l 612 1204 z "},"ċ":{"ha":1067,"x_min":88,"x_max":979,"o":"m 88 389 q 168 581 88 502 q 361 661 248 661 l 979 661 l 979 540 l 429 540 q 312 492 360 540 q 264 376 264 444 l 264 286 q 312 170 264 218 q 429 121 360 121 l 979 121 l 979 0 l 361 0 q 168 79 248 0 q 88 272 88 159 l 88 389 m 513 905 l 690 905 l 690 763 l 513 763 l 513 905 z "},"Č":{"ha":1265,"x_min":88,"x_max":1177,"o":"m 88 661 q 176 872 88 785 q 387 960 264 960 l 1177 960 l 1177 819 l 455 819 q 320 762 376 819 q 264 627 264 706 l 264 332 q 320 197 264 254 q 455 141 376 141 l 1177 141 l 1177 0 l 387 0 q 176 87 264 0 q 88 298 88 175 l 88 661 m 615 1007 l 439 1204 l 621 1204 l 701 1104 l 780 1204 l 962 1204 l 786 1007 l 615 1007 z "},"č":{"ha":1067,"x_min":88,"x_max":979,"o":"m 88 389 q 168 581 88 502 q 361 661 248 661 l 979 661 l 979 540 l 429 540 q 312 492 360 540 q 264 376 264 444 l 264 286 q 312 170 264 218 q 429 121 360 121 l 979 121 l 979 0 l 361 0 q 168 79 248 0 q 88 272 88 159 l 88 389 m 516 709 l 340 906 l 522 906 l 602 806 l 681 906 l 863 906 l 687 709 l 516 709 z "},"Ď":{"ha":1265,"x_min":88,"x_max":1177,"o":"m 878 960 q 1089 872 1001 960 q 1177 661 1177 785 l 1177 298 q 1089 87 1177 175 q 878 0 1001 0 l 88 0 l 88 785 q 139 909 88 858 q 262 960 191 960 l 878 960 m 1001 627 q 945 762 1001 706 q 810 819 889 819 l 330 819 q 283 799 302 819 q 264 751 264 779 l 264 141 l 810 141 q 945 197 889 141 q 1001 332 1001 254 l 1001 627 m 547 1007 l 371 1204 l 553 1204 l 633 1104 l 712 1204 l 895 1204 l 718 1007 l 547 1007 z "},"ď":{"ha":1159,"x_min":88,"x_max":1322,"o":"m 1071 272 q 991 79 1071 159 q 798 0 911 0 l 317 0 q 155 67 222 0 q 88 229 88 134 l 88 433 q 155 594 88 527 q 317 661 222 661 l 730 661 q 895 606 822 661 l 895 960 l 1071 960 l 1071 272 m 730 121 q 847 170 798 121 q 895 286 895 218 l 895 376 q 847 492 895 444 q 730 540 798 540 l 385 540 q 300 505 335 540 q 264 419 264 469 l 264 242 q 300 157 264 192 q 385 121 335 121 l 730 121 m 1322 817 q 1267 663 1318 727 l 1179 663 q 1219 780 1219 731 q 1218 817 1219 785 l 1136 817 l 1136 960 l 1322 960 l 1322 817 z "},"Đ":{"ha":1477,"x_min":34,"x_max":1258,"o":"m 345 409 l 345 141 l 891 141 q 1026 197 970 141 q 1082 332 1082 254 l 1082 627 q 1026 762 1082 706 q 891 819 970 819 l 412 819 q 365 799 384 819 q 345 751 345 779 l 345 551 l 706 551 l 706 409 l 345 409 m 170 551 l 170 785 q 220 909 170 858 q 344 960 272 960 l 959 960 q 1171 872 1082 960 q 1258 661 1258 785 l 1258 298 q 1171 87 1258 175 q 959 0 1082 0 l 170 0 l 170 409 l 34 409 l 34 551 l 170 551 z "},"đ":{"ha":1213,"x_min":88,"x_max":1206,"o":"m 730 141 q 847 190 798 141 q 895 306 895 238 l 895 355 q 847 471 895 423 q 730 519 798 519 l 385 519 q 300 484 335 519 q 264 399 264 449 l 264 262 q 300 177 264 212 q 385 141 335 141 l 730 141 m 1071 722 l 1071 272 q 991 79 1071 159 q 798 0 911 0 l 317 0 q 155 67 222 0 q 88 229 88 134 l 88 433 q 155 594 88 527 q 317 661 222 661 l 730 661 q 895 606 822 661 l 895 722 l 625 722 l 625 864 l 895 864 l 895 960 l 1071 960 l 1071 864 l 1206 864 l 1206 722 l 1071 722 z "},"Ē":{"ha":1019,"x_min":88,"x_max":999,"o":"m 88 785 q 139 909 88 858 q 262 960 190 960 l 999 960 l 999 819 l 330 819 q 283 799 302 819 q 263 751 263 779 l 263 550 l 999 550 l 999 408 l 263 408 l 263 141 l 999 141 l 999 0 l 88 0 l 88 785 m 351 1177 l 804 1177 l 804 1042 l 351 1042 l 351 1177 z "},"ē":{"ha":1158,"x_min":88,"x_max":1070,"o":"m 798 661 q 990 581 910 661 q 1070 389 1070 502 l 1070 286 l 263 286 l 263 242 q 299 157 263 192 q 385 121 334 121 l 1069 121 l 1069 0 l 317 0 q 155 67 222 0 q 88 229 88 134 l 88 433 q 155 594 88 527 q 317 661 222 661 l 798 661 m 893 408 q 840 498 886 456 q 730 540 793 540 l 385 540 q 299 505 334 540 q 263 433 263 469 l 263 408 l 893 408 m 353 878 l 806 878 l 806 743 l 353 743 l 353 878 z "},"Ĕ":{"ha":1019,"x_min":88,"x_max":999,"o":"m 88 785 q 139 909 88 858 q 262 960 190 960 l 999 960 l 999 819 l 330 819 q 283 799 302 819 q 263 751 263 779 l 263 550 l 999 550 l 999 408 l 263 408 l 263 141 l 999 141 l 999 0 l 88 0 l 88 785 m 578 1027 q 309 1191 418 1027 l 471 1191 q 578 1144 511 1144 q 684 1191 645 1144 l 846 1191 q 578 1027 738 1027 z "},"ĕ":{"ha":1158,"x_min":88,"x_max":1070,"o":"m 798 661 q 990 581 910 661 q 1070 389 1070 502 l 1070 286 l 263 286 l 263 242 q 299 157 263 192 q 385 121 334 121 l 1069 121 l 1069 0 l 317 0 q 155 67 222 0 q 88 229 88 134 l 88 433 q 155 594 88 527 q 317 661 222 661 l 798 661 m 893 408 q 840 498 886 456 q 730 540 793 540 l 385 540 q 299 505 334 540 q 263 433 263 469 l 263 408 l 893 408 m 579 729 q 311 892 419 729 l 473 892 q 579 846 513 846 q 686 892 646 846 l 848 892 q 579 729 739 729 z "},"Ė":{"ha":1019,"x_min":88,"x_max":999,"o":"m 88 785 q 139 909 88 858 q 262 960 190 960 l 999 960 l 999 819 l 330 819 q 283 799 302 819 q 263 751 263 779 l 263 550 l 999 550 l 999 408 l 263 408 l 263 141 l 999 141 l 999 0 l 88 0 l 88 785 m 490 1204 l 666 1204 l 666 1061 l 490 1061 l 490 1204 z "},"ė":{"ha":1158,"x_min":88,"x_max":1070,"o":"m 798 661 q 990 581 910 661 q 1070 389 1070 502 l 1070 286 l 263 286 l 263 242 q 299 157 263 192 q 385 121 334 121 l 1069 121 l 1069 0 l 317 0 q 155 67 222 0 q 88 229 88 134 l 88 433 q 155 594 88 527 q 317 661 222 661 l 798 661 m 893 408 q 840 498 886 456 q 730 540 793 540 l 385 540 q 299 505 334 540 q 263 433 263 469 l 263 408 l 893 408 m 491 905 l 667 905 l 667 763 l 491 763 l 491 905 z "},"Ę":{"ha":1087,"x_min":88,"x_max":999,"o":"m 88 785 q 139 909 88 858 q 262 960 190 960 l 999 960 l 999 819 l 330 819 q 283 799 302 819 q 263 751 263 779 l 263 550 l 999 550 l 999 408 l 263 408 l 263 141 l 999 141 l 999 0 l 88 0 l 88 785 m 802 0 q 750 -66 774 -24 q 726 -152 726 -109 q 735 -200 726 -178 q 761 -240 743 -222 q 810 -267 778 -257 q 932 -277 842 -277 q 999 -261 982 -273 l 999 -186 q 965 -195 977 -192 q 937 -197 953 -197 q 895 -176 909 -197 q 886 -135 886 -160 q 887 -114 886 -125 q 914 -51 895 -78 q 959 0 934 -24 l 802 0 z "},"ę":{"ha":1158,"x_min":88,"x_max":1070,"o":"m 798 661 q 990 581 910 661 q 1070 389 1070 502 l 1070 300 l 263 300 l 263 229 q 299 143 263 178 q 385 107 334 107 l 1069 107 l 1069 0 l 317 0 q 155 67 222 0 q 88 229 88 134 l 88 433 q 155 594 88 527 q 317 661 222 661 l 798 661 m 893 408 q 840 511 886 469 q 730 553 793 553 l 385 553 q 299 518 334 553 q 263 433 263 483 l 263 408 l 893 408 m 935 0 q 890 -51 909 -24 q 863 -114 870 -78 q 861 -135 861 -125 q 871 -176 861 -160 q 913 -197 884 -197 q 941 -195 928 -197 q 975 -186 953 -192 l 975 -261 q 907 -277 958 -273 q 786 -267 818 -277 q 736 -240 753 -257 q 710 -200 719 -222 q 702 -152 702 -178 q 726 -66 702 -109 q 777 0 750 -24 l 935 0 z "},"Ě":{"ha":1019,"x_min":88,"x_max":999,"o":"m 88 785 q 139 909 88 858 q 262 960 190 960 l 999 960 l 999 819 l 330 819 q 283 799 302 819 q 263 751 263 779 l 263 550 l 999 550 l 999 408 l 263 408 l 263 141 l 999 141 l 999 0 l 88 0 l 88 785 m 492 1007 l 316 1204 l 498 1204 l 578 1104 l 657 1204 l 840 1204 l 663 1007 l 492 1007 z "},"ě":{"ha":1158,"x_min":88,"x_max":1070,"o":"m 798 661 q 990 581 910 661 q 1070 389 1070 502 l 1070 286 l 263 286 l 263 242 q 299 157 263 192 q 385 121 334 121 l 1069 121 l 1069 0 l 317 0 q 155 67 222 0 q 88 229 88 134 l 88 433 q 155 594 88 527 q 317 661 222 661 l 798 661 m 893 408 q 840 498 886 456 q 730 540 793 540 l 385 540 q 299 505 334 540 q 263 433 263 469 l 263 408 l 893 408 m 494 709 l 317 906 l 500 906 l 579 806 l 659 906 l 841 906 l 665 709 l 494 709 z "},"Ĝ":{"ha":1265,"x_min":88,"x_max":1177,"o":"m 572 584 l 1177 584 l 1177 298 q 1089 87 1177 175 q 878 0 1002 0 l 387 0 q 176 87 264 0 q 88 298 88 175 l 88 661 q 176 872 88 785 q 387 960 264 960 l 1050 960 l 1050 819 l 455 819 q 320 762 376 819 q 264 627 264 706 l 264 332 q 320 197 264 254 q 455 141 376 141 l 810 141 q 945 197 889 141 q 1001 332 1001 254 l 1001 442 l 572 442 l 572 584 m 718 1204 l 895 1007 l 712 1007 l 633 1107 l 553 1007 l 371 1007 l 547 1204 l 718 1204 z "},"ĝ":{"ha":1158,"x_min":88,"x_max":1070,"o":"m 798 662 q 990 582 910 662 q 1070 390 1070 503 l 1070 -69 q 1003 -231 1070 -164 q 842 -298 936 -298 l 142 -298 l 142 -177 l 774 -177 q 859 -141 823 -177 q 895 -56 895 -106 l 895 56 q 730 1 821 1 l 317 1 q 155 68 222 1 q 88 229 88 134 l 88 433 q 155 595 88 528 q 317 662 222 662 l 798 662 m 730 121 q 846 170 798 121 q 895 286 895 218 l 895 376 q 846 492 895 444 q 730 541 798 541 l 385 541 q 299 505 334 541 q 263 420 263 470 l 263 243 q 299 157 263 193 q 385 121 334 121 l 730 121 m 665 906 l 841 709 l 659 709 l 579 809 l 500 709 l 317 709 l 494 906 l 665 906 z "},"Ğ":{"ha":1265,"x_min":88,"x_max":1177,"o":"m 572 584 l 1177 584 l 1177 298 q 1089 87 1177 175 q 878 0 1002 0 l 387 0 q 176 87 264 0 q 88 298 88 175 l 88 661 q 176 872 88 785 q 387 960 264 960 l 1050 960 l 1050 819 l 455 819 q 320 762 376 819 q 264 627 264 706 l 264 332 q 320 197 264 254 q 455 141 376 141 l 810 141 q 945 197 889 141 q 1001 332 1001 254 l 1001 442 l 572 442 l 572 584 m 633 1027 q 364 1191 473 1027 l 526 1191 q 633 1144 566 1144 q 739 1191 700 1144 l 901 1191 q 633 1027 793 1027 z "},"ğ":{"ha":1158,"x_min":88,"x_max":1070,"o":"m 798 662 q 990 582 910 662 q 1070 390 1070 503 l 1070 -69 q 1003 -231 1070 -164 q 842 -298 936 -298 l 142 -298 l 142 -177 l 774 -177 q 859 -141 823 -177 q 895 -56 895 -106 l 895 56 q 730 1 821 1 l 317 1 q 155 68 222 1 q 88 229 88 134 l 88 433 q 155 595 88 528 q 317 662 222 662 l 798 662 m 730 121 q 846 170 798 121 q 895 286 895 218 l 895 376 q 846 492 895 444 q 730 541 798 541 l 385 541 q 299 505 334 541 q 263 420 263 470 l 263 243 q 299 157 263 193 q 385 121 334 121 l 730 121 m 579 729 q 311 892 419 729 l 473 892 q 579 846 513 846 q 686 892 646 846 l 848 892 q 579 729 739 729 z "},"Ġ":{"ha":1265,"x_min":88,"x_max":1177,"o":"m 572 584 l 1177 584 l 1177 298 q 1089 87 1177 175 q 878 0 1002 0 l 387 0 q 176 87 264 0 q 88 298 88 175 l 88 661 q 176 872 88 785 q 387 960 264 960 l 1050 960 l 1050 819 l 455 819 q 320 762 376 819 q 264 627 264 706 l 264 332 q 320 197 264 254 q 455 141 376 141 l 810 141 q 945 197 889 141 q 1001 332 1001 254 l 1001 442 l 572 442 l 572 584 m 545 1204 l 721 1204 l 721 1061 l 545 1061 l 545 1204 z "},"ġ":{"ha":1158,"x_min":88,"x_max":1070,"o":"m 798 662 q 990 582 910 662 q 1070 390 1070 503 l 1070 -69 q 1003 -231 1070 -164 q 842 -298 936 -298 l 142 -298 l 142 -177 l 774 -177 q 859 -141 823 -177 q 895 -56 895 -106 l 895 56 q 730 1 821 1 l 317 1 q 155 68 222 1 q 88 229 88 134 l 88 433 q 155 595 88 528 q 317 662 222 662 l 798 662 m 730 121 q 846 170 798 121 q 895 286 895 218 l 895 376 q 846 492 895 444 q 730 541 798 541 l 385 541 q 299 505 334 541 q 263 420 263 470 l 263 243 q 299 157 263 193 q 385 121 334 121 l 730 121 m 491 905 l 667 905 l 667 763 l 491 763 l 491 905 z "},"Ģ":{"ha":1265,"x_min":88,"x_max":1177,"o":"m 572 584 l 1177 584 l 1177 298 q 1089 87 1177 175 q 878 0 1002 0 l 387 0 q 176 87 264 0 q 88 298 88 175 l 88 661 q 176 872 88 785 q 387 960 264 960 l 1050 960 l 1050 819 l 455 819 q 320 762 376 819 q 264 627 264 706 l 264 332 q 320 197 264 254 q 455 141 376 141 l 810 141 q 945 197 889 141 q 1001 332 1001 254 l 1001 442 l 572 442 l 572 584 m 577 -34 q 622 -31 601 -31 q 757 -68 715 -31 q 799 -155 799 -106 q 751 -246 799 -207 q 600 -286 703 -286 q 505 -277 557 -286 l 513 -191 q 572 -194 543 -194 q 678 -156 678 -194 q 599 -124 678 -124 q 577 -125 589 -124 l 577 -34 z "},"ģ":{"ha":1158,"x_min":88,"x_max":1070,"o":"m 798 662 q 990 582 910 662 q 1070 390 1070 503 l 1070 -69 q 1003 -231 1070 -164 q 842 -298 936 -298 l 142 -298 l 142 -177 l 774 -177 q 859 -141 823 -177 q 895 -56 895 -106 l 895 56 q 730 1 821 1 l 317 1 q 155 68 222 1 q 88 229 88 134 l 88 433 q 155 595 88 528 q 317 662 222 662 l 798 662 m 730 121 q 846 170 798 121 q 895 286 895 218 l 895 376 q 846 492 895 444 q 730 541 798 541 l 385 541 q 299 505 334 541 q 263 420 263 470 l 263 243 q 299 157 263 193 q 385 121 334 121 l 730 121 m 442 893 q 497 1047 446 983 l 585 1047 q 545 930 545 979 q 546 893 545 925 l 628 893 l 628 751 l 442 751 l 442 893 z "},"Ĥ":{"ha":1154,"x_min":88,"x_max":1067,"o":"m 1067 0 l 892 0 l 892 415 l 264 415 l 264 0 l 88 0 l 88 960 l 264 960 l 264 557 l 892 557 l 892 960 l 1067 960 l 1067 0 m 665 1204 l 841 1007 l 659 1007 l 579 1107 l 500 1007 l 317 1007 l 494 1204 l 665 1204 z "},"ĥ":{"ha":1158,"x_min":88,"x_max":1070,"o":"m 842 661 q 1003 594 936 661 q 1070 433 1070 527 l 1070 0 l 895 0 l 895 419 q 859 505 895 469 q 774 540 824 540 l 429 540 q 312 492 360 540 q 264 376 264 444 l 264 0 l 88 0 l 88 960 l 264 960 l 264 606 q 429 661 337 661 l 842 661 m 665 1176 l 841 979 l 659 979 l 579 1079 l 500 979 l 317 979 l 494 1176 l 665 1176 z "},"Ħ":{"ha":1230,"x_min":1,"x_max":1230,"o":"m 1101 682 l 1101 0 l 926 0 l 926 415 l 298 415 l 298 0 l 123 0 l 123 682 l 1 682 l 1 824 l 123 824 l 123 960 l 298 960 l 298 824 l 926 824 l 926 960 l 1101 960 l 1101 824 l 1230 824 l 1230 682 l 1101 682 m 298 682 l 298 557 l 926 557 l 926 682 l 298 682 z "},"ħ":{"ha":1213,"x_min":7,"x_max":1124,"o":"m 318 732 l 318 606 q 483 661 391 661 l 896 661 q 1057 594 990 661 q 1124 433 1124 527 l 1124 0 l 949 0 l 949 433 q 913 518 949 483 q 828 553 878 553 l 483 553 q 366 505 414 553 q 318 389 318 457 l 318 0 l 142 0 l 142 732 l 7 732 l 7 874 l 142 874 l 142 960 l 318 960 l 318 874 l 686 874 l 686 732 l 318 732 z "},"Ĩ":{"ha":352,"x_min":-87,"x_max":440,"o":"m 88 960 l 264 960 l 264 0 l 88 0 l 88 960 m 28 1054 l -87 1054 q 45 1229 -69 1228 l 49 1229 q 161 1204 91 1229 q 269 1179 230 1179 l 275 1179 q 288 1179 282 1179 q 333 1227 328 1179 l 440 1227 q 278 1051 428 1051 l 270 1051 q 127 1081 212 1051 q 66 1101 85 1101 l 61 1101 q 28 1054 41 1101 z "},"ĩ":{"ha":366,"x_min":-81,"x_max":447,"o":"m 95 661 l 271 661 l 271 0 l 95 0 l 95 661 m 35 755 l -81 755 q 52 930 -62 930 l 56 930 q 168 905 98 930 q 276 881 237 881 l 282 881 q 295 880 289 880 q 340 929 335 880 l 447 929 q 285 753 435 753 l 277 753 q 134 783 219 753 q 73 803 92 803 l 68 803 q 35 755 47 803 z "},"Ī":{"ha":352,"x_min":-51,"x_max":403,"o":"m 88 960 l 264 960 l 264 0 l 88 0 l 88 960 m -51 1177 l 403 1177 l 403 1042 l -51 1042 l -51 1177 z "},"ī":{"ha":366,"x_min":-44,"x_max":410,"o":"m 95 661 l 271 661 l 271 0 l 95 0 l 95 661 m -44 878 l 410 878 l 410 743 l -44 743 l -44 878 z "},"Ĭ":{"ha":352,"x_min":-92,"x_max":445,"o":"m 88 960 l 264 960 l 264 0 l 88 0 l 88 960 m 176 1027 q -92 1191 16 1027 l 70 1191 q 176 1144 110 1144 q 283 1191 243 1144 l 445 1191 q 176 1027 336 1027 z "},"ĭ":{"ha":366,"x_min":-85,"x_max":452,"o":"m 95 661 l 271 661 l 271 0 l 95 0 l 95 661 m 183 729 q -85 892 23 729 l 77 892 q 183 846 117 846 q 290 892 250 846 l 452 892 q 183 729 343 729 z "},"Į":{"ha":352,"x_min":22,"x_max":295,"o":"m 88 960 l 264 960 l 264 0 l 88 0 l 88 960 m 98 0 q 46 -66 71 -24 q 22 -152 22 -109 q 31 -200 22 -178 q 57 -240 39 -222 q 106 -267 74 -257 q 228 -277 138 -277 q 295 -261 278 -273 l 295 -186 q 261 -195 273 -192 q 233 -197 249 -197 q 191 -176 205 -197 q 182 -135 182 -160 q 183 -114 182 -125 q 210 -51 191 -78 q 255 0 230 -24 l 98 0 z "},"į":{"ha":366,"x_min":29,"x_max":302,"o":"m 95 661 l 271 661 l 271 0 l 95 0 l 95 661 m 95 960 l 271 960 l 271 784 l 95 784 l 95 960 m 104 0 q 53 -66 77 -24 q 29 -152 29 -109 q 38 -200 29 -178 q 63 -240 46 -222 q 113 -267 81 -257 q 235 -277 145 -277 q 302 -261 285 -273 l 302 -186 q 268 -195 280 -192 q 240 -197 256 -197 q 198 -176 212 -197 q 189 -135 189 -160 q 190 -114 189 -125 q 217 -51 197 -78 q 262 0 237 -24 l 104 0 z "},"İ":{"ha":352,"x_min":88,"x_max":264,"o":"m 88 960 l 264 960 l 264 0 l 88 0 l 88 960 m 88 1204 l 264 1204 l 264 1061 l 88 1061 l 88 1204 z "},"Ĳ":{"ha":922,"x_min":88,"x_max":834,"o":"m 88 960 l 264 960 l 264 0 l 88 0 l 88 960 m 659 960 l 834 960 l 834 229 q 767 67 834 134 q 606 0 700 0 l 372 0 l 372 141 l 538 141 q 623 177 588 141 q 659 262 659 212 l 659 960 z "},"ĳ":{"ha":659,"x_min":95,"x_max":625,"o":"m 142 661 l 317 661 l 317 0 l 142 0 l 142 661 m 142 960 l 318 960 l 318 784 l 142 784 l 142 960 m 450 661 l 625 661 l 625 -70 q 557 -232 625 -165 q 396 -298 491 -298 l 95 -298 l 95 -191 l 328 -191 q 414 -155 378 -191 q 450 -70 450 -120 l 450 661 m 448 960 l 625 960 l 625 783 l 448 783 l 448 960 z "},"Ĵ":{"ha":638,"x_min":88,"x_max":711,"o":"m 374 960 l 550 960 l 550 229 q 483 67 550 134 q 321 0 416 0 l 88 0 l 88 141 l 254 141 q 339 177 304 141 q 374 262 374 212 l 374 960 m 534 1204 l 711 1007 l 528 1007 l 449 1107 l 370 1007 l 187 1007 l 363 1204 l 534 1204 z "},"ĵ":{"ha":542,"x_min":-176,"x_max":530,"o":"m 354 906 l 530 709 l 348 709 l 269 809 l 189 709 l 7 709 l 183 906 l 354 906 m 179 661 l 354 661 l 354 -70 q 287 -232 354 -165 q 125 -298 220 -298 l -176 -298 l -176 -191 l 58 -191 q 143 -155 108 -191 q 179 -70 179 -120 l 179 661 z "},"Ķ":{"ha":1158,"x_min":88,"x_max":1070,"o":"m 895 960 l 1070 960 l 1070 671 q 989 496 1070 565 q 1070 321 1070 427 l 1070 0 l 895 0 l 895 300 q 859 387 895 351 q 774 422 823 422 l 264 422 l 264 0 l 88 0 l 88 960 l 264 960 l 264 564 l 774 564 q 859 599 823 564 q 895 684 895 634 l 895 960 m 511 -34 q 556 -31 535 -31 q 691 -68 649 -31 q 733 -155 733 -106 q 685 -246 733 -207 q 534 -286 637 -286 q 439 -277 492 -286 l 447 -191 q 506 -194 477 -194 q 612 -156 612 -194 q 533 -124 612 -124 q 511 -125 524 -124 l 511 -34 z "},"ķ":{"ha":1158,"x_min":88,"x_max":1070,"o":"m 991 260 q 1070 88 1070 192 l 1070 0 l 895 0 l 895 75 q 859 160 895 125 q 774 195 824 195 l 264 195 l 264 0 l 88 0 l 88 960 l 264 960 l 264 627 q 385 661 319 661 l 842 661 q 1011 591 947 661 q 1069 435 1069 526 q 991 260 1069 327 m 774 317 q 865 354 832 317 q 893 429 893 387 q 865 503 893 470 q 774 540 832 540 l 385 540 q 299 505 335 540 q 264 419 264 469 l 264 317 l 774 317 m 484 -34 q 528 -31 507 -31 q 663 -68 621 -31 q 705 -155 705 -106 q 657 -246 705 -207 q 507 -286 610 -286 q 412 -277 464 -286 l 419 -191 q 478 -194 449 -194 q 585 -156 585 -194 q 505 -124 585 -124 q 484 -125 496 -124 l 484 -34 z "},"ĸ":{"ha":1158,"x_min":88,"x_max":1070,"o":"m 893 661 l 1069 661 l 1069 483 q 991 308 1069 374 q 1070 136 1070 239 l 1070 0 l 895 0 l 895 115 q 859 201 895 165 q 774 236 824 236 l 264 236 l 264 0 l 88 0 l 88 661 l 264 661 l 264 378 l 774 378 q 865 415 832 378 q 893 496 893 448 l 893 661 z "},"Ĺ":{"ha":1019,"x_min":88,"x_max":931,"o":"m 264 208 q 283 161 264 180 q 330 141 302 141 l 931 141 l 931 0 l 262 0 q 139 51 190 0 q 88 174 88 102 l 88 960 l 264 960 l 264 208 m 92 1007 l 214 1204 l 450 1204 l 267 1007 l 92 1007 z "},"ĺ":{"ha":450,"x_min":87,"x_max":511,"o":"m 277 242 q 313 157 277 192 q 399 121 349 121 l 511 121 l 511 0 l 331 0 q 169 67 236 0 q 102 229 102 134 l 102 960 l 277 960 l 277 242 m 87 1006 l 209 1203 l 446 1203 l 262 1006 l 87 1006 z "},"Ļ":{"ha":1019,"x_min":88,"x_max":931,"o":"m 264 208 q 283 161 264 180 q 330 141 302 141 l 931 141 l 931 0 l 262 0 q 139 51 190 0 q 88 174 88 102 l 88 960 l 264 960 l 264 208 m 463 -34 q 507 -31 486 -31 q 642 -68 600 -31 q 684 -155 684 -106 q 636 -246 684 -207 q 486 -286 589 -286 q 391 -277 443 -286 l 398 -191 q 457 -194 428 -194 q 564 -156 564 -194 q 484 -124 564 -124 q 463 -125 475 -124 l 463 -34 z "},"ļ":{"ha":450,"x_min":102,"x_max":511,"o":"m 277 242 q 313 157 277 192 q 399 121 349 121 l 511 121 l 511 0 l 331 0 q 169 67 236 0 q 102 229 102 134 l 102 960 l 277 960 l 277 242 m 226 -34 q 271 -31 250 -31 q 406 -68 363 -31 q 448 -155 448 -106 q 400 -246 448 -207 q 249 -286 352 -286 q 154 -277 206 -286 l 161 -191 q 220 -194 191 -194 q 327 -156 327 -194 q 248 -124 327 -124 q 226 -125 238 -124 l 226 -34 z "},"Ľ":{"ha":1019,"x_min":88,"x_max":932,"o":"m 264 208 q 283 161 264 180 q 330 141 302 141 l 931 141 l 931 0 l 262 0 q 139 51 190 0 q 88 174 88 102 l 88 960 l 264 960 l 264 208 m 932 817 q 877 663 928 727 l 789 663 q 829 780 829 731 q 828 817 829 785 l 746 817 l 746 960 l 932 960 l 932 817 z "},"ľ":{"ha":532,"x_min":102,"x_max":525,"o":"m 277 242 q 313 157 277 192 q 399 121 349 121 l 511 121 l 511 0 l 331 0 q 169 67 236 0 q 102 229 102 134 l 102 960 l 277 960 l 277 242 m 525 817 q 470 663 522 727 l 382 663 q 422 780 422 731 q 421 817 422 785 l 339 817 l 339 960 l 525 960 l 525 817 z "},"Ŀ":{"ha":1019,"x_min":88,"x_max":947,"o":"m 264 208 q 283 161 264 180 q 330 141 302 141 l 931 141 l 931 0 l 262 0 q 139 51 190 0 q 88 174 88 102 l 88 960 l 264 960 l 264 208 m 798 555 l 948 555 l 948 434 l 798 434 l 798 555 z "},"ŀ":{"ha":582,"x_min":102,"x_max":580,"o":"m 277 242 q 313 157 277 192 q 399 121 349 121 l 511 121 l 511 0 l 331 0 q 169 67 236 0 q 102 229 102 134 l 102 960 l 277 960 l 277 242 m 430 555 l 580 555 l 580 434 l 430 434 l 430 555 z "},"Ł":{"ha":994,"x_min":7,"x_max":973,"o":"m 306 503 l 306 208 q 325 161 306 180 q 372 141 345 141 l 973 141 l 973 0 l 304 0 q 181 51 232 0 q 130 174 130 102 l 130 389 l 7 309 l 7 451 l 130 531 l 130 960 l 306 960 l 306 645 l 490 764 l 490 622 l 306 503 z "},"ł":{"ha":560,"x_min":7,"x_max":553,"o":"m 319 511 l 319 229 q 355 143 319 178 q 441 107 391 107 l 553 107 l 553 0 l 373 0 q 211 67 278 0 q 144 229 144 134 l 144 398 l 7 309 l 7 451 l 144 540 l 144 960 l 319 960 l 319 653 l 490 764 l 490 622 l 319 511 z "},"Ń":{"ha":1265,"x_min":88,"x_max":1177,"o":"m 878 960 q 1089 872 1001 960 q 1177 661 1177 785 l 1177 1 l 1001 1 l 1001 627 q 945 762 1001 706 q 810 819 889 819 l 455 819 q 320 762 376 819 q 264 627 264 706 l 264 0 l 88 0 l 88 661 q 176 872 88 785 q 387 960 264 960 l 878 960 m 468 1007 l 590 1204 l 827 1204 l 644 1007 l 468 1007 z "},"ń":{"ha":1158,"x_min":88,"x_max":1070,"o":"m 842 661 q 1003 594 936 661 q 1070 433 1070 527 l 1070 0 l 895 0 l 895 419 q 859 505 895 469 q 774 540 824 540 l 429 540 q 312 492 360 540 q 264 376 264 444 l 264 0 l 88 0 l 88 406 l 89 406 q 174 587 95 513 q 361 661 252 661 l 842 661 m 414 709 l 536 906 l 773 906 l 590 709 l 414 709 z "},"Ņ":{"ha":1265,"x_min":88,"x_max":1177,"o":"m 878 960 q 1089 872 1001 960 q 1177 661 1177 785 l 1177 1 l 1001 1 l 1001 627 q 945 762 1001 706 q 810 819 889 819 l 455 819 q 320 762 376 819 q 264 627 264 706 l 264 0 l 88 0 l 88 661 q 176 872 88 785 q 387 960 264 960 l 878 960 m 551 -34 q 596 -31 575 -31 q 731 -68 689 -31 q 773 -155 773 -106 q 725 -246 773 -207 q 574 -286 677 -286 q 479 -277 532 -286 l 487 -191 q 546 -194 517 -194 q 652 -156 652 -194 q 573 -124 652 -124 q 551 -125 564 -124 l 551 -34 z "},"ņ":{"ha":1158,"x_min":88,"x_max":1070,"o":"m 842 661 q 1003 594 936 661 q 1070 433 1070 527 l 1070 0 l 895 0 l 895 419 q 859 505 895 469 q 774 540 824 540 l 429 540 q 312 492 360 540 q 264 376 264 444 l 264 0 l 88 0 l 88 406 l 89 406 q 174 587 95 513 q 361 661 252 661 l 842 661 m 484 -34 q 528 -31 507 -31 q 663 -68 621 -31 q 705 -155 705 -106 q 657 -246 705 -207 q 507 -286 610 -286 q 412 -277 464 -286 l 419 -191 q 478 -194 449 -194 q 585 -156 585 -194 q 505 -124 585 -124 q 484 -125 496 -124 l 484 -34 z "},"Ň":{"ha":1265,"x_min":88,"x_max":1177,"o":"m 878 960 q 1089 872 1001 960 q 1177 661 1177 785 l 1177 1 l 1001 1 l 1001 627 q 945 762 1001 706 q 810 819 889 819 l 455 819 q 320 762 376 819 q 264 627 264 706 l 264 0 l 88 0 l 88 661 q 176 872 88 785 q 387 960 264 960 l 878 960 m 547 1007 l 371 1204 l 553 1204 l 633 1104 l 712 1204 l 895 1204 l 718 1007 l 547 1007 z "},"ň":{"ha":1158,"x_min":88,"x_max":1070,"o":"m 842 661 q 1003 594 936 661 q 1070 433 1070 527 l 1070 0 l 895 0 l 895 419 q 859 505 895 469 q 774 540 824 540 l 429 540 q 312 492 360 540 q 264 376 264 444 l 264 0 l 88 0 l 88 406 l 89 406 q 174 587 95 513 q 361 661 252 661 l 842 661 m 494 709 l 317 906 l 500 906 l 579 806 l 659 906 l 841 906 l 665 709 l 494 709 z "},"ŉ":{"ha":1289,"x_min":16,"x_max":1220,"o":"m 991 661 q 1153 594 1086 661 q 1220 433 1220 527 l 1220 0 l 1044 0 l 1044 419 q 1009 505 1044 469 q 924 540 974 540 l 578 540 q 462 492 510 540 q 414 376 414 444 l 414 0 l 238 0 l 238 406 l 239 406 q 323 587 245 513 q 511 661 402 661 l 991 661 m 201 519 q 146 365 198 429 l 59 365 q 98 481 98 433 q 98 519 98 487 l 16 519 l 16 661 l 201 661 l 201 519 z "},"Ŋ":{"ha":1040,"x_min":68,"x_max":972,"o":"m 502 128 q 601 105 556 105 q 737 151 689 101 q 785 248 772 189 q 800 396 791 278 l 800 397 l 800 638 q 742 778 800 720 q 602 836 684 836 l 437 836 q 299 779 357 836 q 239 641 241 722 l 239 0 l 68 0 l 68 960 l 226 960 l 226 888 l 270 916 q 424 960 340 960 l 684 960 q 887 876 802 960 q 972 672 972 791 l 972 385 q 920 113 965 188 q 679 1 858 9 q 650 0 665 0 q 502 16 583 0 l 502 128 z "},"ŋ":{"ha":805,"x_min":68,"x_max":737,"o":"m 557 -37 q 559 440 558 37 q 526 518 559 486 q 448 551 494 551 l 350 551 q 272 519 304 551 q 239 441 240 487 l 239 1 l 68 1 l 68 661 l 239 661 l 239 629 q 350 661 290 661 l 516 661 q 676 600 615 661 q 737 454 737 539 l 737 -1 q 700 -189 734 -132 q 528 -271 654 -265 q 505 -271 515 -271 q 380 -258 439 -271 l 379 -181 q 444 -189 419 -189 q 538 -148 510 -189 q 557 -37 557 -119 z "},"Ō":{"ha":1265,"x_min":88,"x_max":1177,"o":"m 878 960 q 1089 872 1001 960 q 1177 661 1177 785 l 1177 298 q 1089 87 1177 175 q 878 0 1001 0 l 387 0 q 176 87 264 0 q 88 298 88 175 l 88 661 q 176 872 88 785 q 387 960 264 960 l 878 960 m 1001 627 q 945 762 1001 706 q 810 819 889 819 l 455 819 q 320 762 376 819 q 264 627 264 706 l 264 332 q 320 197 264 254 q 455 141 376 141 l 810 141 q 945 197 889 141 q 1001 332 1001 254 l 1001 627 m 406 1177 l 859 1177 l 859 1042 l 406 1042 l 406 1177 z "},"ō":{"ha":1158,"x_min":88,"x_max":1070,"o":"m 844 661 q 1004 595 937 661 q 1070 435 1070 528 l 1070 227 q 1004 66 1070 133 q 844 0 937 0 l 315 0 q 155 66 221 0 q 88 227 88 133 l 88 435 q 155 595 88 528 q 315 661 221 661 l 844 661 m 895 421 q 860 505 895 471 q 776 540 825 540 l 382 540 q 298 505 333 540 q 263 421 263 471 l 263 240 q 298 156 263 191 q 382 121 333 121 l 776 121 q 860 156 825 121 q 895 240 895 191 l 895 421 m 353 878 l 806 878 l 806 743 l 353 743 l 353 878 z "},"Ŏ":{"ha":1265,"x_min":88,"x_max":1177,"o":"m 878 960 q 1089 872 1001 960 q 1177 661 1177 785 l 1177 298 q 1089 87 1177 175 q 878 0 1001 0 l 387 0 q 176 87 264 0 q 88 298 88 175 l 88 661 q 176 872 88 785 q 387 960 264 960 l 878 960 m 1001 627 q 945 762 1001 706 q 810 819 889 819 l 455 819 q 320 762 376 819 q 264 627 264 706 l 264 332 q 320 197 264 254 q 455 141 376 141 l 810 141 q 945 197 889 141 q 1001 332 1001 254 l 1001 627 m 633 1027 q 364 1191 473 1027 l 526 1191 q 633 1144 566 1144 q 739 1191 700 1144 l 901 1191 q 633 1027 793 1027 z "},"ŏ":{"ha":1158,"x_min":88,"x_max":1070,"o":"m 844 661 q 1004 595 937 661 q 1070 435 1070 528 l 1070 227 q 1004 66 1070 133 q 844 0 937 0 l 315 0 q 155 66 221 0 q 88 227 88 133 l 88 435 q 155 595 88 528 q 315 661 221 661 l 844 661 m 895 421 q 860 505 895 471 q 776 540 825 540 l 382 540 q 298 505 333 540 q 263 421 263 471 l 263 240 q 298 156 263 191 q 382 121 333 121 l 776 121 q 860 156 825 121 q 895 240 895 191 l 895 421 m 579 729 q 311 892 419 729 l 473 892 q 579 846 513 846 q 686 892 646 846 l 848 892 q 579 729 739 729 z "},"Ő":{"ha":1265,"x_min":88,"x_max":1177,"o":"m 878 960 q 1089 872 1001 960 q 1177 661 1177 785 l 1177 298 q 1089 87 1177 175 q 878 0 1001 0 l 387 0 q 176 87 264 0 q 88 298 88 175 l 88 661 q 176 872 88 785 q 387 960 264 960 l 878 960 m 1001 627 q 945 762 1001 706 q 810 819 889 819 l 455 819 q 320 762 376 819 q 264 627 264 706 l 264 332 q 320 197 264 254 q 455 141 376 141 l 810 141 q 945 197 889 141 q 1001 332 1001 254 l 1001 627 m 335 1007 l 457 1204 l 694 1204 l 511 1007 l 335 1007 m 640 1007 l 762 1204 l 998 1204 l 815 1007 l 640 1007 z "},"ő":{"ha":1158,"x_min":88,"x_max":1070,"o":"m 844 661 q 1004 595 937 661 q 1070 435 1070 528 l 1070 227 q 1004 66 1070 133 q 844 0 937 0 l 315 0 q 155 66 221 0 q 88 227 88 133 l 88 435 q 155 595 88 528 q 315 661 221 661 l 844 661 m 895 421 q 860 505 895 471 q 776 540 825 540 l 382 540 q 298 505 333 540 q 263 421 263 471 l 263 240 q 298 156 263 191 q 382 121 333 121 l 776 121 q 860 156 825 121 q 895 240 895 191 l 895 421 m 281 709 l 404 906 l 640 906 l 457 709 l 281 709 m 586 709 l 708 906 l 945 906 l 762 709 l 586 709 z "},"Œ":{"ha":1946,"x_min":88,"x_max":1912,"o":"m 1001 627 q 945 762 1001 706 q 810 819 889 819 l 455 819 q 320 762 376 819 q 264 627 264 706 l 264 332 q 320 197 264 254 q 455 141 376 141 l 810 141 q 945 197 889 141 q 1001 332 1001 254 l 1001 627 m 1002 26 q 878 0 945 0 l 387 0 q 176 87 264 0 q 88 298 88 175 l 88 661 q 176 872 88 785 q 387 960 264 960 l 878 960 q 1050 906 975 960 q 1053 909 1051 907 q 1175 960 1103 960 l 1912 960 l 1912 819 l 1243 819 q 1196 799 1216 819 q 1177 751 1177 779 l 1177 550 l 1912 550 l 1912 408 l 1177 408 l 1177 141 l 1912 141 l 1912 0 l 1002 0 l 1002 26 z "},"œ":{"ha":1944,"x_min":88,"x_max":1877,"o":"m 895 435 q 860 519 895 484 q 776 553 825 553 l 382 553 q 298 519 333 553 q 263 435 263 484 l 263 227 q 298 142 263 177 q 382 107 333 107 l 776 107 q 860 142 825 107 q 895 227 895 177 l 895 435 m 983 48 q 844 0 923 0 l 315 0 q 155 66 221 0 q 88 227 88 133 l 88 435 q 155 595 88 528 q 315 661 221 661 l 844 661 q 983 613 923 661 q 1124 661 1044 661 l 1605 661 q 1797 581 1717 661 q 1877 389 1877 502 l 1877 300 l 1070 300 l 1070 229 q 1106 143 1070 178 q 1192 107 1141 107 l 1876 107 l 1876 0 l 1124 0 q 983 48 1044 0 m 1070 408 l 1700 408 q 1647 511 1693 469 q 1537 553 1600 553 l 1192 553 q 1106 518 1141 553 q 1070 433 1070 483 l 1070 408 z "},"Ŕ":{"ha":1265,"x_min":88,"x_max":1177,"o":"m 1051 478 q 1177 235 1177 388 l 1177 0 l 1001 0 l 1001 201 q 945 336 1001 280 q 810 393 888 393 l 264 393 l 264 0 l 88 0 l 88 792 q 139 909 88 858 q 262 960 191 960 l 878 960 q 1099 872 1016 960 q 1174 693 1174 800 q 1051 478 1174 557 m 810 534 q 951 572 900 534 q 999 693 999 613 q 953 785 999 752 q 810 819 901 819 l 330 819 q 283 799 302 819 q 264 758 264 779 l 264 534 l 810 534 m 468 1007 l 590 1204 l 827 1204 l 644 1007 l 468 1007 z "},"ŕ":{"ha":904,"x_min":88,"x_max":877,"o":"m 88 435 q 155 595 88 528 q 315 661 221 661 l 877 661 l 877 540 l 382 540 q 298 505 334 540 q 264 421 264 471 l 264 0 l 88 0 l 88 435 m 328 709 l 450 906 l 687 906 l 504 709 l 328 709 z "},"Ŗ":{"ha":1265,"x_min":88,"x_max":1177,"o":"m 1051 478 q 1177 235 1177 388 l 1177 0 l 1001 0 l 1001 201 q 945 336 1001 280 q 810 393 888 393 l 264 393 l 264 0 l 88 0 l 88 792 q 139 909 88 858 q 262 960 191 960 l 878 960 q 1099 872 1016 960 q 1174 693 1174 800 q 1051 478 1174 557 m 810 534 q 951 572 900 534 q 999 693 999 613 q 953 785 999 752 q 810 819 901 819 l 330 819 q 283 799 302 819 q 264 758 264 779 l 264 534 l 810 534 m 553 -34 q 598 -31 577 -31 q 733 -68 691 -31 q 775 -155 775 -106 q 727 -246 775 -207 q 576 -286 680 -286 q 481 -277 534 -286 l 489 -191 q 548 -194 519 -194 q 654 -156 654 -194 q 575 -124 654 -124 q 553 -125 566 -124 l 553 -34 z "},"ŗ":{"ha":904,"x_min":88,"x_max":877,"o":"m 88 435 q 155 595 88 528 q 315 661 221 661 l 877 661 l 877 540 l 382 540 q 298 505 334 540 q 264 421 264 471 l 264 0 l 88 0 l 88 435 m 436 -34 q 481 -31 460 -31 q 616 -68 574 -31 q 658 -155 658 -106 q 610 -246 658 -207 q 459 -286 562 -286 q 364 -277 416 -286 l 372 -191 q 431 -194 401 -194 q 537 -156 537 -194 q 458 -124 537 -124 q 436 -125 448 -124 l 436 -34 z "},"Ř":{"ha":1265,"x_min":88,"x_max":1177,"o":"m 1051 478 q 1177 235 1177 388 l 1177 0 l 1001 0 l 1001 201 q 945 336 1001 280 q 810 393 888 393 l 264 393 l 264 0 l 88 0 l 88 792 q 139 909 88 858 q 262 960 191 960 l 878 960 q 1099 872 1016 960 q 1174 693 1174 800 q 1051 478 1174 557 m 810 534 q 951 572 900 534 q 999 693 999 613 q 953 785 999 752 q 810 819 901 819 l 330 819 q 283 799 302 819 q 264 758 264 779 l 264 534 l 810 534 m 547 1007 l 371 1204 l 553 1204 l 633 1104 l 712 1204 l 895 1204 l 718 1007 l 547 1007 z "},"ř":{"ha":904,"x_min":88,"x_max":877,"o":"m 88 435 q 155 595 88 528 q 315 661 221 661 l 877 661 l 877 540 l 382 540 q 298 505 334 540 q 264 421 264 471 l 264 0 l 88 0 l 88 435 m 408 709 l 231 906 l 414 906 l 493 806 l 572 906 l 755 906 l 578 709 l 408 709 z "},"Ś":{"ha":1156,"x_min":88,"x_max":1067,"o":"m 887 549 q 1015 496 962 549 q 1067 368 1067 443 l 1067 180 q 1015 53 1067 106 q 887 0 962 0 l 88 0 l 88 141 l 819 141 q 871 163 849 141 q 892 214 892 184 l 892 334 q 871 386 892 365 q 819 408 849 408 l 262 408 q 139 458 190 408 q 88 581 88 509 l 88 785 q 139 908 88 857 q 262 959 190 959 l 1067 959 l 1067 819 l 330 819 q 283 799 302 819 q 263 752 263 780 l 263 615 q 283 568 263 588 q 330 549 302 549 l 887 549 m 413 1007 l 535 1204 l 772 1204 l 589 1007 l 413 1007 z "},"ś":{"ha":1156,"x_min":88,"x_max":1068,"o":"m 843 393 q 1011 331 948 393 q 1068 196 1068 275 q 1011 61 1068 117 q 843 0 947 0 l 88 0 l 88 121 l 775 121 q 864 149 832 121 q 892 196 892 173 q 864 243 892 219 q 775 271 832 271 l 314 271 q 146 330 209 271 q 88 473 88 384 q 146 602 88 549 q 314 661 209 661 l 977 661 l 977 540 l 382 540 q 292 515 324 540 q 264 466 264 492 q 292 418 264 440 q 382 393 324 393 l 843 393 m 414 709 l 536 906 l 772 906 l 589 709 l 414 709 z "},"Ŝ":{"ha":1156,"x_min":88,"x_max":1067,"o":"m 887 549 q 1015 496 962 549 q 1067 368 1067 443 l 1067 180 q 1015 53 1067 106 q 887 0 962 0 l 88 0 l 88 141 l 819 141 q 871 163 849 141 q 892 214 892 184 l 892 334 q 871 386 892 365 q 819 408 849 408 l 262 408 q 139 458 190 408 q 88 581 88 509 l 88 785 q 139 908 88 857 q 262 959 190 959 l 1067 959 l 1067 819 l 330 819 q 283 799 302 819 q 263 752 263 780 l 263 615 q 283 568 263 588 q 330 549 302 549 l 887 549 m 663 1204 l 840 1007 l 657 1007 l 578 1107 l 498 1007 l 316 1007 l 492 1204 l 663 1204 z "},"ŝ":{"ha":1156,"x_min":88,"x_max":1068,"o":"m 843 393 q 1011 331 948 393 q 1068 196 1068 275 q 1011 61 1068 117 q 843 0 947 0 l 88 0 l 88 121 l 775 121 q 864 149 832 121 q 892 196 892 173 q 864 243 892 219 q 775 271 832 271 l 314 271 q 146 330 209 271 q 88 473 88 384 q 146 602 88 549 q 314 661 209 661 l 977 661 l 977 540 l 382 540 q 292 515 324 540 q 264 466 264 492 q 292 418 264 440 q 382 393 324 393 l 843 393 m 664 906 l 840 709 l 658 709 l 578 809 l 499 709 l 317 709 l 493 906 l 664 906 z "},"Ş":{"ha":1156,"x_min":88,"x_max":1067,"o":"m 887 549 q 1015 496 962 549 q 1067 368 1067 443 l 1067 180 q 1015 53 1067 106 q 887 0 962 0 l 88 0 l 88 141 l 819 141 q 871 163 849 141 q 892 214 892 184 l 892 334 q 871 386 892 365 q 819 408 849 408 l 262 408 q 139 458 190 408 q 88 581 88 509 l 88 785 q 139 908 88 857 q 262 959 190 959 l 1067 959 l 1067 819 l 330 819 q 283 799 302 819 q 263 752 263 780 l 263 615 q 283 568 263 588 q 330 549 302 549 l 887 549 m 614 0 l 597 -66 q 683 -83 661 -66 q 727 -179 727 -117 q 692 -263 727 -228 q 607 -299 657 -299 l 429 -299 l 429 -207 l 573 -207 q 608 -179 608 -207 q 596 -149 608 -159 q 574 -143 588 -143 l 509 -143 q 480 -131 493 -143 q 467 -102 467 -119 q 469 -90 467 -96 l 492 0 l 614 0 z "},"ş":{"ha":1156,"x_min":88,"x_max":1068,"o":"m 843 393 q 1011 331 948 393 q 1068 196 1068 275 q 1011 61 1068 117 q 843 0 947 0 l 88 0 l 88 121 l 775 121 q 864 149 832 121 q 892 196 892 173 q 864 243 892 219 q 775 271 832 271 l 314 271 q 146 330 209 271 q 88 473 88 384 q 146 602 88 549 q 314 661 209 661 l 977 661 l 977 540 l 382 540 q 292 515 324 540 q 264 466 264 492 q 292 418 264 440 q 382 393 324 393 l 843 393 m 614 0 l 597 -66 q 683 -83 661 -66 q 727 -179 727 -117 q 692 -263 727 -228 q 607 -299 657 -299 l 429 -299 l 429 -207 l 573 -207 q 608 -179 608 -207 q 596 -149 608 -159 q 574 -143 588 -143 l 509 -143 q 480 -131 493 -143 q 467 -102 467 -119 q 469 -90 467 -96 l 492 0 l 614 0 z "},"Š":{"ha":1156,"x_min":88,"x_max":1067,"o":"m 887 549 q 1015 496 962 549 q 1067 368 1067 443 l 1067 180 q 1015 53 1067 106 q 887 0 962 0 l 88 0 l 88 141 l 819 141 q 871 163 849 141 q 892 214 892 184 l 892 334 q 871 386 892 365 q 819 408 849 408 l 262 408 q 139 458 190 408 q 88 581 88 509 l 88 785 q 139 908 88 857 q 262 959 190 959 l 1067 959 l 1067 819 l 330 819 q 283 799 302 819 q 263 752 263 780 l 263 615 q 283 568 263 588 q 330 549 302 549 l 887 549 m 492 1007 l 316 1204 l 498 1204 l 578 1104 l 657 1204 l 840 1204 l 663 1007 l 492 1007 z "},"š":{"ha":1156,"x_min":88,"x_max":1068,"o":"m 843 393 q 1011 331 948 393 q 1068 196 1068 275 q 1011 61 1068 117 q 843 0 947 0 l 88 0 l 88 121 l 775 121 q 864 149 832 121 q 892 196 892 173 q 864 243 892 219 q 775 271 832 271 l 314 271 q 146 330 209 271 q 88 473 88 384 q 146 602 88 549 q 314 661 209 661 l 977 661 l 977 540 l 382 540 q 292 515 324 540 q 264 466 264 492 q 292 418 264 440 q 382 393 324 393 l 843 393 m 493 709 l 317 906 l 499 906 l 578 806 l 658 906 l 840 906 l 664 709 l 493 709 z "},"Ţ":{"ha":1095,"x_min":88,"x_max":1006,"o":"m 88 960 l 1006 960 l 1006 819 l 635 819 l 635 0 l 466 0 l 466 819 l 88 819 l 88 960 m 613 0 l 596 -66 q 682 -83 659 -66 q 726 -179 726 -117 q 691 -263 726 -228 q 606 -299 656 -299 l 428 -299 l 428 -207 l 572 -207 q 606 -179 606 -207 q 595 -149 606 -159 q 573 -143 587 -143 l 508 -143 q 479 -131 492 -143 q 466 -102 466 -119 q 468 -90 466 -96 l 491 0 l 613 0 z "},"ţ":{"ha":635,"x_min":88,"x_max":660,"o":"m 380 661 l 547 661 l 547 540 l 380 540 l 380 229 q 416 143 380 178 q 501 107 452 107 l 614 107 l 614 0 l 433 0 q 272 67 339 0 q 205 229 205 134 l 205 540 l 88 540 l 88 661 l 205 661 l 205 960 l 380 960 l 380 661 m 547 0 l 530 -66 q 616 -83 593 -66 q 660 -179 660 -117 q 625 -263 660 -228 q 540 -299 590 -299 l 362 -299 l 362 -207 l 506 -207 q 541 -179 541 -207 q 529 -149 541 -159 q 507 -143 521 -143 l 442 -143 q 413 -131 426 -143 q 400 -102 400 -119 q 402 -90 400 -96 l 425 0 l 547 0 z "},"Ť":{"ha":1095,"x_min":88,"x_max":1006,"o":"m 88 960 l 1006 960 l 1006 819 l 635 819 l 635 0 l 466 0 l 466 819 l 88 819 l 88 960 m 462 1007 l 286 1204 l 468 1204 l 547 1104 l 627 1204 l 809 1204 l 633 1007 l 462 1007 z "},"ť":{"ha":739,"x_min":88,"x_max":727,"o":"m 380 661 l 547 661 l 547 540 l 380 540 l 380 229 q 416 143 380 178 q 501 107 452 107 l 614 107 l 614 0 l 433 0 q 272 67 339 0 q 205 229 205 134 l 205 540 l 88 540 l 88 661 l 205 661 l 205 960 l 380 960 l 380 661 m 727 817 q 672 663 724 727 l 585 663 q 624 780 624 731 q 623 817 624 785 l 541 817 l 541 960 l 727 960 l 727 817 z "},"Ŧ":{"ha":959,"x_min":20,"x_max":939,"o":"m 398 551 l 398 819 l 20 819 l 20 960 l 939 960 l 939 819 l 567 819 l 567 551 l 884 551 l 884 409 l 567 409 l 567 0 l 398 0 l 398 409 l 76 409 l 76 551 l 398 551 z "},"ŧ":{"ha":567,"x_min":20,"x_max":547,"o":"m 137 459 l 137 553 l 20 553 l 20 661 l 137 661 l 137 960 l 313 960 l 313 661 l 547 661 l 547 553 l 313 553 l 313 459 l 545 459 l 545 351 l 313 351 l 313 229 q 348 143 313 178 q 433 107 384 107 l 547 107 l 547 0 l 366 0 q 204 67 271 0 q 137 229 137 134 l 137 351 l 22 351 l 22 459 l 137 459 z "},"Ũ":{"ha":1265,"x_min":88,"x_max":1177,"o":"m 1001 960 l 1177 960 l 1177 298 q 1089 87 1177 175 q 878 0 1001 0 l 387 0 q 176 87 264 0 q 88 298 88 175 l 88 960 l 264 960 l 264 332 q 320 197 264 254 q 455 141 376 141 l 810 141 q 945 197 889 141 q 1001 332 1001 254 l 1001 960 m 485 1054 l 369 1054 q 502 1229 387 1228 l 505 1229 q 618 1204 547 1229 q 726 1179 686 1179 l 732 1179 q 745 1179 739 1179 q 789 1227 785 1179 l 897 1227 q 734 1051 884 1051 l 726 1051 q 584 1081 669 1051 q 522 1101 541 1101 l 517 1101 q 485 1054 497 1101 z "},"ũ":{"ha":1158,"x_min":88,"x_max":1070,"o":"m 895 661 l 1070 661 l 1070 227 q 1004 66 1070 133 q 844 0 937 0 l 315 0 q 155 66 221 0 q 88 227 88 133 l 88 661 l 264 661 l 264 240 q 298 156 264 191 q 382 121 334 121 l 776 121 q 860 156 825 121 q 895 240 895 191 l 895 661 m 431 755 l 315 755 q 448 930 334 930 l 452 930 q 564 905 494 930 q 672 881 633 881 l 678 881 q 691 880 685 880 q 736 929 731 880 l 843 929 q 681 753 831 753 l 673 753 q 530 783 615 753 q 469 803 488 803 l 464 803 q 431 755 444 803 z "},"Ū":{"ha":1265,"x_min":88,"x_max":1177,"o":"m 1001 960 l 1177 960 l 1177 298 q 1089 87 1177 175 q 878 0 1001 0 l 387 0 q 176 87 264 0 q 88 298 88 175 l 88 960 l 264 960 l 264 332 q 320 197 264 254 q 455 141 376 141 l 810 141 q 945 197 889 141 q 1001 332 1001 254 l 1001 960 m 406 1177 l 859 1177 l 859 1042 l 406 1042 l 406 1177 z "},"ū":{"ha":1158,"x_min":88,"x_max":1070,"o":"m 895 661 l 1070 661 l 1070 227 q 1004 66 1070 133 q 844 0 937 0 l 315 0 q 155 66 221 0 q 88 227 88 133 l 88 661 l 264 661 l 264 240 q 298 156 264 191 q 382 121 334 121 l 776 121 q 860 156 825 121 q 895 240 895 191 l 895 661 m 353 878 l 806 878 l 806 743 l 353 743 l 353 878 z "},"Ŭ":{"ha":1265,"x_min":88,"x_max":1177,"o":"m 1001 960 l 1177 960 l 1177 298 q 1089 87 1177 175 q 878 0 1001 0 l 387 0 q 176 87 264 0 q 88 298 88 175 l 88 960 l 264 960 l 264 332 q 320 197 264 254 q 455 141 376 141 l 810 141 q 945 197 889 141 q 1001 332 1001 254 l 1001 960 m 633 1027 q 364 1191 473 1027 l 526 1191 q 633 1144 566 1144 q 739 1191 700 1144 l 901 1191 q 633 1027 793 1027 z "},"ŭ":{"ha":1158,"x_min":88,"x_max":1070,"o":"m 895 661 l 1070 661 l 1070 227 q 1004 66 1070 133 q 844 0 937 0 l 315 0 q 155 66 221 0 q 88 227 88 133 l 88 661 l 264 661 l 264 240 q 298 156 264 191 q 382 121 334 121 l 776 121 q 860 156 825 121 q 895 240 895 191 l 895 661 m 579 729 q 311 892 419 729 l 473 892 q 579 846 513 846 q 686 892 646 846 l 848 892 q 579 729 739 729 z "},"Ů":{"ha":1265,"x_min":88,"x_max":1177,"o":"m 1001 960 l 1177 960 l 1177 298 q 1089 87 1177 175 q 878 0 1001 0 l 387 0 q 176 87 264 0 q 88 298 88 175 l 88 960 l 264 960 l 264 332 q 320 197 264 254 q 455 141 376 141 l 810 141 q 945 197 889 141 q 1001 332 1001 254 l 1001 960 m 633 1259 q 737 1216 694 1259 q 780 1112 780 1173 q 737 1007 780 1050 q 633 964 694 964 q 529 1007 572 964 q 486 1112 486 1050 q 529 1216 486 1173 q 633 1259 572 1259 m 633 1177 q 587 1158 606 1177 q 568 1112 568 1139 q 587 1066 568 1085 q 633 1046 606 1046 q 679 1066 659 1046 q 698 1112 698 1085 q 679 1158 698 1139 q 633 1177 659 1177 z "},"ů":{"ha":1158,"x_min":88,"x_max":1070,"o":"m 895 661 l 1070 661 l 1070 227 q 1004 66 1070 133 q 844 0 937 0 l 315 0 q 155 66 221 0 q 88 227 88 133 l 88 661 l 264 661 l 264 240 q 298 156 264 191 q 382 121 334 121 l 776 121 q 860 156 825 121 q 895 240 895 191 l 895 661 m 579 960 q 683 917 640 960 q 726 813 726 874 q 683 709 726 752 q 579 666 640 666 q 475 709 518 666 q 432 813 432 752 q 475 917 432 874 q 579 960 518 960 m 579 878 q 533 859 552 878 q 514 813 514 840 q 533 767 514 787 q 579 748 552 748 q 625 767 606 748 q 644 813 644 787 q 625 859 644 840 q 579 878 606 878 z "},"Ű":{"ha":1265,"x_min":88,"x_max":1177,"o":"m 1001 960 l 1177 960 l 1177 298 q 1089 87 1177 175 q 878 0 1001 0 l 387 0 q 176 87 264 0 q 88 298 88 175 l 88 960 l 264 960 l 264 332 q 320 197 264 254 q 455 141 376 141 l 810 141 q 945 197 889 141 q 1001 332 1001 254 l 1001 960 m 267 1007 l 389 1204 l 626 1204 l 443 1007 l 267 1007 m 572 1007 l 694 1204 l 930 1204 l 747 1007 l 572 1007 z "},"ű":{"ha":1158,"x_min":88,"x_max":1070,"o":"m 895 661 l 1070 661 l 1070 227 q 1004 66 1070 133 q 844 0 937 0 l 315 0 q 155 66 221 0 q 88 227 88 133 l 88 661 l 264 661 l 264 240 q 298 156 264 191 q 382 121 334 121 l 776 121 q 860 156 825 121 q 895 240 895 191 l 895 661 m 281 709 l 404 906 l 640 906 l 457 709 l 281 709 m 586 709 l 708 906 l 945 906 l 762 709 l 586 709 z "},"Ų":{"ha":1265,"x_min":88,"x_max":1177,"o":"m 1001 960 l 1177 960 l 1177 298 q 1089 87 1177 175 q 878 0 1001 0 l 387 0 q 176 87 264 0 q 88 298 88 175 l 88 960 l 264 960 l 264 332 q 320 197 264 254 q 455 141 376 141 l 810 141 q 945 197 889 141 q 1001 332 1001 254 l 1001 960 m 747 0 q 696 -66 720 -24 q 672 -152 672 -109 q 681 -200 672 -178 q 706 -240 689 -222 q 756 -267 724 -257 q 878 -277 788 -277 q 945 -261 928 -273 l 945 -186 q 911 -195 923 -192 q 883 -197 899 -197 q 841 -176 854 -197 q 831 -135 831 -160 q 833 -114 831 -125 q 860 -51 840 -78 q 905 0 880 -24 l 747 0 z "},"ų":{"ha":1158,"x_min":88,"x_max":1070,"o":"m 895 661 l 1070 661 l 1070 227 q 1004 66 1070 133 q 844 0 937 0 l 315 0 q 155 66 221 0 q 88 227 88 133 l 88 661 l 264 661 l 264 227 q 298 142 264 177 q 382 107 334 107 l 776 107 q 860 142 825 107 q 895 227 895 177 l 895 661 m 986 50 q 941 -1 961 26 q 914 -64 922 -28 q 913 -85 913 -75 q 922 -125 913 -110 q 964 -147 936 -147 q 992 -144 980 -147 q 1026 -136 1004 -142 l 1026 -211 q 959 -227 1009 -222 q 837 -217 869 -227 q 788 -190 805 -207 q 762 -150 770 -172 q 753 -102 753 -127 q 778 -16 753 -58 q 829 50 802 26 l 986 50 z "},"Ŵ":{"ha":1787,"x_min":88,"x_max":1699,"o":"m 1523 960 l 1699 960 l 1699 298 q 1611 87 1699 175 q 1400 0 1524 0 l 1139 0 q 893 128 983 0 q 648 0 804 0 l 387 0 q 176 87 263 0 q 88 298 88 175 l 88 960 l 263 960 l 263 332 q 319 197 263 254 q 454 141 376 141 l 614 141 q 749 197 694 141 q 806 332 806 254 l 806 960 l 981 960 l 981 332 q 1038 197 981 254 q 1173 141 1093 141 l 1332 141 q 1468 197 1411 141 q 1523 332 1523 254 l 1523 960 m 979 1204 l 1156 1007 l 973 1007 l 894 1107 l 814 1007 l 632 1007 l 808 1204 l 979 1204 z "},"ŵ":{"ha":1421,"x_min":88,"x_max":1333,"o":"m 1158 661 l 1333 661 l 1333 298 q 1245 87 1333 175 q 1034 0 1158 0 l 956 0 q 710 128 800 0 q 465 0 621 0 l 387 0 q 176 87 263 0 q 88 298 88 175 l 88 661 l 263 661 l 263 312 q 319 177 263 233 q 454 121 376 121 l 465 121 q 580 177 531 121 q 623 312 623 233 l 623 661 l 805 661 l 805 312 q 841 177 805 233 q 956 121 890 121 l 966 121 q 1101 177 1045 121 q 1158 312 1158 233 l 1158 661 m 796 906 l 972 709 l 790 709 l 711 809 l 631 709 l 449 709 l 625 906 l 796 906 z "},"Ŷ":{"ha":1265,"x_min":88,"x_max":1177,"o":"m 1001 960 l 1177 960 l 1177 298 q 1088 87 1177 175 q 878 0 1001 0 l 88 0 l 88 141 l 810 141 q 945 197 888 141 q 1001 332 1001 254 l 1001 458 q 810 389 918 389 l 387 389 q 176 477 263 389 q 88 742 88 564 l 88 960 l 264 960 l 264 777 q 319 587 264 644 q 455 531 376 531 l 810 531 q 945 587 888 531 q 1001 777 1001 644 l 1001 960 m 718 1204 l 895 1007 l 712 1007 l 633 1107 l 553 1007 l 371 1007 l 547 1204 l 718 1204 z "},"ŷ":{"ha":1100,"x_min":94,"x_max":1076,"o":"m 901 661 l 1076 661 l 1076 -69 q 1009 -231 1076 -164 q 848 -298 942 -298 l 148 -298 l 148 -177 l 780 -177 q 865 -141 829 -177 q 901 -56 901 -106 l 901 56 q 736 1 827 1 l 323 1 q 161 68 229 1 q 94 229 94 134 l 94 661 l 269 661 l 269 243 q 305 157 269 193 q 391 121 340 121 l 736 121 q 852 170 804 121 q 901 286 901 218 l 901 661 m 635 906 l 812 709 l 629 709 l 550 809 l 471 709 l 288 709 l 465 906 l 635 906 z "},"Ÿ":{"ha":1265,"x_min":88,"x_max":1177,"o":"m 1001 960 l 1177 960 l 1177 298 q 1088 87 1177 175 q 878 0 1001 0 l 88 0 l 88 141 l 810 141 q 945 197 888 141 q 1001 332 1001 254 l 1001 458 q 810 389 918 389 l 387 389 q 176 477 263 389 q 88 742 88 564 l 88 960 l 264 960 l 264 777 q 319 587 264 644 q 455 531 376 531 l 810 531 q 945 587 888 531 q 1001 777 1001 644 l 1001 960 m 675 1210 l 851 1210 l 851 1067 l 675 1067 l 675 1210 m 416 1210 l 593 1210 l 593 1067 l 416 1067 l 416 1210 z "},"Ź":{"ha":1181,"x_min":88,"x_max":1093,"o":"m 919 960 q 1045 918 997 960 q 1093 808 1093 876 l 1093 760 q 945 588 1093 668 l 341 269 q 264 186 264 228 q 330 141 264 142 l 1068 141 l 1068 0 l 262 0 q 136 41 184 0 q 88 150 88 83 l 88 199 q 134 306 88 261 q 223 364 161 332 l 827 684 q 918 774 918 732 q 851 819 915 819 l 113 819 l 113 960 l 919 960 m 426 1007 l 548 1204 l 785 1204 l 602 1007 l 426 1007 z "},"ź":{"ha":1111,"x_min":88,"x_max":1023,"o":"m 859 661 q 975 623 928 661 q 1023 530 1023 585 l 1023 527 q 878 395 1023 450 l 248 121 l 1000 121 l 1000 0 l 253 0 q 136 38 184 0 q 88 132 88 76 l 88 134 q 134 219 88 185 q 221 260 160 237 l 234 266 l 877 540 l 111 540 l 111 661 l 859 661 m 391 709 l 513 906 l 749 906 l 566 709 l 391 709 z "},"Ż":{"ha":1181,"x_min":88,"x_max":1093,"o":"m 919 960 q 1045 918 997 960 q 1093 808 1093 876 l 1093 760 q 945 588 1093 668 l 341 269 q 264 186 264 228 q 330 141 264 142 l 1068 141 l 1068 0 l 262 0 q 136 41 184 0 q 88 150 88 83 l 88 199 q 134 306 88 261 q 223 364 161 332 l 827 684 q 918 774 918 732 q 851 819 915 819 l 113 819 l 113 960 l 919 960 m 503 1204 l 679 1204 l 679 1061 l 503 1061 l 503 1204 z "},"ż":{"ha":1111,"x_min":88,"x_max":1023,"o":"m 859 661 q 975 623 928 661 q 1023 530 1023 585 l 1023 527 q 878 395 1023 450 l 248 121 l 1000 121 l 1000 0 l 253 0 q 136 38 184 0 q 88 132 88 76 l 88 134 q 134 219 88 185 q 221 260 160 237 l 234 266 l 877 540 l 111 540 l 111 661 l 859 661 m 467 905 l 644 905 l 644 763 l 467 763 l 467 905 z "},"Ž":{"ha":1181,"x_min":88,"x_max":1093,"o":"m 919 960 q 1045 918 997 960 q 1093 808 1093 876 l 1093 760 q 945 588 1093 668 l 341 269 q 264 186 264 228 q 330 141 264 142 l 1068 141 l 1068 0 l 262 0 q 136 41 184 0 q 88 150 88 83 l 88 199 q 134 306 88 261 q 223 364 161 332 l 827 684 q 918 774 918 732 q 851 819 915 819 l 113 819 l 113 960 l 919 960 m 505 1007 l 329 1204 l 511 1204 l 591 1104 l 670 1204 l 852 1204 l 676 1007 l 505 1007 z "},"ž":{"ha":1111,"x_min":88,"x_max":1023,"o":"m 859 661 q 975 623 928 661 q 1023 530 1023 585 l 1023 527 q 878 395 1023 450 l 248 121 l 1000 121 l 1000 0 l 253 0 q 136 38 184 0 q 88 132 88 76 l 88 134 q 134 219 88 185 q 221 260 160 237 l 234 266 l 877 540 l 111 540 l 111 661 l 859 661 m 470 709 l 294 906 l 476 906 l 555 806 l 635 906 l 817 906 l 641 709 l 470 709 z "},"ſ":{"ha":557,"x_min":88,"x_max":539,"o":"m 88 731 q 155 892 88 826 q 317 960 222 960 l 539 960 l 539 852 l 385 852 q 299 817 335 852 q 264 731 264 781 l 264 0 l 88 0 l 88 731 z "},"⁰":{"ha":842,"x_min":88,"x_max":753,"o":"m 545 960 q 692 899 631 960 q 753 750 753 837 l 753 497 q 692 349 753 410 q 545 288 631 288 l 298 288 q 149 349 211 288 q 88 497 88 410 l 88 750 q 149 899 88 837 q 298 960 211 960 l 545 960 m 678 750 q 640 845 678 806 q 545 884 600 884 l 298 884 q 203 845 242 884 q 163 750 163 806 l 163 497 q 203 402 163 441 q 298 363 242 363 l 545 363 q 640 402 600 363 q 678 497 678 441 l 678 750 z "},"ⁱ":{"ha":266,"x_min":95,"x_max":171,"o":"m 95 751 l 170 751 l 170 288 l 95 288 l 95 751 m 95 960 l 171 960 l 171 884 l 95 884 l 95 960 z "},"⁴":{"ha":1011,"x_min":88,"x_max":923,"o":"m 781 513 l 923 513 l 923 438 l 781 438 l 781 288 l 705 288 l 705 438 l 148 438 q 92 477 106 438 q 88 498 88 487 q 91 515 88 506 q 112 544 96 533 l 686 948 q 722 960 703 960 q 746 955 734 960 q 781 901 781 939 l 781 513 m 708 875 l 197 517 l 708 517 l 708 875 z "},"⁵":{"ha":863,"x_min":88,"x_max":774,"o":"m 774 884 l 163 884 l 163 673 l 652 673 q 739 637 703 673 q 774 551 774 602 l 774 410 q 739 323 774 359 q 652 288 703 288 l 88 288 l 88 363 l 652 363 q 685 376 671 363 q 699 410 699 391 l 699 551 q 685 584 699 570 q 652 597 671 597 l 88 597 l 88 960 l 774 960 l 774 884 z "},"⁶":{"ha":798,"x_min":88,"x_max":710,"o":"m 88 838 q 124 924 88 888 q 210 960 160 960 l 710 960 l 710 884 l 210 884 q 178 871 191 884 q 163 838 163 857 l 163 673 l 588 673 q 675 637 638 673 q 710 551 710 602 l 710 410 q 675 323 710 359 q 588 288 638 288 l 210 288 q 124 323 160 288 q 88 410 88 359 l 88 838 m 163 597 l 163 410 q 178 376 163 391 q 210 363 191 363 l 588 363 q 621 376 608 363 q 635 410 635 391 l 635 551 q 621 584 635 570 q 588 597 608 597 l 163 597 z "},"⁷":{"ha":842,"x_min":88,"x_max":754,"o":"m 692 981 q 745 952 728 981 q 754 922 754 937 q 743 888 754 905 l 312 294 l 251 338 l 662 906 l 88 906 l 88 981 l 692 981 z "},"⁸":{"ha":830,"x_min":88,"x_max":742,"o":"m 621 960 q 706 924 671 960 q 742 838 742 888 l 742 720 q 708 635 742 671 q 742 551 742 600 l 742 410 q 706 323 742 359 q 621 288 671 288 l 210 288 q 124 323 160 288 q 88 410 88 359 l 88 551 q 122 635 88 600 q 88 720 88 671 l 88 838 q 124 924 88 888 q 210 960 160 960 l 621 960 m 163 720 q 178 687 163 700 q 210 673 191 673 l 621 673 q 653 687 640 673 q 667 720 667 700 l 667 838 q 653 871 667 857 q 621 884 640 884 l 210 884 q 178 871 191 884 q 163 838 163 857 l 163 720 m 667 551 q 653 584 667 570 q 621 597 640 597 l 210 597 q 178 584 191 597 q 163 551 163 570 l 163 410 q 178 376 163 391 q 210 363 191 363 l 621 363 q 653 376 640 363 q 667 410 667 391 l 667 551 z "},"⁹":{"ha":798,"x_min":88,"x_max":710,"o":"m 588 960 q 675 924 638 960 q 710 838 710 888 l 710 410 q 675 323 710 359 q 588 288 638 288 l 88 288 l 88 363 l 588 363 q 621 376 608 363 q 635 410 635 391 l 635 574 l 210 574 q 124 610 160 574 q 88 696 88 646 l 88 838 q 124 924 88 888 q 210 960 160 960 l 588 960 m 635 838 q 621 871 635 857 q 588 884 608 884 l 210 884 q 178 871 191 884 q 163 838 163 857 l 163 696 q 178 663 163 677 q 210 650 191 650 l 635 650 l 635 838 z "},"⁺":{"ha":694,"x_min":88,"x_max":606,"o":"m 385 614 l 606 614 l 606 539 l 385 539 l 385 343 l 310 343 l 310 539 l 88 539 l 88 614 l 310 614 l 310 811 l 385 811 l 385 614 z "},"⁻":{"ha":552,"x_min":88,"x_max":464,"o":"m 88 535 l 464 535 l 464 460 l 88 460 l 88 535 z "},"⁼":{"ha":552,"x_min":88,"x_max":464,"o":"m 88 481 l 464 481 l 464 406 l 88 406 l 88 481 m 88 671 l 464 671 l 464 595 l 88 595 l 88 671 z "},"⁽":{"ha":386,"x_min":88,"x_max":298,"o":"m 88 788 q 138 909 88 859 q 260 960 189 960 l 298 960 l 298 884 l 260 884 q 192 856 220 884 q 163 788 163 827 l 163 270 q 192 201 163 230 q 260 173 220 173 l 298 173 l 298 98 l 260 98 q 138 149 189 98 q 88 270 88 199 l 88 788 z "},"⁾":{"ha":386,"x_min":88,"x_max":298,"o":"m 298 270 q 248 149 298 199 q 125 98 197 98 l 88 98 l 88 173 l 125 173 q 194 201 165 173 q 222 270 222 230 l 222 788 q 194 856 222 827 q 125 884 165 884 l 88 884 l 88 960 l 125 960 q 248 909 197 960 q 298 788 298 859 l 298 270 z "},"₀":{"ha":842,"x_min":88,"x_max":753,"o":"m 545 336 q 692 275 631 336 q 753 126 753 213 l 753 -127 q 692 -275 753 -214 q 545 -336 631 -336 l 298 -336 q 149 -275 211 -336 q 88 -127 88 -214 l 88 126 q 149 275 88 213 q 298 336 211 336 l 545 336 m 678 126 q 640 221 678 182 q 545 260 600 260 l 298 260 q 203 221 242 260 q 163 126 163 182 l 163 -127 q 203 -222 163 -182 q 298 -261 242 -261 l 545 -261 q 640 -222 600 -261 q 678 -127 678 -182 l 678 126 z "},"₁":{"ha":454,"x_min":88,"x_max":366,"o":"m 328 332 q 366 277 366 317 l 366 -336 l 291 -336 l 291 228 l 149 37 l 88 82 l 261 313 q 291 334 273 329 q 307 336 298 336 q 328 332 317 336 z "},"₂":{"ha":863,"x_min":88,"x_max":774,"o":"m 163 -261 l 774 -260 l 774 -336 l 88 -336 l 88 -78 q 125 12 88 -26 q 215 49 162 49 l 652 49 q 685 62 671 49 q 699 95 699 76 l 699 214 q 685 247 699 233 q 652 260 671 260 l 105 260 l 105 336 l 652 336 q 738 300 703 336 q 774 214 774 264 l 774 95 q 738 9 774 45 q 652 -26 703 -26 l 215 -26 q 178 -41 193 -26 q 163 -78 163 -57 l 163 -261 z "},"₃":{"ha":798,"x_min":88,"x_max":710,"o":"m 588 336 q 675 300 638 336 q 710 214 710 264 l 710 96 q 676 11 710 47 q 710 -73 710 -24 l 710 -214 q 675 -300 710 -264 q 588 -336 638 -336 l 88 -336 l 88 -261 l 588 -261 q 621 -248 608 -261 q 635 -214 635 -233 l 635 -73 q 621 -40 635 -54 q 588 -26 608 -26 l 113 -26 l 113 49 l 588 49 q 621 62 608 49 q 635 96 635 76 l 635 214 q 621 247 635 233 q 588 260 608 260 l 88 260 l 88 336 l 588 336 z "},"₄":{"ha":1011,"x_min":88,"x_max":923,"o":"m 781 -111 l 923 -111 l 923 -186 l 781 -186 l 781 -336 l 705 -336 l 705 -186 l 148 -186 q 92 -147 106 -186 q 88 -126 88 -137 q 91 -109 88 -118 q 112 -80 96 -91 l 686 324 q 722 336 703 336 q 746 331 734 336 q 781 277 781 315 l 781 -111 m 708 251 l 197 -106 l 708 -106 l 708 251 z "},"₅":{"ha":863,"x_min":88,"x_max":774,"o":"m 774 260 l 163 260 l 163 49 l 652 49 q 739 14 703 49 q 774 -73 774 -22 l 774 -214 q 739 -300 774 -264 q 652 -336 703 -336 l 88 -336 l 88 -261 l 652 -261 q 685 -248 671 -261 q 699 -214 699 -233 l 699 -73 q 685 -40 699 -54 q 652 -26 671 -26 l 88 -26 l 88 336 l 774 336 l 774 260 z "},"₆":{"ha":798,"x_min":88,"x_max":710,"o":"m 88 214 q 124 300 88 264 q 210 336 160 336 l 710 336 l 710 260 l 210 260 q 178 247 191 260 q 163 214 163 233 l 163 49 l 588 49 q 675 14 638 49 q 710 -73 710 -22 l 710 -214 q 675 -300 710 -264 q 588 -336 638 -336 l 210 -336 q 124 -300 160 -336 q 88 -214 88 -264 l 88 214 m 163 -26 l 163 -214 q 178 -248 163 -233 q 210 -261 191 -261 l 588 -261 q 621 -248 608 -261 q 635 -214 635 -233 l 635 -73 q 621 -40 635 -54 q 588 -26 608 -26 l 163 -26 z "},"₇":{"ha":842,"x_min":88,"x_max":754,"o":"m 692 343 q 745 314 728 343 q 754 284 754 298 q 743 250 754 267 l 312 -344 l 251 -300 l 662 268 l 88 268 l 88 343 l 692 343 z "},"₈":{"ha":830,"x_min":88,"x_max":742,"o":"m 621 336 q 706 300 671 336 q 742 214 742 264 l 742 96 q 708 12 742 47 q 742 -73 742 -24 l 742 -214 q 706 -300 742 -264 q 621 -336 671 -336 l 210 -336 q 124 -300 160 -336 q 88 -214 88 -264 l 88 -73 q 122 12 88 -24 q 88 96 88 47 l 88 214 q 124 300 88 264 q 210 336 160 336 l 621 336 m 163 96 q 178 63 163 76 q 210 49 191 49 l 621 49 q 653 63 640 49 q 667 96 667 76 l 667 214 q 653 247 667 233 q 621 260 640 260 l 210 260 q 178 247 191 260 q 163 214 163 233 l 163 96 m 667 -73 q 653 -40 667 -54 q 621 -26 640 -26 l 210 -26 q 178 -40 191 -26 q 163 -73 163 -54 l 163 -214 q 178 -248 163 -233 q 210 -261 191 -261 l 621 -261 q 653 -248 640 -261 q 667 -214 667 -233 l 667 -73 z "},"₉":{"ha":798,"x_min":88,"x_max":710,"o":"m 588 336 q 675 300 638 336 q 710 214 710 264 l 710 -214 q 675 -300 710 -264 q 588 -336 638 -336 l 88 -336 l 88 -261 l 588 -261 q 621 -248 608 -261 q 635 -214 635 -233 l 635 -50 l 210 -50 q 124 -14 160 -50 q 88 73 88 22 l 88 214 q 124 300 88 264 q 210 336 160 336 l 588 336 m 635 214 q 621 247 635 233 q 588 260 608 260 l 210 260 q 178 247 191 260 q 163 214 163 233 l 163 73 q 178 39 163 54 q 210 26 191 26 l 635 26 l 635 214 z "},"₊":{"ha":694,"x_min":88,"x_max":606,"o":"m 385 37 l 606 37 l 606 -38 l 385 -38 l 385 -234 l 310 -234 l 310 -38 l 88 -38 l 88 37 l 310 37 l 310 234 l 385 234 l 385 37 z "},"₋":{"ha":552,"x_min":88,"x_max":464,"o":"m 88 38 l 464 38 l 464 -37 l 88 -37 l 88 38 z "},"₌":{"ha":552,"x_min":88,"x_max":464,"o":"m 88 -57 l 464 -57 l 464 -132 l 88 -132 l 88 -57 m 88 133 l 464 133 l 464 58 l 88 58 l 88 133 z "},"₍":{"ha":386,"x_min":88,"x_max":298,"o":"m 88 395 q 138 516 88 466 q 260 566 189 566 l 298 566 l 298 491 l 260 491 q 192 463 220 491 q 163 395 163 434 l 163 -123 q 192 -192 163 -163 q 260 -220 220 -220 l 298 -220 l 298 -295 l 260 -295 q 138 -245 189 -295 q 88 -123 88 -195 l 88 395 z "},"₎":{"ha":386,"x_min":88,"x_max":298,"o":"m 298 -123 q 248 -245 298 -195 q 125 -295 197 -295 l 88 -295 l 88 -220 l 125 -220 q 194 -192 165 -220 q 222 -123 222 -163 l 222 395 q 194 463 222 434 q 125 491 165 491 l 88 491 l 88 566 l 125 566 q 248 516 197 566 q 298 395 298 466 l 298 -123 z "},"‰":{"ha":2233,"x_min":75,"x_max":2159,"o":"m 477 994 q 633 945 568 994 q 699 823 699 895 l 699 633 q 633 511 699 562 q 477 463 568 463 l 298 463 q 141 511 207 463 q 75 633 75 562 l 75 823 q 141 945 75 895 q 298 994 207 994 l 477 994 m 597 823 q 564 884 597 858 q 477 910 528 910 l 298 910 q 211 884 246 910 q 177 823 177 858 l 177 633 q 211 573 177 598 q 298 546 246 546 l 477 546 q 564 573 528 546 q 597 633 597 598 l 597 823 m 340 -41 l 1076 993 l 1192 993 l 456 -41 l 340 -41 m 1234 497 q 1390 448 1325 497 q 1457 326 1457 398 l 1457 136 q 1390 15 1457 64 q 1234 -34 1325 -34 l 1055 -34 q 899 15 964 -34 q 832 136 832 64 l 832 326 q 899 448 832 398 q 1055 497 964 497 l 1234 497 m 1354 326 q 1321 387 1354 361 q 1234 414 1285 414 l 1055 414 q 968 387 1004 414 q 935 326 935 361 l 935 136 q 968 76 935 102 q 1055 50 1004 50 l 1234 50 q 1321 76 1285 50 q 1354 136 1354 102 l 1354 326 m 1936 497 q 2092 448 2027 497 q 2159 326 2159 398 l 2159 136 q 2092 15 2159 64 q 1936 -34 2027 -34 l 1757 -34 q 1600 15 1666 -34 q 1534 136 1534 64 l 1534 326 q 1600 448 1534 398 q 1757 497 1666 497 l 1936 497 m 2056 326 q 2023 387 2056 361 q 1936 414 1987 414 l 1757 414 q 1670 387 1706 414 q 1636 326 1636 361 l 1636 136 q 1670 76 1636 102 q 1757 50 1706 50 l 1936 50 q 2023 76 1987 50 q 2056 136 2056 102 l 2056 326 z "},"₺":{"ha":795,"x_min":31,"x_max":777,"o":"m 31 651 l 231 724 l 231 979 l 321 979 l 321 757 l 629 869 l 659 789 l 321 667 l 321 576 l 629 688 l 659 608 l 321 486 l 321 76 l 329 77 q 583 196 485 98 q 686 457 686 301 l 686 499 l 777 500 l 777 455 q 629 120 777 252 q 277 -12 489 -5 l 231 -14 l 231 453 l 60 391 l 31 471 l 231 543 l 231 633 l 60 572 l 31 651 z "}}}
